<ttFont>
    <TTGlyph name="A" xMin="-25" yMin="0" xMax="627" yMax="635">
      <contour>
        <pt x="41" y="597" on="1"/>
        <pt x="41" y="635" on="1"/>
        <pt x="493" y="635" on="1"/>
        <pt x="585" y="38" on="1"/>
        <pt x="627" y="38" on="1"/>
        <pt x="627" y="0" on="1"/>
        <pt x="-25" y="0" on="1"/>
        <pt x="-25" y="38" on="1"/>
        <pt x="16" y="38" on="1"/>
        <pt x="103" y="597" on="1"/>
      </contour>
      <contour>
        <pt x="196" y="575" on="1"/>
        <pt x="196" y="205" on="1"/>
        <pt x="318" y="205" on="1"/>
        <pt x="285" y="575" on="1"/>
      </contour>
      <contour>
        <pt x="196" y="0" on="1"/>
        <pt x="337" y="0" on="1"/>
        <pt x="323" y="150" on="1"/>
        <pt x="196" y="150" on="1"/>
      </contour>
    </TTGlyph>
    <TTGlyph name="AE" xMin="-25" yMin="0" xMax="851" yMax="635">
      <contour>
        <pt x="141" y="597" on="1"/>
        <pt x="141" y="635" on="1"/>
        <pt x="851" y="635" on="1"/>
        <pt x="851" y="421" on="1"/>
        <pt x="734" y="421" on="1"/>
        <pt x="693" y="575" on="1"/>
        <pt x="604" y="575" on="1"/>
        <pt x="604" y="339" on="1"/>
        <pt x="795" y="339" on="1"/>
        <pt x="795" y="284" on="1"/>
        <pt x="604" y="284" on="1"/>
        <pt x="604" y="60" on="1"/>
        <pt x="693" y="60" on="1"/>
        <pt x="734" y="214" on="1"/>
        <pt x="851" y="214" on="1"/>
        <pt x="851" y="0" on="1"/>
        <pt x="345" y="0" on="1"/>
        <pt x="345" y="38" on="1"/>
        <pt x="389" y="38" on="1"/>
        <pt x="389" y="284" on="1"/>
        <pt x="245" y="284" on="1"/>
        <pt x="196" y="0" on="1"/>
        <pt x="-25" y="0" on="1"/>
        <pt x="-25" y="38" on="1"/>
        <pt x="22" y="38" on="1"/>
        <pt x="197" y="597" on="1"/>
      </contour>
      <contour>
        <pt x="296" y="575" on="1"/>
        <pt x="255" y="339" on="1"/>
        <pt x="389" y="339" on="1"/>
        <pt x="389" y="575" on="1"/>
      </contour>
    </TTGlyph>
    <TTGlyph name="Aacute" xMin="-35" yMin="0" xMax="617" yMax="865">
      <contour>
        <pt x="31" y="597" on="1"/>
        <pt x="31" y="635" on="1"/>
        <pt x="483" y="635" on="1"/>
        <pt x="575" y="38" on="1"/>
        <pt x="617" y="38" on="1"/>
        <pt x="617" y="0" on="1"/>
        <pt x="-35" y="0" on="1"/>
        <pt x="-35" y="38" on="1"/>
        <pt x="6" y="38" on="1"/>
        <pt x="93" y="597" on="1"/>
      </contour>
      <contour>
        <pt x="186" y="575" on="1"/>
        <pt x="186" y="205" on="1"/>
        <pt x="308" y="205" on="1"/>
        <pt x="275" y="575" on="1"/>
      </contour>
      <contour>
        <pt x="186" y="0" on="1"/>
        <pt x="327" y="0" on="1"/>
        <pt x="313" y="150" on="1"/>
        <pt x="186" y="150" on="1"/>
      </contour>
      <contour>
        <pt x="156" y="763" on="1"/>
        <pt x="367" y="865" on="1"/>
        <pt x="416" y="730" on="1"/>
        <pt x="189" y="671" on="1"/>
      </contour>
    </TTGlyph>
    <TTGlyph name="Acircumflex" xMin="-35" yMin="0" xMax="617" yMax="872">
      <contour>
        <pt x="186" y="0" on="1"/>
        <pt x="-35" y="0" on="1"/>
        <pt x="-35" y="38" on="1"/>
        <pt x="6" y="38" on="1"/>
        <pt x="93" y="597" on="1"/>
        <pt x="31" y="597" on="1"/>
        <pt x="31" y="635" on="1"/>
        <pt x="483" y="635" on="1"/>
        <pt x="575" y="38" on="1"/>
        <pt x="617" y="38" on="1"/>
        <pt x="617" y="0" on="1"/>
        <pt x="327" y="0" on="1"/>
        <pt x="313" y="150" on="1"/>
        <pt x="186" y="150" on="1"/>
      </contour>
      <contour>
        <pt x="339" y="872" on="1"/>
        <pt x="457" y="742" on="1"/>
        <pt x="398" y="671" on="1"/>
        <pt x="291" y="747" on="1"/>
        <pt x="184" y="671" on="1"/>
        <pt x="125" y="742" on="1"/>
        <pt x="243" y="872" on="1"/>
      </contour>
      <contour>
        <pt x="186" y="575" on="1"/>
        <pt x="186" y="205" on="1"/>
        <pt x="308" y="205" on="1"/>
        <pt x="275" y="575" on="1"/>
      </contour>
    </TTGlyph>
    <TTGlyph name="Adieresis" xMin="-35" yMin="0" xMax="617" yMax="850">
      <contour>
        <pt x="186" y="0" on="1"/>
        <pt x="-35" y="0" on="1"/>
        <pt x="-35" y="38" on="1"/>
        <pt x="6" y="38" on="1"/>
        <pt x="93" y="597" on="1"/>
        <pt x="31" y="597" on="1"/>
        <pt x="31" y="635" on="1"/>
        <pt x="483" y="635" on="1"/>
        <pt x="575" y="38" on="1"/>
        <pt x="617" y="38" on="1"/>
        <pt x="617" y="0" on="1"/>
        <pt x="327" y="0" on="1"/>
        <pt x="313" y="150" on="1"/>
        <pt x="186" y="150" on="1"/>
      </contour>
      <contour>
        <pt x="186" y="575" on="1"/>
        <pt x="186" y="205" on="1"/>
        <pt x="308" y="205" on="1"/>
        <pt x="275" y="575" on="1"/>
      </contour>
      <contour>
        <pt x="244" y="822" on="0"/>
        <pt x="244" y="712" on="0"/>
        <pt x="221" y="684" on="0"/>
        <pt x="136" y="684" on="0"/>
        <pt x="110" y="712" on="0"/>
        <pt x="110" y="822" on="0"/>
        <pt x="136" y="850" on="0"/>
        <pt x="221" y="850" on="0"/>
      </contour>
      <contour>
        <pt x="442" y="822" on="0"/>
        <pt x="442" y="712" on="0"/>
        <pt x="419" y="684" on="0"/>
        <pt x="334" y="684" on="0"/>
        <pt x="308" y="712" on="0"/>
        <pt x="308" y="822" on="0"/>
        <pt x="334" y="850" on="0"/>
        <pt x="419" y="850" on="0"/>
      </contour>
    </TTGlyph>
    <TTGlyph name="Agrave" xMin="-35" yMin="0" xMax="617" yMax="865">
      <contour>
        <pt x="31" y="597" on="1"/>
        <pt x="31" y="635" on="1"/>
        <pt x="483" y="635" on="1"/>
        <pt x="575" y="38" on="1"/>
        <pt x="617" y="38" on="1"/>
        <pt x="617" y="0" on="1"/>
        <pt x="-35" y="0" on="1"/>
        <pt x="-35" y="38" on="1"/>
        <pt x="6" y="38" on="1"/>
        <pt x="93" y="597" on="1"/>
      </contour>
      <contour>
        <pt x="186" y="575" on="1"/>
        <pt x="186" y="205" on="1"/>
        <pt x="308" y="205" on="1"/>
        <pt x="275" y="575" on="1"/>
      </contour>
      <contour>
        <pt x="186" y="0" on="1"/>
        <pt x="327" y="0" on="1"/>
        <pt x="313" y="150" on="1"/>
        <pt x="186" y="150" on="1"/>
      </contour>
      <contour>
        <pt x="210" y="865" on="1"/>
        <pt x="421" y="763" on="1"/>
        <pt x="388" y="671" on="1"/>
        <pt x="161" y="730" on="1"/>
      </contour>
    </TTGlyph>
    <TTGlyph name="Aring" xMin="-35" yMin="0" xMax="617" yMax="865">
      <contour>
        <pt x="186" y="0" on="1"/>
        <pt x="-35" y="0" on="1"/>
        <pt x="-35" y="38" on="1"/>
        <pt x="6" y="38" on="1"/>
        <pt x="93" y="597" on="1"/>
        <pt x="31" y="597" on="1"/>
        <pt x="31" y="635" on="1"/>
        <pt x="202" y="635" on="1"/>
        <pt x="202" y="641" on="1"/>
        <pt x="168" y="650" on="0"/>
        <pt x="145" y="700" on="0"/>
        <pt x="145" y="816" on="0"/>
        <pt x="193" y="865" on="0"/>
        <pt x="341" y="865" on="0"/>
        <pt x="389" y="816" on="0"/>
        <pt x="389" y="701" on="0"/>
        <pt x="365" y="650" on="0"/>
        <pt x="331" y="641" on="1"/>
        <pt x="331" y="635" on="1"/>
        <pt x="483" y="635" on="1"/>
        <pt x="575" y="38" on="1"/>
        <pt x="617" y="38" on="1"/>
        <pt x="617" y="0" on="1"/>
        <pt x="327" y="0" on="1"/>
        <pt x="313" y="150" on="1"/>
        <pt x="186" y="150" on="1"/>
      </contour>
      <contour>
        <pt x="186" y="575" on="1"/>
        <pt x="186" y="205" on="1"/>
        <pt x="308" y="205" on="1"/>
        <pt x="275" y="575" on="1"/>
      </contour>
      <contour>
        <pt x="294" y="793" on="0"/>
        <pt x="240" y="793" on="0"/>
        <pt x="226" y="779" on="0"/>
        <pt x="226" y="720" on="0"/>
        <pt x="240" y="707" on="0"/>
        <pt x="294" y="707" on="0"/>
        <pt x="308" y="720" on="0"/>
        <pt x="308" y="779" on="0"/>
      </contour>
    </TTGlyph>
    <TTGlyph name="Atilde" xMin="-35" yMin="0" xMax="617" yMax="850">
      <contour>
        <pt x="31" y="597" on="1"/>
        <pt x="31" y="635" on="1"/>
        <pt x="483" y="635" on="1"/>
        <pt x="575" y="38" on="1"/>
        <pt x="617" y="38" on="1"/>
        <pt x="617" y="0" on="1"/>
        <pt x="-35" y="0" on="1"/>
        <pt x="-35" y="38" on="1"/>
        <pt x="6" y="38" on="1"/>
        <pt x="93" y="597" on="1"/>
      </contour>
      <contour>
        <pt x="186" y="575" on="1"/>
        <pt x="186" y="205" on="1"/>
        <pt x="308" y="205" on="1"/>
        <pt x="275" y="575" on="1"/>
      </contour>
      <contour>
        <pt x="186" y="0" on="1"/>
        <pt x="327" y="0" on="1"/>
        <pt x="313" y="150" on="1"/>
        <pt x="186" y="150" on="1"/>
      </contour>
      <contour>
        <pt x="467" y="826" on="1"/>
        <pt x="456" y="769" on="1"/>
        <pt x="437" y="668" on="0"/>
        <pt x="338" y="668" on="1"/>
        <pt x="268" y="668" on="0"/>
        <pt x="226" y="729" on="1"/>
        <pt x="214" y="729" on="1"/>
        <pt x="186" y="678" on="1"/>
        <pt x="114" y="691" on="1"/>
        <pt x="124" y="748" on="1"/>
        <pt x="142" y="850" on="0"/>
        <pt x="241" y="850" on="1"/>
        <pt x="313" y="850" on="0"/>
        <pt x="354" y="788" on="1"/>
        <pt x="366" y="788" on="1"/>
        <pt x="394" y="840" on="1"/>
      </contour>
    </TTGlyph>
    <TTGlyph name="B" xMin="30" yMin="0" xMax="639" yMax="635">
      <contour>
        <pt x="639" y="162" on="1"/>
        <pt x="639" y="101" on="0"/>
        <pt x="610" y="59" on="1"/>
        <pt x="593" y="33" on="0"/>
        <pt x="534" y="13" on="1"/>
        <pt x="502" y="2" on="0"/>
        <pt x="405" y="0" on="0"/>
        <pt x="364" y="0" on="1"/>
        <pt x="30" y="0" on="1"/>
        <pt x="30" y="38" on="1"/>
        <pt x="74" y="38" on="1"/>
        <pt x="74" y="597" on="1"/>
        <pt x="30" y="597" on="1"/>
        <pt x="30" y="635" on="1"/>
        <pt x="354" y="635" on="1"/>
        <pt x="485" y="635" on="0"/>
        <pt x="524" y="622" on="1"/>
        <pt x="583" y="602" on="0"/>
        <pt x="600" y="576" on="1"/>
        <pt x="629" y="534" on="0"/>
        <pt x="629" y="473" on="1"/>
        <pt x="629" y="350" on="0"/>
        <pt x="485" y="322" on="1"/>
        <pt x="485" y="314" on="1"/>
        <pt x="639" y="286" on="0"/>
      </contour>
      <contour>
        <pt x="289" y="579" on="1"/>
        <pt x="289" y="345" on="1"/>
        <pt x="424" y="345" on="1"/>
        <pt x="424" y="579" on="1"/>
      </contour>
      <contour>
        <pt x="424" y="60" on="1"/>
        <pt x="424" y="290" on="1"/>
        <pt x="289" y="290" on="1"/>
        <pt x="289" y="60" on="1"/>
      </contour>
    </TTGlyph>
    <TTGlyph name="C" xMin="20" yMin="-15" xMax="580" yMax="650">
      <contour>
        <pt x="365" y="57" on="1"/>
        <pt x="365" y="239" on="1"/>
        <pt x="580" y="239" on="1"/>
        <pt x="580" y="227" on="1"/>
        <pt x="580" y="114" on="0"/>
        <pt x="542" y="64" on="1"/>
        <pt x="521" y="38" on="0"/>
        <pt x="475" y="6" on="0"/>
        <pt x="438" y="-2" on="1"/>
        <pt x="378" y="-15" on="0"/>
        <pt x="255" y="-15" on="0"/>
        <pt x="224" y="-14" on="0"/>
        <pt x="169" y="-10" on="0"/>
        <pt x="140" y="0" on="0"/>
        <pt x="96" y="19" on="0"/>
        <pt x="73" y="46" on="0"/>
        <pt x="44" y="88" on="0"/>
        <pt x="37" y="116" on="1"/>
        <pt x="20" y="182" on="0"/>
        <pt x="20" y="262" on="1"/>
        <pt x="20" y="374" on="1"/>
        <pt x="20" y="453" on="0"/>
        <pt x="38" y="520" on="1"/>
        <pt x="50" y="561" on="0"/>
        <pt x="90" y="602" on="1"/>
        <pt x="108" y="622" on="0"/>
        <pt x="166" y="640" on="1"/>
        <pt x="196" y="650" on="0"/>
        <pt x="354" y="650" on="0"/>
        <pt x="415" y="645" on="0"/>
        <pt x="483" y="629" on="0"/>
        <pt x="526" y="597" on="0"/>
        <pt x="544" y="570" on="1"/>
        <pt x="580" y="520" on="0"/>
        <pt x="580" y="408" on="1"/>
        <pt x="580" y="389" on="1"/>
        <pt x="365" y="389" on="1"/>
        <pt x="365" y="579" on="1"/>
        <pt x="235" y="579" on="1"/>
        <pt x="235" y="57" on="1"/>
      </contour>
    </TTGlyph>
    <TTGlyph name="Ccedilla" xMin="20" yMin="-165" xMax="580" yMax="650">
      <contour>
        <pt x="373" y="-12" on="1"/>
        <pt x="402" y="-32" on="0"/>
        <pt x="402" y="-124" on="0"/>
        <pt x="337" y="-165" on="0"/>
        <pt x="237" y="-165" on="0"/>
        <pt x="179" y="-149" on="1"/>
        <pt x="186" y="-52" on="1"/>
        <pt x="238" y="-52" on="1"/>
        <pt x="272" y="-104" on="1"/>
        <pt x="299" y="-104" on="1"/>
        <pt x="299" y="-15" on="1"/>
        <pt x="286" y="-15" on="1"/>
        <pt x="184" y="-15" on="0"/>
        <pt x="140" y="0" on="0"/>
        <pt x="96" y="19" on="0"/>
        <pt x="73" y="46" on="0"/>
        <pt x="44" y="88" on="0"/>
        <pt x="37" y="116" on="1"/>
        <pt x="20" y="182" on="0"/>
        <pt x="20" y="262" on="1"/>
        <pt x="20" y="374" on="1"/>
        <pt x="20" y="453" on="0"/>
        <pt x="38" y="520" on="1"/>
        <pt x="50" y="561" on="0"/>
        <pt x="90" y="602" on="1"/>
        <pt x="108" y="622" on="0"/>
        <pt x="166" y="640" on="1"/>
        <pt x="196" y="650" on="0"/>
        <pt x="354" y="650" on="0"/>
        <pt x="415" y="645" on="0"/>
        <pt x="483" y="629" on="0"/>
        <pt x="526" y="597" on="0"/>
        <pt x="544" y="570" on="1"/>
        <pt x="580" y="520" on="0"/>
        <pt x="580" y="408" on="1"/>
        <pt x="580" y="389" on="1"/>
        <pt x="365" y="389" on="1"/>
        <pt x="365" y="579" on="1"/>
        <pt x="235" y="579" on="1"/>
        <pt x="235" y="57" on="1"/>
        <pt x="365" y="57" on="1"/>
        <pt x="365" y="239" on="1"/>
        <pt x="580" y="239" on="1"/>
        <pt x="580" y="227" on="1"/>
        <pt x="580" y="98" on="0"/>
        <pt x="477" y="-4" on="0"/>
      </contour>
    </TTGlyph>
    <TTGlyph name="D" xMin="30" yMin="0" xMax="654" yMax="635">
      <contour>
        <pt x="379" y="0" on="1"/>
        <pt x="30" y="0" on="1"/>
        <pt x="30" y="38" on="1"/>
        <pt x="74" y="38" on="1"/>
        <pt x="74" y="597" on="1"/>
        <pt x="30" y="597" on="1"/>
        <pt x="30" y="635" on="1"/>
        <pt x="379" y="635" on="1"/>
        <pt x="485" y="635" on="0"/>
        <pt x="530" y="620" on="0"/>
        <pt x="575" y="601" on="0"/>
        <pt x="600" y="574" on="0"/>
        <pt x="629" y="532" on="0"/>
        <pt x="636" y="505" on="1"/>
        <pt x="654" y="442" on="0"/>
        <pt x="654" y="359" on="1"/>
        <pt x="654" y="277" on="1"/>
        <pt x="654" y="140" on="0"/>
        <pt x="614" y="83" on="1"/>
        <pt x="600" y="62" on="0"/>
        <pt x="575" y="34" on="0"/>
        <pt x="531" y="15" on="0"/>
        <pt x="500" y="6" on="0"/>
        <pt x="472" y="4" on="1"/>
        <pt x="433" y="0" on="0"/>
      </contour>
      <contour>
        <pt x="439" y="60" on="1"/>
        <pt x="439" y="579" on="1"/>
        <pt x="289" y="579" on="1"/>
        <pt x="289" y="60" on="1"/>
      </contour>
    </TTGlyph>
    <TTGlyph name="Delta" xMin="70" yMin="0" xMax="596" yMax="600">
      <contour>
        <pt x="596" y="0" on="1"/>
        <pt x="70" y="0" on="1"/>
        <pt x="218" y="600" on="1"/>
        <pt x="469" y="600" on="1"/>
      </contour>
      <contour>
        <pt x="259" y="540" on="1"/>
        <pt x="137" y="50" on="1"/>
        <pt x="385" y="50" on="1"/>
        <pt x="280" y="540" on="1"/>
      </contour>
    </TTGlyph>
    <TTGlyph name="E" xMin="30" yMin="0" xMax="536" yMax="635">
      <contour>
        <pt x="30" y="0" on="1"/>
        <pt x="30" y="38" on="1"/>
        <pt x="74" y="38" on="1"/>
        <pt x="74" y="597" on="1"/>
        <pt x="30" y="597" on="1"/>
        <pt x="30" y="635" on="1"/>
        <pt x="536" y="635" on="1"/>
        <pt x="536" y="421" on="1"/>
        <pt x="419" y="421" on="1"/>
        <pt x="378" y="575" on="1"/>
        <pt x="289" y="575" on="1"/>
        <pt x="289" y="339" on="1"/>
        <pt x="480" y="339" on="1"/>
        <pt x="480" y="284" on="1"/>
        <pt x="289" y="284" on="1"/>
        <pt x="289" y="60" on="1"/>
        <pt x="378" y="60" on="1"/>
        <pt x="419" y="214" on="1"/>
        <pt x="536" y="214" on="1"/>
        <pt x="536" y="0" on="1"/>
      </contour>
    </TTGlyph>
    <TTGlyph name="Eacute" xMin="30" yMin="0" xMax="536" yMax="865">
      <contour>
        <pt x="30" y="0" on="1"/>
        <pt x="30" y="38" on="1"/>
        <pt x="74" y="38" on="1"/>
        <pt x="74" y="597" on="1"/>
        <pt x="30" y="597" on="1"/>
        <pt x="30" y="635" on="1"/>
        <pt x="536" y="635" on="1"/>
        <pt x="536" y="421" on="1"/>
        <pt x="419" y="421" on="1"/>
        <pt x="378" y="575" on="1"/>
        <pt x="289" y="575" on="1"/>
        <pt x="289" y="339" on="1"/>
        <pt x="480" y="339" on="1"/>
        <pt x="480" y="284" on="1"/>
        <pt x="289" y="284" on="1"/>
        <pt x="289" y="60" on="1"/>
        <pt x="378" y="60" on="1"/>
        <pt x="419" y="214" on="1"/>
        <pt x="536" y="214" on="1"/>
        <pt x="536" y="0" on="1"/>
      </contour>
      <contour>
        <pt x="161" y="763" on="1"/>
        <pt x="372" y="865" on="1"/>
        <pt x="421" y="730" on="1"/>
        <pt x="194" y="671" on="1"/>
      </contour>
    </TTGlyph>
    <TTGlyph name="Ecircumflex" xMin="30" yMin="0" xMax="536" yMax="872">
      <contour>
        <pt x="30" y="0" on="1"/>
        <pt x="30" y="38" on="1"/>
        <pt x="74" y="38" on="1"/>
        <pt x="74" y="597" on="1"/>
        <pt x="30" y="597" on="1"/>
        <pt x="30" y="635" on="1"/>
        <pt x="536" y="635" on="1"/>
        <pt x="536" y="421" on="1"/>
        <pt x="419" y="421" on="1"/>
        <pt x="378" y="575" on="1"/>
        <pt x="289" y="575" on="1"/>
        <pt x="289" y="339" on="1"/>
        <pt x="480" y="339" on="1"/>
        <pt x="480" y="284" on="1"/>
        <pt x="289" y="284" on="1"/>
        <pt x="289" y="60" on="1"/>
        <pt x="378" y="60" on="1"/>
        <pt x="419" y="214" on="1"/>
        <pt x="536" y="214" on="1"/>
        <pt x="536" y="0" on="1"/>
      </contour>
      <contour>
        <pt x="343" y="872" on="1"/>
        <pt x="461" y="742" on="1"/>
        <pt x="402" y="671" on="1"/>
        <pt x="295" y="747" on="1"/>
        <pt x="188" y="671" on="1"/>
        <pt x="129" y="742" on="1"/>
        <pt x="247" y="872" on="1"/>
      </contour>
    </TTGlyph>
    <TTGlyph name="Edieresis" xMin="30" yMin="0" xMax="536" yMax="850">
      <contour>
        <pt x="30" y="0" on="1"/>
        <pt x="30" y="38" on="1"/>
        <pt x="74" y="38" on="1"/>
        <pt x="74" y="597" on="1"/>
        <pt x="30" y="597" on="1"/>
        <pt x="30" y="635" on="1"/>
        <pt x="536" y="635" on="1"/>
        <pt x="536" y="421" on="1"/>
        <pt x="419" y="421" on="1"/>
        <pt x="378" y="575" on="1"/>
        <pt x="289" y="575" on="1"/>
        <pt x="289" y="339" on="1"/>
        <pt x="480" y="339" on="1"/>
        <pt x="480" y="284" on="1"/>
        <pt x="289" y="284" on="1"/>
        <pt x="289" y="60" on="1"/>
        <pt x="378" y="60" on="1"/>
        <pt x="419" y="214" on="1"/>
        <pt x="536" y="214" on="1"/>
        <pt x="536" y="0" on="1"/>
      </contour>
      <contour>
        <pt x="248" y="822" on="0"/>
        <pt x="248" y="712" on="0"/>
        <pt x="225" y="684" on="0"/>
        <pt x="140" y="684" on="0"/>
        <pt x="114" y="712" on="0"/>
        <pt x="114" y="822" on="0"/>
        <pt x="140" y="850" on="0"/>
        <pt x="225" y="850" on="0"/>
      </contour>
      <contour>
        <pt x="446" y="822" on="0"/>
        <pt x="446" y="712" on="0"/>
        <pt x="423" y="684" on="0"/>
        <pt x="338" y="684" on="0"/>
        <pt x="312" y="712" on="0"/>
        <pt x="312" y="822" on="0"/>
        <pt x="338" y="850" on="0"/>
        <pt x="423" y="850" on="0"/>
      </contour>
    </TTGlyph>
    <TTGlyph name="Egrave" xMin="30" yMin="0" xMax="536" yMax="865">
      <contour>
        <pt x="30" y="0" on="1"/>
        <pt x="30" y="38" on="1"/>
        <pt x="74" y="38" on="1"/>
        <pt x="74" y="597" on="1"/>
        <pt x="30" y="597" on="1"/>
        <pt x="30" y="635" on="1"/>
        <pt x="536" y="635" on="1"/>
        <pt x="536" y="421" on="1"/>
        <pt x="419" y="421" on="1"/>
        <pt x="378" y="575" on="1"/>
        <pt x="289" y="575" on="1"/>
        <pt x="289" y="339" on="1"/>
        <pt x="480" y="339" on="1"/>
        <pt x="480" y="284" on="1"/>
        <pt x="289" y="284" on="1"/>
        <pt x="289" y="60" on="1"/>
        <pt x="378" y="60" on="1"/>
        <pt x="419" y="214" on="1"/>
        <pt x="536" y="214" on="1"/>
        <pt x="536" y="0" on="1"/>
      </contour>
      <contour>
        <pt x="215" y="865" on="1"/>
        <pt x="426" y="763" on="1"/>
        <pt x="393" y="671" on="1"/>
        <pt x="166" y="730" on="1"/>
      </contour>
    </TTGlyph>
    <TTGlyph name="Eth" xMin="27" yMin="0" xMax="654" yMax="635">
      <contour>
        <pt x="27" y="286" on="1"/>
        <pt x="27" y="348" on="1"/>
        <pt x="74" y="348" on="1"/>
        <pt x="74" y="597" on="1"/>
        <pt x="30" y="597" on="1"/>
        <pt x="30" y="635" on="1"/>
        <pt x="379" y="635" on="1"/>
        <pt x="485" y="635" on="0"/>
        <pt x="530" y="620" on="0"/>
        <pt x="575" y="601" on="0"/>
        <pt x="600" y="574" on="0"/>
        <pt x="629" y="532" on="0"/>
        <pt x="636" y="505" on="1"/>
        <pt x="654" y="442" on="0"/>
        <pt x="654" y="359" on="1"/>
        <pt x="654" y="277" on="1"/>
        <pt x="654" y="140" on="0"/>
        <pt x="614" y="83" on="1"/>
        <pt x="600" y="62" on="0"/>
        <pt x="575" y="34" on="0"/>
        <pt x="531" y="15" on="0"/>
        <pt x="500" y="6" on="0"/>
        <pt x="472" y="4" on="1"/>
        <pt x="433" y="0" on="0"/>
        <pt x="379" y="0" on="1"/>
        <pt x="30" y="0" on="1"/>
        <pt x="30" y="38" on="1"/>
        <pt x="74" y="38" on="1"/>
        <pt x="74" y="286" on="1"/>
      </contour>
      <contour>
        <pt x="439" y="60" on="1"/>
        <pt x="439" y="579" on="1"/>
        <pt x="289" y="579" on="1"/>
        <pt x="289" y="348" on="1"/>
        <pt x="363" y="348" on="1"/>
        <pt x="363" y="286" on="1"/>
        <pt x="289" y="286" on="1"/>
        <pt x="289" y="60" on="1"/>
      </contour>
    </TTGlyph>
    <TTGlyph name="Euro" xMin="20" yMin="-15" xMax="536" yMax="615">
      <contour>
        <pt x="491" y="244" on="1"/>
        <pt x="267" y="244" on="1"/>
        <pt x="267" y="50" on="1"/>
        <pt x="407" y="50" on="1"/>
        <pt x="407" y="181" on="1"/>
        <pt x="491" y="181" on="1"/>
        <pt x="536" y="15" on="1"/>
        <pt x="452" y="-15" on="0"/>
        <pt x="350" y="-15" on="1"/>
        <pt x="243" y="-15" on="0"/>
        <pt x="195" y="-1" on="0"/>
        <pt x="148" y="17" on="0"/>
        <pt x="123" y="42" on="0"/>
        <pt x="91" y="81" on="0"/>
        <pt x="83" y="106" on="1"/>
        <pt x="64" y="168" on="0"/>
        <pt x="62" y="244" on="1"/>
        <pt x="20" y="244" on="1"/>
        <pt x="20" y="277" on="1"/>
        <pt x="62" y="277" on="1"/>
        <pt x="62" y="317" on="1"/>
        <pt x="20" y="317" on="1"/>
        <pt x="20" y="350" on="1"/>
        <pt x="62" y="350" on="1"/>
        <pt x="65" y="484" on="0"/>
        <pt x="106" y="536" on="1"/>
        <pt x="121" y="556" on="0"/>
        <pt x="147" y="583" on="0"/>
        <pt x="194" y="601" on="0"/>
        <pt x="225" y="610" on="0"/>
        <pt x="254" y="612" on="1"/>
        <pt x="299" y="615" on="0"/>
        <pt x="350" y="615" on="1"/>
        <pt x="452" y="615" on="0"/>
        <pt x="536" y="585" on="1"/>
        <pt x="491" y="419" on="1"/>
        <pt x="407" y="419" on="1"/>
        <pt x="407" y="550" on="1"/>
        <pt x="267" y="550" on="1"/>
        <pt x="267" y="350" on="1"/>
        <pt x="491" y="350" on="1"/>
        <pt x="491" y="317" on="1"/>
        <pt x="267" y="317" on="1"/>
        <pt x="267" y="277" on="1"/>
        <pt x="491" y="277" on="1"/>
      </contour>
    </TTGlyph>
    <TTGlyph name="F" xMin="30" yMin="0" xMax="526" yMax="635">
      <contour>
        <pt x="470" y="284" on="1"/>
        <pt x="289" y="284" on="1"/>
        <pt x="289" y="38" on="1"/>
        <pt x="413" y="38" on="1"/>
        <pt x="413" y="0" on="1"/>
        <pt x="30" y="0" on="1"/>
        <pt x="30" y="38" on="1"/>
        <pt x="74" y="38" on="1"/>
        <pt x="74" y="597" on="1"/>
        <pt x="30" y="597" on="1"/>
        <pt x="30" y="635" on="1"/>
        <pt x="526" y="635" on="1"/>
        <pt x="526" y="421" on="1"/>
        <pt x="409" y="421" on="1"/>
        <pt x="368" y="575" on="1"/>
        <pt x="289" y="575" on="1"/>
        <pt x="289" y="339" on="1"/>
        <pt x="470" y="339" on="1"/>
      </contour>
    </TTGlyph>
    <TTGlyph name="G" xMin="20" yMin="-15" xMax="590" yMax="650">
      <contour>
        <pt x="413" y="21" on="0"/>
        <pt x="342" y="-15" on="0"/>
        <pt x="255" y="-15" on="0"/>
        <pt x="224" y="-14" on="0"/>
        <pt x="169" y="-10" on="0"/>
        <pt x="140" y="0" on="0"/>
        <pt x="96" y="19" on="0"/>
        <pt x="73" y="46" on="0"/>
        <pt x="44" y="88" on="0"/>
        <pt x="37" y="116" on="1"/>
        <pt x="20" y="182" on="0"/>
        <pt x="20" y="262" on="1"/>
        <pt x="20" y="374" on="1"/>
        <pt x="20" y="453" on="0"/>
        <pt x="38" y="520" on="1"/>
        <pt x="50" y="561" on="0"/>
        <pt x="90" y="602" on="1"/>
        <pt x="109" y="622" on="0"/>
        <pt x="166" y="640" on="1"/>
        <pt x="198" y="650" on="0"/>
        <pt x="356" y="650" on="0"/>
        <pt x="419" y="645" on="0"/>
        <pt x="490" y="629" on="0"/>
        <pt x="534" y="597" on="0"/>
        <pt x="553" y="570" on="1"/>
        <pt x="590" y="519" on="0"/>
        <pt x="590" y="408" on="1"/>
        <pt x="590" y="389" on="1"/>
        <pt x="375" y="389" on="1"/>
        <pt x="375" y="579" on="1"/>
        <pt x="235" y="579" on="1"/>
        <pt x="235" y="76" on="1"/>
        <pt x="375" y="76" on="1"/>
        <pt x="375" y="255" on="1"/>
        <pt x="305" y="255" on="1"/>
        <pt x="305" y="310" on="1"/>
        <pt x="590" y="310" on="1"/>
        <pt x="590" y="0" on="1"/>
        <pt x="475" y="0" on="1"/>
        <pt x="446" y="76" on="1"/>
        <pt x="435" y="76" on="1"/>
      </contour>
    </TTGlyph>
    <TTGlyph name="H" xMin="30" yMin="0" xMax="698" yMax="635">
      <contour>
        <pt x="289" y="0" on="1"/>
        <pt x="30" y="0" on="1"/>
        <pt x="30" y="38" on="1"/>
        <pt x="74" y="38" on="1"/>
        <pt x="74" y="597" on="1"/>
        <pt x="30" y="597" on="1"/>
        <pt x="30" y="635" on="1"/>
        <pt x="289" y="635" on="1"/>
        <pt x="289" y="339" on="1"/>
        <pt x="439" y="339" on="1"/>
        <pt x="439" y="635" on="1"/>
        <pt x="698" y="635" on="1"/>
        <pt x="698" y="597" on="1"/>
        <pt x="654" y="597" on="1"/>
        <pt x="654" y="38" on="1"/>
        <pt x="698" y="38" on="1"/>
        <pt x="698" y="0" on="1"/>
        <pt x="439" y="0" on="1"/>
        <pt x="439" y="284" on="1"/>
        <pt x="289" y="284" on="1"/>
      </contour>
    </TTGlyph>
    <TTGlyph name="I" xMin="39" yMin="0" xMax="342" yMax="635">
      <contour>
        <pt x="342" y="597" on="1"/>
        <pt x="298" y="597" on="1"/>
        <pt x="298" y="38" on="1"/>
        <pt x="342" y="38" on="1"/>
        <pt x="342" y="0" on="1"/>
        <pt x="39" y="0" on="1"/>
        <pt x="39" y="38" on="1"/>
        <pt x="83" y="38" on="1"/>
        <pt x="83" y="597" on="1"/>
        <pt x="39" y="597" on="1"/>
        <pt x="39" y="635" on="1"/>
        <pt x="342" y="635" on="1"/>
      </contour>
    </TTGlyph>
    <TTGlyph name="Iacute" xMin="60" yMin="0" xMax="363" yMax="865">
      <contour>
        <pt x="363" y="597" on="1"/>
        <pt x="319" y="597" on="1"/>
        <pt x="319" y="38" on="1"/>
        <pt x="363" y="38" on="1"/>
        <pt x="363" y="0" on="1"/>
        <pt x="60" y="0" on="1"/>
        <pt x="60" y="38" on="1"/>
        <pt x="104" y="38" on="1"/>
        <pt x="104" y="597" on="1"/>
        <pt x="60" y="597" on="1"/>
        <pt x="60" y="635" on="1"/>
        <pt x="363" y="635" on="1"/>
      </contour>
      <contour>
        <pt x="77" y="763" on="1"/>
        <pt x="288" y="865" on="1"/>
        <pt x="337" y="730" on="1"/>
        <pt x="110" y="671" on="1"/>
      </contour>
    </TTGlyph>
    <TTGlyph name="Icircumflex" xMin="45" yMin="0" xMax="377" yMax="872">
      <contour>
        <pt x="363" y="597" on="1"/>
        <pt x="319" y="597" on="1"/>
        <pt x="319" y="38" on="1"/>
        <pt x="363" y="38" on="1"/>
        <pt x="363" y="0" on="1"/>
        <pt x="60" y="0" on="1"/>
        <pt x="60" y="38" on="1"/>
        <pt x="104" y="38" on="1"/>
        <pt x="104" y="597" on="1"/>
        <pt x="60" y="597" on="1"/>
        <pt x="60" y="635" on="1"/>
        <pt x="363" y="635" on="1"/>
      </contour>
      <contour>
        <pt x="259" y="872" on="1"/>
        <pt x="377" y="742" on="1"/>
        <pt x="318" y="671" on="1"/>
        <pt x="211" y="747" on="1"/>
        <pt x="104" y="671" on="1"/>
        <pt x="45" y="742" on="1"/>
        <pt x="163" y="872" on="1"/>
      </contour>
    </TTGlyph>
    <TTGlyph name="Idieresis" xMin="45" yMin="0" xMax="377" yMax="850">
      <contour>
        <pt x="363" y="597" on="1"/>
        <pt x="319" y="597" on="1"/>
        <pt x="319" y="38" on="1"/>
        <pt x="363" y="38" on="1"/>
        <pt x="363" y="0" on="1"/>
        <pt x="60" y="0" on="1"/>
        <pt x="60" y="38" on="1"/>
        <pt x="104" y="38" on="1"/>
        <pt x="104" y="597" on="1"/>
        <pt x="60" y="597" on="1"/>
        <pt x="60" y="635" on="1"/>
        <pt x="363" y="635" on="1"/>
      </contour>
      <contour>
        <pt x="179" y="822" on="0"/>
        <pt x="179" y="712" on="0"/>
        <pt x="156" y="684" on="0"/>
        <pt x="71" y="684" on="0"/>
        <pt x="45" y="712" on="0"/>
        <pt x="45" y="822" on="0"/>
        <pt x="71" y="850" on="0"/>
        <pt x="156" y="850" on="0"/>
      </contour>
      <contour>
        <pt x="377" y="822" on="0"/>
        <pt x="377" y="712" on="0"/>
        <pt x="354" y="684" on="0"/>
        <pt x="269" y="684" on="0"/>
        <pt x="243" y="712" on="0"/>
        <pt x="243" y="822" on="0"/>
        <pt x="269" y="850" on="0"/>
        <pt x="354" y="850" on="0"/>
      </contour>
    </TTGlyph>
    <TTGlyph name="Igrave" xMin="60" yMin="0" xMax="363" yMax="865">
      <contour>
        <pt x="363" y="597" on="1"/>
        <pt x="319" y="597" on="1"/>
        <pt x="319" y="38" on="1"/>
        <pt x="363" y="38" on="1"/>
        <pt x="363" y="0" on="1"/>
        <pt x="60" y="0" on="1"/>
        <pt x="60" y="38" on="1"/>
        <pt x="104" y="38" on="1"/>
        <pt x="104" y="597" on="1"/>
        <pt x="60" y="597" on="1"/>
        <pt x="60" y="635" on="1"/>
        <pt x="363" y="635" on="1"/>
      </contour>
      <contour>
        <pt x="131" y="865" on="1"/>
        <pt x="342" y="763" on="1"/>
        <pt x="309" y="671" on="1"/>
        <pt x="82" y="730" on="1"/>
      </contour>
    </TTGlyph>
    <TTGlyph name="J" xMin="-1" yMin="-15" xMax="342" yMax="635">
      <contour>
        <pt x="83" y="249" on="1"/>
        <pt x="83" y="597" on="1"/>
        <pt x="19" y="597" on="1"/>
        <pt x="19" y="635" on="1"/>
        <pt x="342" y="635" on="1"/>
        <pt x="342" y="597" on="1"/>
        <pt x="298" y="597" on="1"/>
        <pt x="298" y="205" on="1"/>
        <pt x="298" y="79" on="0"/>
        <pt x="203" y="-15" on="0"/>
        <pt x="118" y="-15" on="1"/>
        <pt x="54" y="-15" on="0"/>
        <pt x="-1" y="0" on="1"/>
        <pt x="22" y="170" on="1"/>
        <pt x="149" y="170" on="1"/>
        <pt x="149" y="223" on="1"/>
        <pt x="149" y="235" on="0"/>
        <pt x="144" y="241" on="1"/>
        <pt x="137" y="249" on="0"/>
        <pt x="119" y="249" on="1"/>
      </contour>
    </TTGlyph>
    <TTGlyph name="K" xMin="30" yMin="0" xMax="666" yMax="635">
      <contour>
        <pt x="460" y="322" on="1"/>
        <pt x="460" y="299" on="1"/>
        <pt x="505" y="299" on="1"/>
        <pt x="539" y="299" on="0"/>
        <pt x="562" y="277" on="0"/>
        <pt x="569" y="242" on="1"/>
        <pt x="609" y="38" on="1"/>
        <pt x="666" y="38" on="1"/>
        <pt x="666" y="0" on="1"/>
        <pt x="419" y="0" on="1"/>
        <pt x="359" y="284" on="1"/>
        <pt x="289" y="284" on="1"/>
        <pt x="289" y="0" on="1"/>
        <pt x="30" y="0" on="1"/>
        <pt x="30" y="38" on="1"/>
        <pt x="74" y="38" on="1"/>
        <pt x="74" y="597" on="1"/>
        <pt x="30" y="597" on="1"/>
        <pt x="30" y="635" on="1"/>
        <pt x="289" y="635" on="1"/>
        <pt x="289" y="339" on="1"/>
        <pt x="362" y="339" on="1"/>
        <pt x="419" y="635" on="1"/>
        <pt x="656" y="635" on="1"/>
        <pt x="656" y="597" on="1"/>
        <pt x="604" y="597" on="1"/>
        <pt x="540" y="385" on="1"/>
        <pt x="524" y="329" on="0"/>
      </contour>
    </TTGlyph>
    <TTGlyph name="L" xMin="30" yMin="0" xMax="526" yMax="635">
      <contour>
        <pt x="526" y="214" on="1"/>
        <pt x="526" y="0" on="1"/>
        <pt x="30" y="0" on="1"/>
        <pt x="30" y="38" on="1"/>
        <pt x="74" y="38" on="1"/>
        <pt x="74" y="597" on="1"/>
        <pt x="30" y="597" on="1"/>
        <pt x="30" y="635" on="1"/>
        <pt x="333" y="635" on="1"/>
        <pt x="333" y="597" on="1"/>
        <pt x="289" y="597" on="1"/>
        <pt x="289" y="60" on="1"/>
        <pt x="368" y="60" on="1"/>
        <pt x="409" y="214" on="1"/>
      </contour>
    </TTGlyph>
    <TTGlyph name="Lslash" xMin="17" yMin="0" xMax="526" yMax="635">
      <contour>
        <pt x="17" y="237" on="1"/>
        <pt x="17" y="299" on="1"/>
        <pt x="74" y="324" on="1"/>
        <pt x="74" y="597" on="1"/>
        <pt x="30" y="597" on="1"/>
        <pt x="30" y="635" on="1"/>
        <pt x="333" y="635" on="1"/>
        <pt x="333" y="597" on="1"/>
        <pt x="289" y="597" on="1"/>
        <pt x="289" y="418" on="1"/>
        <pt x="410" y="471" on="1"/>
        <pt x="410" y="409" on="1"/>
        <pt x="289" y="356" on="1"/>
        <pt x="289" y="60" on="1"/>
        <pt x="368" y="60" on="1"/>
        <pt x="409" y="214" on="1"/>
        <pt x="526" y="214" on="1"/>
        <pt x="526" y="0" on="1"/>
        <pt x="30" y="0" on="1"/>
        <pt x="30" y="38" on="1"/>
        <pt x="74" y="38" on="1"/>
        <pt x="74" y="262" on="1"/>
      </contour>
    </TTGlyph>
    <TTGlyph name="M" xMin="30" yMin="0" xMax="815" yMax="635">
      <contour>
        <pt x="30" y="597" on="1"/>
        <pt x="30" y="635" on="1"/>
        <pt x="404" y="635" on="1"/>
        <pt x="459" y="388" on="1"/>
        <pt x="478" y="388" on="1"/>
        <pt x="547" y="635" on="1"/>
        <pt x="815" y="635" on="1"/>
        <pt x="815" y="597" on="1"/>
        <pt x="771" y="597" on="1"/>
        <pt x="771" y="38" on="1"/>
        <pt x="815" y="38" on="1"/>
        <pt x="815" y="0" on="1"/>
        <pt x="541" y="0" on="1"/>
        <pt x="652" y="575" on="1"/>
        <pt x="611" y="575" on="1"/>
        <pt x="452" y="0" on="1"/>
        <pt x="322" y="0" on="1"/>
        <pt x="193" y="575" on="1"/>
        <pt x="152" y="575" on="1"/>
        <pt x="233" y="0" on="1"/>
        <pt x="30" y="0" on="1"/>
        <pt x="30" y="38" on="1"/>
        <pt x="74" y="38" on="1"/>
        <pt x="74" y="597" on="1"/>
      </contour>
    </TTGlyph>
    <TTGlyph name="N" xMin="30" yMin="0" xMax="707" yMax="635">
      <contour>
        <pt x="30" y="597" on="1"/>
        <pt x="30" y="635" on="1"/>
        <pt x="415" y="635" on="1"/>
        <pt x="556" y="60" on="1"/>
        <pt x="597" y="60" on="1"/>
        <pt x="516" y="635" on="1"/>
        <pt x="707" y="635" on="1"/>
        <pt x="707" y="597" on="1"/>
        <pt x="663" y="597" on="1"/>
        <pt x="663" y="0" on="1"/>
        <pt x="322" y="0" on="1"/>
        <pt x="193" y="575" on="1"/>
        <pt x="152" y="575" on="1"/>
        <pt x="221" y="0" on="1"/>
        <pt x="30" y="0" on="1"/>
        <pt x="30" y="38" on="1"/>
        <pt x="74" y="38" on="1"/>
        <pt x="74" y="597" on="1"/>
      </contour>
    </TTGlyph>
    <TTGlyph name="Ntilde" xMin="30" yMin="0" xMax="707" yMax="850">
      <contour>
        <pt x="30" y="597" on="1"/>
        <pt x="30" y="635" on="1"/>
        <pt x="415" y="635" on="1"/>
        <pt x="556" y="60" on="1"/>
        <pt x="597" y="60" on="1"/>
        <pt x="516" y="635" on="1"/>
        <pt x="707" y="635" on="1"/>
        <pt x="707" y="597" on="1"/>
        <pt x="663" y="597" on="1"/>
        <pt x="663" y="0" on="1"/>
        <pt x="322" y="0" on="1"/>
        <pt x="193" y="575" on="1"/>
        <pt x="152" y="575" on="1"/>
        <pt x="221" y="0" on="1"/>
        <pt x="30" y="0" on="1"/>
        <pt x="30" y="38" on="1"/>
        <pt x="74" y="38" on="1"/>
        <pt x="74" y="597" on="1"/>
      </contour>
      <contour>
        <pt x="541" y="826" on="1"/>
        <pt x="530" y="769" on="1"/>
        <pt x="511" y="668" on="0"/>
        <pt x="412" y="668" on="1"/>
        <pt x="342" y="668" on="0"/>
        <pt x="300" y="729" on="1"/>
        <pt x="288" y="729" on="1"/>
        <pt x="260" y="678" on="1"/>
        <pt x="188" y="691" on="1"/>
        <pt x="198" y="748" on="1"/>
        <pt x="216" y="850" on="0"/>
        <pt x="315" y="850" on="1"/>
        <pt x="387" y="850" on="0"/>
        <pt x="428" y="788" on="1"/>
        <pt x="440" y="788" on="1"/>
        <pt x="468" y="840" on="1"/>
      </contour>
    </TTGlyph>
    <TTGlyph name="O" xMin="20" yMin="-14" xMax="600" yMax="650">
      <contour>
        <pt x="600" y="374" on="1"/>
        <pt x="600" y="262" on="1"/>
        <pt x="600" y="181" on="0"/>
        <pt x="581" y="116" on="1"/>
        <pt x="569" y="75" on="0"/>
        <pt x="526" y="32" on="1"/>
        <pt x="507" y="13" on="0"/>
        <pt x="446" y="-5" on="1"/>
        <pt x="399" y="-19" on="0"/>
        <pt x="247" y="-14" on="1"/>
        <pt x="181" y="-12" on="0"/>
        <pt x="144" y="0" on="0"/>
        <pt x="99" y="19" on="0"/>
        <pt x="74" y="46" on="0"/>
        <pt x="45" y="88" on="0"/>
        <pt x="38" y="116" on="1"/>
        <pt x="20" y="180" on="0"/>
        <pt x="20" y="262" on="1"/>
        <pt x="20" y="374" on="1"/>
        <pt x="20" y="454" on="0"/>
        <pt x="56" y="563" on="0"/>
        <pt x="102" y="618" on="0"/>
        <pt x="198" y="646" on="0"/>
        <pt x="262" y="650" on="0"/>
        <pt x="357" y="650" on="0"/>
        <pt x="389" y="649" on="0"/>
        <pt x="446" y="645" on="0"/>
        <pt x="476" y="635" on="0"/>
        <pt x="521" y="616" on="0"/>
        <pt x="546" y="589" on="0"/>
        <pt x="575" y="547" on="0"/>
        <pt x="582" y="520" on="1"/>
        <pt x="600" y="457" on="0"/>
      </contour>
      <contour>
        <pt x="385" y="57" on="1"/>
        <pt x="385" y="579" on="1"/>
        <pt x="235" y="579" on="1"/>
        <pt x="235" y="57" on="1"/>
      </contour>
    </TTGlyph>
    <TTGlyph name="OE" xMin="20" yMin="0" xMax="847" yMax="635">
      <contour>
        <pt x="847" y="0" on="1"/>
        <pt x="295" y="0" on="1"/>
        <pt x="191" y="0" on="0"/>
        <pt x="144" y="14" on="0"/>
        <pt x="99" y="32" on="0"/>
        <pt x="74" y="58" on="0"/>
        <pt x="45" y="97" on="0"/>
        <pt x="38" y="123" on="1"/>
        <pt x="20" y="184" on="0"/>
        <pt x="20" y="262" on="1"/>
        <pt x="20" y="374" on="1"/>
        <pt x="20" y="507" on="0"/>
        <pt x="64" y="558" on="1"/>
        <pt x="89" y="586" on="0"/>
        <pt x="133" y="619" on="0"/>
        <pt x="176" y="626" on="1"/>
        <pt x="239" y="635" on="0"/>
        <pt x="325" y="635" on="1"/>
        <pt x="847" y="635" on="1"/>
        <pt x="847" y="421" on="1"/>
        <pt x="730" y="421" on="1"/>
        <pt x="689" y="575" on="1"/>
        <pt x="600" y="575" on="1"/>
        <pt x="600" y="339" on="1"/>
        <pt x="791" y="339" on="1"/>
        <pt x="791" y="284" on="1"/>
        <pt x="600" y="284" on="1"/>
        <pt x="600" y="60" on="1"/>
        <pt x="689" y="60" on="1"/>
        <pt x="730" y="214" on="1"/>
        <pt x="847" y="214" on="1"/>
      </contour>
      <contour>
        <pt x="385" y="60" on="1"/>
        <pt x="385" y="575" on="1"/>
        <pt x="235" y="575" on="1"/>
        <pt x="235" y="60" on="1"/>
      </contour>
    </TTGlyph>
    <TTGlyph name="Oacute" xMin="20" yMin="-14" xMax="600" yMax="865">
      <contour>
        <pt x="600" y="374" on="1"/>
        <pt x="600" y="262" on="1"/>
        <pt x="600" y="181" on="0"/>
        <pt x="581" y="116" on="1"/>
        <pt x="569" y="75" on="0"/>
        <pt x="526" y="32" on="1"/>
        <pt x="507" y="13" on="0"/>
        <pt x="446" y="-5" on="1"/>
        <pt x="399" y="-19" on="0"/>
        <pt x="247" y="-14" on="1"/>
        <pt x="181" y="-12" on="0"/>
        <pt x="144" y="0" on="0"/>
        <pt x="99" y="19" on="0"/>
        <pt x="74" y="46" on="0"/>
        <pt x="45" y="88" on="0"/>
        <pt x="38" y="116" on="1"/>
        <pt x="20" y="180" on="0"/>
        <pt x="20" y="262" on="1"/>
        <pt x="20" y="374" on="1"/>
        <pt x="20" y="454" on="0"/>
        <pt x="56" y="563" on="0"/>
        <pt x="102" y="618" on="0"/>
        <pt x="198" y="646" on="0"/>
        <pt x="262" y="650" on="0"/>
        <pt x="357" y="650" on="0"/>
        <pt x="389" y="649" on="0"/>
        <pt x="446" y="645" on="0"/>
        <pt x="476" y="635" on="0"/>
        <pt x="521" y="616" on="0"/>
        <pt x="546" y="589" on="0"/>
        <pt x="575" y="547" on="0"/>
        <pt x="582" y="520" on="1"/>
        <pt x="600" y="457" on="0"/>
      </contour>
      <contour>
        <pt x="385" y="57" on="1"/>
        <pt x="385" y="579" on="1"/>
        <pt x="235" y="579" on="1"/>
        <pt x="235" y="57" on="1"/>
      </contour>
      <contour>
        <pt x="179" y="763" on="1"/>
        <pt x="390" y="865" on="1"/>
        <pt x="439" y="730" on="1"/>
        <pt x="212" y="671" on="1"/>
      </contour>
    </TTGlyph>
    <TTGlyph name="Ocircumflex" xMin="20" yMin="-14" xMax="600" yMax="872">
      <contour>
        <pt x="600" y="374" on="1"/>
        <pt x="600" y="262" on="1"/>
        <pt x="600" y="181" on="0"/>
        <pt x="581" y="116" on="1"/>
        <pt x="569" y="75" on="0"/>
        <pt x="526" y="32" on="1"/>
        <pt x="507" y="13" on="0"/>
        <pt x="446" y="-5" on="1"/>
        <pt x="399" y="-19" on="0"/>
        <pt x="247" y="-14" on="1"/>
        <pt x="181" y="-12" on="0"/>
        <pt x="144" y="0" on="0"/>
        <pt x="99" y="19" on="0"/>
        <pt x="74" y="46" on="0"/>
        <pt x="45" y="88" on="0"/>
        <pt x="38" y="116" on="1"/>
        <pt x="20" y="180" on="0"/>
        <pt x="20" y="262" on="1"/>
        <pt x="20" y="374" on="1"/>
        <pt x="20" y="454" on="0"/>
        <pt x="56" y="563" on="0"/>
        <pt x="102" y="618" on="0"/>
        <pt x="198" y="646" on="0"/>
        <pt x="262" y="650" on="0"/>
        <pt x="357" y="650" on="0"/>
        <pt x="389" y="649" on="0"/>
        <pt x="446" y="645" on="0"/>
        <pt x="476" y="635" on="0"/>
        <pt x="521" y="616" on="0"/>
        <pt x="546" y="589" on="0"/>
        <pt x="575" y="547" on="0"/>
        <pt x="582" y="520" on="1"/>
        <pt x="600" y="457" on="0"/>
      </contour>
      <contour>
        <pt x="385" y="57" on="1"/>
        <pt x="385" y="579" on="1"/>
        <pt x="235" y="579" on="1"/>
        <pt x="235" y="57" on="1"/>
      </contour>
      <contour>
        <pt x="358" y="872" on="1"/>
        <pt x="476" y="742" on="1"/>
        <pt x="417" y="671" on="1"/>
        <pt x="310" y="747" on="1"/>
        <pt x="203" y="671" on="1"/>
        <pt x="144" y="742" on="1"/>
        <pt x="262" y="872" on="1"/>
      </contour>
    </TTGlyph>
    <TTGlyph name="Odieresis" xMin="20" yMin="-14" xMax="600" yMax="850">
      <contour>
        <pt x="600" y="374" on="1"/>
        <pt x="600" y="262" on="1"/>
        <pt x="600" y="181" on="0"/>
        <pt x="581" y="116" on="1"/>
        <pt x="569" y="75" on="0"/>
        <pt x="526" y="32" on="1"/>
        <pt x="507" y="13" on="0"/>
        <pt x="446" y="-5" on="1"/>
        <pt x="399" y="-19" on="0"/>
        <pt x="247" y="-14" on="1"/>
        <pt x="181" y="-12" on="0"/>
        <pt x="144" y="0" on="0"/>
        <pt x="99" y="19" on="0"/>
        <pt x="74" y="46" on="0"/>
        <pt x="45" y="88" on="0"/>
        <pt x="38" y="116" on="1"/>
        <pt x="20" y="180" on="0"/>
        <pt x="20" y="262" on="1"/>
        <pt x="20" y="374" on="1"/>
        <pt x="20" y="454" on="0"/>
        <pt x="56" y="563" on="0"/>
        <pt x="102" y="618" on="0"/>
        <pt x="198" y="646" on="0"/>
        <pt x="262" y="650" on="0"/>
        <pt x="357" y="650" on="0"/>
        <pt x="389" y="649" on="0"/>
        <pt x="446" y="645" on="0"/>
        <pt x="476" y="635" on="0"/>
        <pt x="521" y="616" on="0"/>
        <pt x="546" y="589" on="0"/>
        <pt x="575" y="547" on="0"/>
        <pt x="582" y="520" on="1"/>
        <pt x="600" y="457" on="0"/>
      </contour>
      <contour>
        <pt x="385" y="57" on="1"/>
        <pt x="385" y="579" on="1"/>
        <pt x="235" y="579" on="1"/>
        <pt x="235" y="57" on="1"/>
      </contour>
      <contour>
        <pt x="278" y="822" on="0"/>
        <pt x="278" y="712" on="0"/>
        <pt x="255" y="684" on="0"/>
        <pt x="170" y="684" on="0"/>
        <pt x="144" y="712" on="0"/>
        <pt x="144" y="822" on="0"/>
        <pt x="170" y="850" on="0"/>
        <pt x="255" y="850" on="0"/>
      </contour>
      <contour>
        <pt x="476" y="822" on="0"/>
        <pt x="476" y="712" on="0"/>
        <pt x="453" y="684" on="0"/>
        <pt x="368" y="684" on="0"/>
        <pt x="342" y="712" on="0"/>
        <pt x="342" y="822" on="0"/>
        <pt x="368" y="850" on="0"/>
        <pt x="453" y="850" on="0"/>
      </contour>
    </TTGlyph>
    <TTGlyph name="Ograve" xMin="20" yMin="-14" xMax="600" yMax="865">
      <contour>
        <pt x="600" y="374" on="1"/>
        <pt x="600" y="262" on="1"/>
        <pt x="600" y="181" on="0"/>
        <pt x="581" y="116" on="1"/>
        <pt x="569" y="75" on="0"/>
        <pt x="526" y="32" on="1"/>
        <pt x="507" y="13" on="0"/>
        <pt x="446" y="-5" on="1"/>
        <pt x="399" y="-19" on="0"/>
        <pt x="247" y="-14" on="1"/>
        <pt x="181" y="-12" on="0"/>
        <pt x="144" y="0" on="0"/>
        <pt x="99" y="19" on="0"/>
        <pt x="74" y="46" on="0"/>
        <pt x="45" y="88" on="0"/>
        <pt x="38" y="116" on="1"/>
        <pt x="20" y="180" on="0"/>
        <pt x="20" y="262" on="1"/>
        <pt x="20" y="374" on="1"/>
        <pt x="20" y="454" on="0"/>
        <pt x="56" y="563" on="0"/>
        <pt x="102" y="618" on="0"/>
        <pt x="198" y="646" on="0"/>
        <pt x="262" y="650" on="0"/>
        <pt x="357" y="650" on="0"/>
        <pt x="389" y="649" on="0"/>
        <pt x="446" y="645" on="0"/>
        <pt x="476" y="635" on="0"/>
        <pt x="521" y="616" on="0"/>
        <pt x="546" y="589" on="0"/>
        <pt x="575" y="547" on="0"/>
        <pt x="582" y="520" on="1"/>
        <pt x="600" y="457" on="0"/>
      </contour>
      <contour>
        <pt x="385" y="57" on="1"/>
        <pt x="385" y="579" on="1"/>
        <pt x="235" y="579" on="1"/>
        <pt x="235" y="57" on="1"/>
      </contour>
      <contour>
        <pt x="229" y="865" on="1"/>
        <pt x="440" y="763" on="1"/>
        <pt x="407" y="671" on="1"/>
        <pt x="180" y="730" on="1"/>
      </contour>
    </TTGlyph>
    <TTGlyph name="Omega" xMin="20" yMin="0" xMax="600" yMax="615">
      <contour>
        <pt x="600" y="0" on="1"/>
        <pt x="385" y="0" on="1"/>
        <pt x="385" y="544" on="1"/>
        <pt x="235" y="544" on="1"/>
        <pt x="235" y="0" on="1"/>
        <pt x="20" y="0" on="1"/>
        <pt x="20" y="38" on="1"/>
        <pt x="197" y="38" on="1"/>
        <pt x="197" y="89" on="1"/>
        <pt x="111" y="98" on="0"/>
        <pt x="20" y="203" on="0"/>
        <pt x="20" y="332" on="1"/>
        <pt x="20" y="339" on="1"/>
        <pt x="20" y="419" on="0"/>
        <pt x="56" y="528" on="0"/>
        <pt x="102" y="583" on="0"/>
        <pt x="198" y="611" on="0"/>
        <pt x="262" y="615" on="0"/>
        <pt x="357" y="615" on="0"/>
        <pt x="389" y="614" on="0"/>
        <pt x="446" y="610" on="0"/>
        <pt x="476" y="600" on="0"/>
        <pt x="521" y="581" on="0"/>
        <pt x="546" y="554" on="0"/>
        <pt x="575" y="512" on="0"/>
        <pt x="582" y="485" on="1"/>
        <pt x="600" y="422" on="0"/>
        <pt x="600" y="339" on="1"/>
        <pt x="600" y="332" on="1"/>
        <pt x="600" y="197" on="0"/>
        <pt x="550" y="146" on="1"/>
        <pt x="524" y="121" on="0"/>
        <pt x="465" y="96" on="0"/>
        <pt x="423" y="91" on="1"/>
        <pt x="423" y="38" on="1"/>
        <pt x="600" y="38" on="1"/>
      </contour>
    </TTGlyph>
    <TTGlyph name="Oslash" xMin="20" yMin="-112" xMax="600" yMax="746">
      <contour>
        <pt x="224" y="-112" on="1"/>
        <pt x="174" y="-112" on="1"/>
        <pt x="200" y="-12" on="1"/>
        <pt x="158" y="-7" on="0"/>
        <pt x="98" y="19" on="0"/>
        <pt x="72" y="48" on="1"/>
        <pt x="20" y="106" on="0"/>
        <pt x="20" y="262" on="1"/>
        <pt x="20" y="374" on="1"/>
        <pt x="20" y="454" on="0"/>
        <pt x="56" y="563" on="0"/>
        <pt x="102" y="618" on="0"/>
        <pt x="198" y="646" on="0"/>
        <pt x="262" y="650" on="0"/>
        <pt x="355" y="650" on="0"/>
        <pt x="370" y="649" on="1"/>
        <pt x="395" y="746" on="1"/>
        <pt x="446" y="746" on="1"/>
        <pt x="420" y="647" on="1"/>
        <pt x="507" y="638" on="0"/>
        <pt x="600" y="522" on="0"/>
        <pt x="600" y="374" on="1"/>
        <pt x="600" y="262" on="1"/>
        <pt x="600" y="181" on="0"/>
        <pt x="581" y="116" on="1"/>
        <pt x="569" y="75" on="0"/>
        <pt x="526" y="32" on="1"/>
        <pt x="507" y="13" on="0"/>
        <pt x="446" y="-5" on="1"/>
        <pt x="414" y="-15" on="0"/>
        <pt x="264" y="-15" on="0"/>
        <pt x="249" y="-14" on="1"/>
      </contour>
      <contour>
        <pt x="385" y="57" on="1"/>
        <pt x="385" y="510" on="1"/>
        <pt x="267" y="57" on="1"/>
      </contour>
      <contour>
        <pt x="235" y="579" on="1"/>
        <pt x="235" y="124" on="1"/>
        <pt x="352" y="579" on="1"/>
      </contour>
    </TTGlyph>
    <TTGlyph name="Otilde" xMin="20" yMin="-14" xMax="600" yMax="850">
      <contour>
        <pt x="600" y="374" on="1"/>
        <pt x="600" y="262" on="1"/>
        <pt x="600" y="181" on="0"/>
        <pt x="581" y="116" on="1"/>
        <pt x="569" y="75" on="0"/>
        <pt x="526" y="32" on="1"/>
        <pt x="507" y="13" on="0"/>
        <pt x="446" y="-5" on="1"/>
        <pt x="399" y="-19" on="0"/>
        <pt x="247" y="-14" on="1"/>
        <pt x="181" y="-12" on="0"/>
        <pt x="144" y="0" on="0"/>
        <pt x="99" y="19" on="0"/>
        <pt x="74" y="46" on="0"/>
        <pt x="45" y="88" on="0"/>
        <pt x="38" y="116" on="1"/>
        <pt x="20" y="180" on="0"/>
        <pt x="20" y="262" on="1"/>
        <pt x="20" y="374" on="1"/>
        <pt x="20" y="454" on="0"/>
        <pt x="56" y="563" on="0"/>
        <pt x="102" y="618" on="0"/>
        <pt x="198" y="646" on="0"/>
        <pt x="262" y="650" on="0"/>
        <pt x="357" y="650" on="0"/>
        <pt x="389" y="649" on="0"/>
        <pt x="446" y="645" on="0"/>
        <pt x="476" y="635" on="0"/>
        <pt x="521" y="616" on="0"/>
        <pt x="546" y="589" on="0"/>
        <pt x="575" y="547" on="0"/>
        <pt x="582" y="520" on="1"/>
        <pt x="600" y="457" on="0"/>
      </contour>
      <contour>
        <pt x="385" y="57" on="1"/>
        <pt x="385" y="579" on="1"/>
        <pt x="235" y="579" on="1"/>
        <pt x="235" y="57" on="1"/>
      </contour>
      <contour>
        <pt x="486" y="826" on="1"/>
        <pt x="475" y="769" on="1"/>
        <pt x="456" y="668" on="0"/>
        <pt x="357" y="668" on="1"/>
        <pt x="287" y="668" on="0"/>
        <pt x="245" y="729" on="1"/>
        <pt x="233" y="729" on="1"/>
        <pt x="205" y="678" on="1"/>
        <pt x="133" y="691" on="1"/>
        <pt x="143" y="748" on="1"/>
        <pt x="161" y="850" on="0"/>
        <pt x="260" y="850" on="1"/>
        <pt x="332" y="850" on="0"/>
        <pt x="373" y="788" on="1"/>
        <pt x="385" y="788" on="1"/>
        <pt x="413" y="840" on="1"/>
      </contour>
    </TTGlyph>
    <TTGlyph name="P" xMin="30" yMin="0" xMax="654" yMax="635">
      <contour>
        <pt x="439" y="215" on="1"/>
        <pt x="439" y="565" on="1"/>
        <pt x="289" y="565" on="1"/>
        <pt x="289" y="215" on="1"/>
      </contour>
      <contour>
        <pt x="413" y="0" on="1"/>
        <pt x="30" y="0" on="1"/>
        <pt x="30" y="38" on="1"/>
        <pt x="74" y="38" on="1"/>
        <pt x="74" y="597" on="1"/>
        <pt x="30" y="597" on="1"/>
        <pt x="30" y="635" on="1"/>
        <pt x="382" y="635" on="1"/>
        <pt x="485" y="635" on="0"/>
        <pt x="532" y="621" on="0"/>
        <pt x="576" y="605" on="0"/>
        <pt x="601" y="580" on="0"/>
        <pt x="630" y="543" on="0"/>
        <pt x="644" y="495" on="0"/>
        <pt x="654" y="430" on="0"/>
        <pt x="654" y="350" on="0"/>
        <pt x="644" y="284" on="0"/>
        <pt x="629" y="235" on="0"/>
        <pt x="600" y="198" on="0"/>
        <pt x="575" y="173" on="0"/>
        <pt x="531" y="157" on="0"/>
        <pt x="500" y="148" on="0"/>
        <pt x="472" y="146" on="1"/>
        <pt x="430" y="143" on="0"/>
        <pt x="379" y="143" on="1"/>
        <pt x="289" y="143" on="1"/>
        <pt x="289" y="38" on="1"/>
        <pt x="413" y="38" on="1"/>
      </contour>
    </TTGlyph>
    <TTGlyph name="Q" xMin="20" yMin="-165" xMax="600" yMax="650">
      <contour>
        <pt x="531" y="-165" on="1"/>
        <pt x="252" y="-165" on="1"/>
        <pt x="220" y="-15" on="1"/>
        <pt x="20" y="-15" on="0"/>
        <pt x="20" y="257" on="1"/>
        <pt x="20" y="374" on="1"/>
        <pt x="20" y="454" on="0"/>
        <pt x="56" y="563" on="0"/>
        <pt x="102" y="618" on="0"/>
        <pt x="198" y="646" on="0"/>
        <pt x="262" y="650" on="0"/>
        <pt x="357" y="650" on="0"/>
        <pt x="389" y="649" on="0"/>
        <pt x="446" y="645" on="0"/>
        <pt x="476" y="635" on="0"/>
        <pt x="521" y="616" on="0"/>
        <pt x="546" y="589" on="0"/>
        <pt x="575" y="547" on="0"/>
        <pt x="582" y="520" on="1"/>
        <pt x="600" y="457" on="0"/>
        <pt x="600" y="374" on="1"/>
        <pt x="600" y="257" on="1"/>
        <pt x="600" y="-15" on="0"/>
        <pt x="400" y="-15" on="1"/>
        <pt x="424" y="-127" on="1"/>
        <pt x="531" y="-127" on="1"/>
      </contour>
      <contour>
        <pt x="385" y="54" on="1"/>
        <pt x="385" y="579" on="1"/>
        <pt x="235" y="579" on="1"/>
        <pt x="235" y="54" on="1"/>
      </contour>
    </TTGlyph>
    <TTGlyph name="R" xMin="30" yMin="0" xMax="686" yMax="635">
      <contour>
        <pt x="289" y="0" on="1"/>
        <pt x="30" y="0" on="1"/>
        <pt x="30" y="38" on="1"/>
        <pt x="74" y="38" on="1"/>
        <pt x="74" y="597" on="1"/>
        <pt x="30" y="597" on="1"/>
        <pt x="30" y="635" on="1"/>
        <pt x="382" y="635" on="1"/>
        <pt x="482" y="635" on="0"/>
        <pt x="532" y="625" on="0"/>
        <pt x="576" y="612" on="0"/>
        <pt x="601" y="593" on="0"/>
        <pt x="629" y="565" on="0"/>
        <pt x="636" y="546" on="1"/>
        <pt x="654" y="503" on="0"/>
        <pt x="654" y="447" on="1"/>
        <pt x="654" y="356" on="0"/>
        <pt x="578" y="274" on="0"/>
        <pt x="507" y="263" on="1"/>
        <pt x="507" y="240" on="1"/>
        <pt x="552" y="240" on="1"/>
        <pt x="586" y="240" on="0"/>
        <pt x="612" y="215" on="0"/>
        <pt x="616" y="180" on="1"/>
        <pt x="633" y="38" on="1"/>
        <pt x="686" y="38" on="1"/>
        <pt x="686" y="0" on="1"/>
        <pt x="439" y="0" on="1"/>
        <pt x="439" y="210" on="1"/>
        <pt x="289" y="210" on="1"/>
      </contour>
      <contour>
        <pt x="439" y="282" on="1"/>
        <pt x="439" y="565" on="1"/>
        <pt x="289" y="565" on="1"/>
        <pt x="289" y="282" on="1"/>
      </contour>
    </TTGlyph>
    <TTGlyph name="S" xMin="15" yMin="-15" xMax="535" yMax="651">
      <contour>
        <pt x="15" y="19" on="1"/>
        <pt x="42" y="199" on="1"/>
        <pt x="170" y="199" on="1"/>
        <pt x="201" y="71" on="1"/>
        <pt x="312" y="71" on="1"/>
        <pt x="312" y="146" on="1"/>
        <pt x="115" y="292" on="1"/>
        <pt x="71" y="324" on="0"/>
        <pt x="29" y="412" on="0"/>
        <pt x="29" y="517" on="0"/>
        <pt x="48" y="574" on="0"/>
        <pt x="86" y="611" on="0"/>
        <pt x="130" y="635" on="0"/>
        <pt x="162" y="641" on="1"/>
        <pt x="217" y="651" on="0"/>
        <pt x="405" y="651" on="0"/>
        <pt x="522" y="617" on="1"/>
        <pt x="495" y="437" on="1"/>
        <pt x="379" y="437" on="1"/>
        <pt x="352" y="565" on="1"/>
        <pt x="252" y="565" on="1"/>
        <pt x="252" y="490" on="1"/>
        <pt x="449" y="344" on="1"/>
        <pt x="493" y="312" on="0"/>
        <pt x="535" y="224" on="0"/>
        <pt x="535" y="112" on="0"/>
        <pt x="505" y="47" on="0"/>
        <pt x="460" y="11" on="0"/>
        <pt x="423" y="1" on="1"/>
        <pt x="364" y="-15" on="0"/>
        <pt x="142" y="-15" on="0"/>
      </contour>
    </TTGlyph>
    <TTGlyph name="Scaron" xMin="15" yMin="-15" xMax="535" yMax="873">
      <contour>
        <pt x="15" y="19" on="1"/>
        <pt x="42" y="199" on="1"/>
        <pt x="170" y="199" on="1"/>
        <pt x="201" y="71" on="1"/>
        <pt x="312" y="71" on="1"/>
        <pt x="312" y="146" on="1"/>
        <pt x="115" y="292" on="1"/>
        <pt x="71" y="324" on="0"/>
        <pt x="29" y="412" on="0"/>
        <pt x="29" y="517" on="0"/>
        <pt x="48" y="574" on="0"/>
        <pt x="86" y="611" on="0"/>
        <pt x="130" y="635" on="0"/>
        <pt x="162" y="641" on="1"/>
        <pt x="217" y="651" on="0"/>
        <pt x="405" y="651" on="0"/>
        <pt x="522" y="617" on="1"/>
        <pt x="495" y="437" on="1"/>
        <pt x="379" y="437" on="1"/>
        <pt x="352" y="565" on="1"/>
        <pt x="252" y="565" on="1"/>
        <pt x="252" y="490" on="1"/>
        <pt x="449" y="344" on="1"/>
        <pt x="493" y="312" on="0"/>
        <pt x="535" y="224" on="0"/>
        <pt x="535" y="112" on="0"/>
        <pt x="505" y="47" on="0"/>
        <pt x="460" y="11" on="0"/>
        <pt x="423" y="1" on="1"/>
        <pt x="364" y="-15" on="0"/>
        <pt x="142" y="-15" on="0"/>
      </contour>
      <contour>
        <pt x="437" y="802" on="1"/>
        <pt x="319" y="672" on="1"/>
        <pt x="223" y="672" on="1"/>
        <pt x="105" y="802" on="1"/>
        <pt x="164" y="873" on="1"/>
        <pt x="271" y="797" on="1"/>
        <pt x="378" y="873" on="1"/>
      </contour>
    </TTGlyph>
    <TTGlyph name="T" xMin="5" yMin="0" xMax="574" yMax="635">
      <contour>
        <pt x="574" y="635" on="1"/>
        <pt x="574" y="427" on="1"/>
        <pt x="457" y="427" on="1"/>
        <pt x="432" y="565" on="1"/>
        <pt x="375" y="565" on="1"/>
        <pt x="397" y="397" on="1"/>
        <pt x="397" y="38" on="1"/>
        <pt x="481" y="38" on="1"/>
        <pt x="481" y="0" on="1"/>
        <pt x="98" y="0" on="1"/>
        <pt x="98" y="38" on="1"/>
        <pt x="182" y="38" on="1"/>
        <pt x="182" y="397" on="1"/>
        <pt x="204" y="565" on="1"/>
        <pt x="147" y="565" on="1"/>
        <pt x="122" y="421" on="1"/>
        <pt x="5" y="421" on="1"/>
        <pt x="5" y="635" on="1"/>
      </contour>
    </TTGlyph>
    <TTGlyph name="Thorn" xMin="30" yMin="0" xMax="654" yMax="635">
      <contour>
        <pt x="654" y="379" on="0"/>
        <pt x="654" y="299" on="0"/>
        <pt x="644" y="233" on="0"/>
        <pt x="629" y="184" on="0"/>
        <pt x="600" y="147" on="0"/>
        <pt x="575" y="122" on="0"/>
        <pt x="531" y="106" on="0"/>
        <pt x="500" y="97" on="0"/>
        <pt x="472" y="95" on="1"/>
        <pt x="430" y="92" on="0"/>
        <pt x="379" y="92" on="1"/>
        <pt x="289" y="92" on="1"/>
        <pt x="289" y="38" on="1"/>
        <pt x="333" y="38" on="1"/>
        <pt x="333" y="0" on="1"/>
        <pt x="30" y="0" on="1"/>
        <pt x="30" y="38" on="1"/>
        <pt x="74" y="38" on="1"/>
        <pt x="74" y="597" on="1"/>
        <pt x="30" y="597" on="1"/>
        <pt x="30" y="635" on="1"/>
        <pt x="289" y="635" on="1"/>
        <pt x="289" y="584" on="1"/>
        <pt x="382" y="584" on="1"/>
        <pt x="485" y="584" on="0"/>
        <pt x="532" y="570" on="0"/>
        <pt x="576" y="554" on="0"/>
        <pt x="601" y="529" on="0"/>
        <pt x="630" y="492" on="0"/>
        <pt x="644" y="444" on="0"/>
      </contour>
      <contour>
        <pt x="439" y="164" on="1"/>
        <pt x="439" y="514" on="1"/>
        <pt x="289" y="514" on="1"/>
        <pt x="289" y="164" on="1"/>
      </contour>
    </TTGlyph>
    <TTGlyph name="U" xMin="10" yMin="-12" xMax="638" yMax="635">
      <contour>
        <pt x="274" y="57" on="1"/>
        <pt x="424" y="57" on="1"/>
        <pt x="424" y="635" on="1"/>
        <pt x="638" y="635" on="1"/>
        <pt x="638" y="597" on="1"/>
        <pt x="594" y="597" on="1"/>
        <pt x="594" y="234" on="1"/>
        <pt x="594" y="165" on="0"/>
        <pt x="571" y="78" on="0"/>
        <pt x="543" y="40" on="0"/>
        <pt x="520" y="15" on="0"/>
        <pt x="477" y="-2" on="0"/>
        <pt x="449" y="-10" on="0"/>
        <pt x="422" y="-12" on="1"/>
        <pt x="169" y="-31" on="0"/>
        <pt x="108" y="39" on="1"/>
        <pt x="87" y="64" on="0"/>
        <pt x="54" y="162" on="0"/>
        <pt x="54" y="234" on="1"/>
        <pt x="54" y="597" on="1"/>
        <pt x="10" y="597" on="1"/>
        <pt x="10" y="635" on="1"/>
        <pt x="274" y="635" on="1"/>
      </contour>
    </TTGlyph>
    <TTGlyph name="Uacute" xMin="10" yMin="-12" xMax="638" yMax="865">
      <contour>
        <pt x="274" y="57" on="1"/>
        <pt x="424" y="57" on="1"/>
        <pt x="424" y="635" on="1"/>
        <pt x="638" y="635" on="1"/>
        <pt x="638" y="597" on="1"/>
        <pt x="594" y="597" on="1"/>
        <pt x="594" y="234" on="1"/>
        <pt x="594" y="165" on="0"/>
        <pt x="571" y="78" on="0"/>
        <pt x="543" y="40" on="0"/>
        <pt x="520" y="15" on="0"/>
        <pt x="477" y="-2" on="0"/>
        <pt x="449" y="-10" on="0"/>
        <pt x="422" y="-12" on="1"/>
        <pt x="169" y="-31" on="0"/>
        <pt x="108" y="39" on="1"/>
        <pt x="87" y="64" on="0"/>
        <pt x="54" y="162" on="0"/>
        <pt x="54" y="234" on="1"/>
        <pt x="54" y="597" on="1"/>
        <pt x="10" y="597" on="1"/>
        <pt x="10" y="635" on="1"/>
        <pt x="274" y="635" on="1"/>
      </contour>
      <contour>
        <pt x="209" y="763" on="1"/>
        <pt x="420" y="865" on="1"/>
        <pt x="469" y="730" on="1"/>
        <pt x="242" y="671" on="1"/>
      </contour>
    </TTGlyph>
    <TTGlyph name="Ucircumflex" xMin="10" yMin="-12" xMax="638" yMax="872">
      <contour>
        <pt x="274" y="57" on="1"/>
        <pt x="424" y="57" on="1"/>
        <pt x="424" y="635" on="1"/>
        <pt x="638" y="635" on="1"/>
        <pt x="638" y="597" on="1"/>
        <pt x="594" y="597" on="1"/>
        <pt x="594" y="234" on="1"/>
        <pt x="594" y="165" on="0"/>
        <pt x="571" y="78" on="0"/>
        <pt x="543" y="40" on="0"/>
        <pt x="520" y="15" on="0"/>
        <pt x="477" y="-2" on="0"/>
        <pt x="449" y="-10" on="0"/>
        <pt x="422" y="-12" on="1"/>
        <pt x="169" y="-31" on="0"/>
        <pt x="108" y="39" on="1"/>
        <pt x="87" y="64" on="0"/>
        <pt x="54" y="162" on="0"/>
        <pt x="54" y="234" on="1"/>
        <pt x="54" y="597" on="1"/>
        <pt x="10" y="597" on="1"/>
        <pt x="10" y="635" on="1"/>
        <pt x="274" y="635" on="1"/>
      </contour>
      <contour>
        <pt x="392" y="872" on="1"/>
        <pt x="510" y="742" on="1"/>
        <pt x="451" y="671" on="1"/>
        <pt x="344" y="747" on="1"/>
        <pt x="237" y="671" on="1"/>
        <pt x="178" y="742" on="1"/>
        <pt x="296" y="872" on="1"/>
      </contour>
    </TTGlyph>
    <TTGlyph name="Udieresis" xMin="10" yMin="-12" xMax="638" yMax="850">
      <contour>
        <pt x="274" y="57" on="1"/>
        <pt x="424" y="57" on="1"/>
        <pt x="424" y="635" on="1"/>
        <pt x="638" y="635" on="1"/>
        <pt x="638" y="597" on="1"/>
        <pt x="594" y="597" on="1"/>
        <pt x="594" y="234" on="1"/>
        <pt x="594" y="165" on="0"/>
        <pt x="571" y="78" on="0"/>
        <pt x="543" y="40" on="0"/>
        <pt x="520" y="15" on="0"/>
        <pt x="477" y="-2" on="0"/>
        <pt x="449" y="-10" on="0"/>
        <pt x="422" y="-12" on="1"/>
        <pt x="169" y="-31" on="0"/>
        <pt x="108" y="39" on="1"/>
        <pt x="87" y="64" on="0"/>
        <pt x="54" y="162" on="0"/>
        <pt x="54" y="234" on="1"/>
        <pt x="54" y="597" on="1"/>
        <pt x="10" y="597" on="1"/>
        <pt x="10" y="635" on="1"/>
        <pt x="274" y="635" on="1"/>
      </contour>
      <contour>
        <pt x="297" y="822" on="0"/>
        <pt x="297" y="712" on="0"/>
        <pt x="274" y="684" on="0"/>
        <pt x="189" y="684" on="0"/>
        <pt x="163" y="712" on="0"/>
        <pt x="163" y="822" on="0"/>
        <pt x="189" y="850" on="0"/>
        <pt x="274" y="850" on="0"/>
      </contour>
      <contour>
        <pt x="495" y="822" on="0"/>
        <pt x="495" y="712" on="0"/>
        <pt x="472" y="684" on="0"/>
        <pt x="387" y="684" on="0"/>
        <pt x="361" y="712" on="0"/>
        <pt x="361" y="822" on="0"/>
        <pt x="387" y="850" on="0"/>
        <pt x="472" y="850" on="0"/>
      </contour>
    </TTGlyph>
    <TTGlyph name="Ugrave" xMin="10" yMin="-12" xMax="638" yMax="865">
      <contour>
        <pt x="274" y="57" on="1"/>
        <pt x="424" y="57" on="1"/>
        <pt x="424" y="635" on="1"/>
        <pt x="638" y="635" on="1"/>
        <pt x="638" y="597" on="1"/>
        <pt x="594" y="597" on="1"/>
        <pt x="594" y="234" on="1"/>
        <pt x="594" y="165" on="0"/>
        <pt x="571" y="78" on="0"/>
        <pt x="543" y="40" on="0"/>
        <pt x="520" y="15" on="0"/>
        <pt x="477" y="-2" on="0"/>
        <pt x="449" y="-10" on="0"/>
        <pt x="422" y="-12" on="1"/>
        <pt x="169" y="-31" on="0"/>
        <pt x="108" y="39" on="1"/>
        <pt x="87" y="64" on="0"/>
        <pt x="54" y="162" on="0"/>
        <pt x="54" y="234" on="1"/>
        <pt x="54" y="597" on="1"/>
        <pt x="10" y="597" on="1"/>
        <pt x="10" y="635" on="1"/>
        <pt x="274" y="635" on="1"/>
      </contour>
      <contour>
        <pt x="263" y="865" on="1"/>
        <pt x="474" y="763" on="1"/>
        <pt x="441" y="671" on="1"/>
        <pt x="214" y="730" on="1"/>
      </contour>
    </TTGlyph>
    <TTGlyph name="V" xMin="0" yMin="0" xMax="652" yMax="635">
      <contour>
        <pt x="652" y="635" on="1"/>
        <pt x="652" y="597" on="1"/>
        <pt x="610" y="597" on="1"/>
        <pt x="496" y="0" on="1"/>
        <pt x="134" y="0" on="1"/>
        <pt x="42" y="597" on="1"/>
        <pt x="0" y="597" on="1"/>
        <pt x="0" y="635" on="1"/>
        <pt x="290" y="635" on="1"/>
        <pt x="342" y="60" on="1"/>
        <pt x="431" y="60" on="1"/>
        <pt x="431" y="635" on="1"/>
      </contour>
    </TTGlyph>
    <TTGlyph name="W" xMin="0" yMin="0" xMax="955" yMax="635">
      <contour>
        <pt x="552" y="182" on="1"/>
        <pt x="508" y="182" on="1"/>
        <pt x="473" y="0" on="1"/>
        <pt x="134" y="0" on="1"/>
        <pt x="44" y="597" on="1"/>
        <pt x="0" y="597" on="1"/>
        <pt x="0" y="635" on="1"/>
        <pt x="288" y="635" on="1"/>
        <pt x="342" y="60" on="1"/>
        <pt x="422" y="60" on="1"/>
        <pt x="422" y="635" on="1"/>
        <pt x="584" y="635" on="1"/>
        <pt x="637" y="60" on="1"/>
        <pt x="717" y="60" on="1"/>
        <pt x="717" y="635" on="1"/>
        <pt x="955" y="635" on="1"/>
        <pt x="955" y="597" on="1"/>
        <pt x="912" y="597" on="1"/>
        <pt x="797" y="0" on="1"/>
        <pt x="552" y="0" on="1"/>
      </contour>
    </TTGlyph>
    <TTGlyph name="X" xMin="0" yMin="0" xMax="640" yMax="635">
      <contour>
        <pt x="415" y="635" on="1"/>
        <pt x="629" y="635" on="1"/>
        <pt x="510" y="313" on="1"/>
        <pt x="597" y="38" on="1"/>
        <pt x="640" y="38" on="1"/>
        <pt x="640" y="0" on="1"/>
        <pt x="347" y="0" on="1"/>
        <pt x="284" y="260" on="1"/>
        <pt x="225" y="260" on="1"/>
        <pt x="225" y="0" on="1"/>
        <pt x="11" y="0" on="1"/>
        <pt x="129" y="324" on="1"/>
        <pt x="44" y="597" on="1"/>
        <pt x="0" y="597" on="1"/>
        <pt x="0" y="635" on="1"/>
        <pt x="293" y="635" on="1"/>
        <pt x="356" y="376" on="1"/>
        <pt x="415" y="376" on="1"/>
      </contour>
    </TTGlyph>
    <TTGlyph name="Y" xMin="0" yMin="0" xMax="626" yMax="635">
      <contour>
        <pt x="626" y="597" on="1"/>
        <pt x="584" y="597" on="1"/>
        <pt x="451" y="146" on="1"/>
        <pt x="451" y="38" on="1"/>
        <pt x="535" y="38" on="1"/>
        <pt x="535" y="0" on="1"/>
        <pt x="92" y="0" on="1"/>
        <pt x="92" y="38" on="1"/>
        <pt x="176" y="38" on="1"/>
        <pt x="176" y="146" on="1"/>
        <pt x="43" y="597" on="1"/>
        <pt x="0" y="597" on="1"/>
        <pt x="0" y="635" on="1"/>
        <pt x="266" y="635" on="1"/>
        <pt x="348" y="300" on="1"/>
        <pt x="405" y="300" on="1"/>
        <pt x="405" y="635" on="1"/>
        <pt x="626" y="635" on="1"/>
      </contour>
    </TTGlyph>
    <TTGlyph name="Yacute" xMin="0" yMin="0" xMax="626" yMax="865">
      <contour>
        <pt x="626" y="597" on="1"/>
        <pt x="584" y="597" on="1"/>
        <pt x="451" y="146" on="1"/>
        <pt x="451" y="38" on="1"/>
        <pt x="535" y="38" on="1"/>
        <pt x="535" y="0" on="1"/>
        <pt x="92" y="0" on="1"/>
        <pt x="92" y="38" on="1"/>
        <pt x="176" y="38" on="1"/>
        <pt x="176" y="146" on="1"/>
        <pt x="43" y="597" on="1"/>
        <pt x="0" y="597" on="1"/>
        <pt x="0" y="635" on="1"/>
        <pt x="266" y="635" on="1"/>
        <pt x="348" y="300" on="1"/>
        <pt x="405" y="300" on="1"/>
        <pt x="405" y="635" on="1"/>
        <pt x="626" y="635" on="1"/>
      </contour>
      <contour>
        <pt x="182" y="763" on="1"/>
        <pt x="393" y="865" on="1"/>
        <pt x="442" y="730" on="1"/>
        <pt x="215" y="671" on="1"/>
      </contour>
    </TTGlyph>
    <TTGlyph name="Ydieresis" xMin="0" yMin="0" xMax="626" yMax="850">
      <contour>
        <pt x="626" y="597" on="1"/>
        <pt x="584" y="597" on="1"/>
        <pt x="451" y="146" on="1"/>
        <pt x="451" y="38" on="1"/>
        <pt x="535" y="38" on="1"/>
        <pt x="535" y="0" on="1"/>
        <pt x="92" y="0" on="1"/>
        <pt x="92" y="38" on="1"/>
        <pt x="176" y="38" on="1"/>
        <pt x="176" y="146" on="1"/>
        <pt x="43" y="597" on="1"/>
        <pt x="0" y="597" on="1"/>
        <pt x="0" y="635" on="1"/>
        <pt x="266" y="635" on="1"/>
        <pt x="348" y="300" on="1"/>
        <pt x="405" y="300" on="1"/>
        <pt x="405" y="635" on="1"/>
        <pt x="626" y="635" on="1"/>
      </contour>
      <contour>
        <pt x="281" y="822" on="0"/>
        <pt x="281" y="712" on="0"/>
        <pt x="258" y="684" on="0"/>
        <pt x="173" y="684" on="0"/>
        <pt x="147" y="712" on="0"/>
        <pt x="147" y="822" on="0"/>
        <pt x="173" y="850" on="0"/>
        <pt x="258" y="850" on="0"/>
      </contour>
      <contour>
        <pt x="479" y="822" on="0"/>
        <pt x="479" y="712" on="0"/>
        <pt x="456" y="684" on="0"/>
        <pt x="371" y="684" on="0"/>
        <pt x="345" y="712" on="0"/>
        <pt x="345" y="822" on="0"/>
        <pt x="371" y="850" on="0"/>
        <pt x="456" y="850" on="0"/>
      </contour>
    </TTGlyph>
    <TTGlyph name="Z" xMin="-5" yMin="0" xMax="557" yMax="636">
      <contour>
        <pt x="397" y="84" on="1"/>
        <pt x="426" y="215" on="1"/>
        <pt x="544" y="215" on="1"/>
        <pt x="557" y="0" on="1"/>
        <pt x="-5" y="0" on="1"/>
        <pt x="302" y="552" on="1"/>
        <pt x="195" y="552" on="1"/>
        <pt x="165" y="421" on="1"/>
        <pt x="47" y="421" on="1"/>
        <pt x="35" y="636" on="1"/>
        <pt x="522" y="636" on="1"/>
        <pt x="554" y="569" on="1"/>
        <pt x="269" y="84" on="1"/>
      </contour>
    </TTGlyph>
    <TTGlyph name="Zcaron" xMin="0" yMin="0" xMax="562" yMax="873">
      <contour>
        <pt x="402" y="84" on="1"/>
        <pt x="431" y="215" on="1"/>
        <pt x="549" y="215" on="1"/>
        <pt x="562" y="0" on="1"/>
        <pt x="0" y="0" on="1"/>
        <pt x="307" y="552" on="1"/>
        <pt x="200" y="552" on="1"/>
        <pt x="170" y="421" on="1"/>
        <pt x="52" y="421" on="1"/>
        <pt x="40" y="636" on="1"/>
        <pt x="527" y="636" on="1"/>
        <pt x="559" y="569" on="1"/>
        <pt x="274" y="84" on="1"/>
      </contour>
      <contour>
        <pt x="490" y="802" on="1"/>
        <pt x="372" y="672" on="1"/>
        <pt x="276" y="672" on="1"/>
        <pt x="158" y="802" on="1"/>
        <pt x="217" y="873" on="1"/>
        <pt x="324" y="797" on="1"/>
        <pt x="431" y="873" on="1"/>
      </contour>
    </TTGlyph>
    <TTGlyph name="a" xMin="35" yMin="-15" xMax="578" yMax="565">
      <contour>
        <pt x="92" y="379" on="1"/>
        <pt x="68" y="535" on="1"/>
        <pt x="181" y="565" on="0"/>
        <pt x="295" y="565" on="1"/>
        <pt x="424" y="565" on="0"/>
        <pt x="482" y="526" on="1"/>
        <pt x="506" y="511" on="0"/>
        <pt x="538" y="454" on="0"/>
        <pt x="538" y="415" on="1"/>
        <pt x="538" y="38" on="1"/>
        <pt x="578" y="38" on="1"/>
        <pt x="578" y="0" on="1"/>
        <pt x="455" y="0" on="1"/>
        <pt x="415" y="76" on="1"/>
        <pt x="402" y="76" on="1"/>
        <pt x="382" y="18" on="0"/>
        <pt x="324" y="-15" on="0"/>
        <pt x="221" y="-15" on="0"/>
        <pt x="185" y="-13" on="0"/>
        <pt x="123" y="-5" on="0"/>
        <pt x="89" y="16" on="0"/>
        <pt x="70" y="34" on="1"/>
        <pt x="35" y="67" on="0"/>
        <pt x="35" y="150" on="1"/>
        <pt x="35" y="254" on="0"/>
        <pt x="100" y="288" on="1"/>
        <pt x="132" y="304" on="0"/>
        <pt x="199" y="315" on="0"/>
        <pt x="247" y="315" on="1"/>
        <pt x="348" y="315" on="1"/>
        <pt x="348" y="490" on="1"/>
        <pt x="234" y="490" on="1"/>
        <pt x="207" y="379" on="1"/>
      </contour>
      <contour>
        <pt x="348" y="76" on="1"/>
        <pt x="348" y="240" on="1"/>
        <pt x="211" y="240" on="1"/>
        <pt x="211" y="76" on="1"/>
      </contour>
    </TTGlyph>
    <TTGlyph name="aacute" xMin="35" yMin="-15" xMax="578" yMax="780">
      <contour>
        <pt x="92" y="379" on="1"/>
        <pt x="68" y="535" on="1"/>
        <pt x="181" y="565" on="0"/>
        <pt x="295" y="565" on="1"/>
        <pt x="424" y="565" on="0"/>
        <pt x="482" y="526" on="1"/>
        <pt x="506" y="511" on="0"/>
        <pt x="538" y="454" on="0"/>
        <pt x="538" y="415" on="1"/>
        <pt x="538" y="38" on="1"/>
        <pt x="578" y="38" on="1"/>
        <pt x="578" y="0" on="1"/>
        <pt x="455" y="0" on="1"/>
        <pt x="415" y="76" on="1"/>
        <pt x="402" y="76" on="1"/>
        <pt x="382" y="18" on="0"/>
        <pt x="324" y="-15" on="0"/>
        <pt x="221" y="-15" on="0"/>
        <pt x="185" y="-13" on="0"/>
        <pt x="123" y="-5" on="0"/>
        <pt x="89" y="16" on="0"/>
        <pt x="70" y="34" on="1"/>
        <pt x="35" y="67" on="0"/>
        <pt x="35" y="150" on="1"/>
        <pt x="35" y="254" on="0"/>
        <pt x="100" y="288" on="1"/>
        <pt x="132" y="304" on="0"/>
        <pt x="199" y="315" on="0"/>
        <pt x="247" y="315" on="1"/>
        <pt x="348" y="315" on="1"/>
        <pt x="348" y="490" on="1"/>
        <pt x="234" y="490" on="1"/>
        <pt x="207" y="379" on="1"/>
      </contour>
      <contour>
        <pt x="348" y="76" on="1"/>
        <pt x="348" y="240" on="1"/>
        <pt x="211" y="240" on="1"/>
        <pt x="211" y="76" on="1"/>
      </contour>
      <contour>
        <pt x="207" y="678" on="1"/>
        <pt x="418" y="780" on="1"/>
        <pt x="467" y="645" on="1"/>
        <pt x="240" y="586" on="1"/>
      </contour>
    </TTGlyph>
    <TTGlyph name="acircumflex" xMin="35" yMin="-15" xMax="578" yMax="787">
      <contour>
        <pt x="92" y="379" on="1"/>
        <pt x="68" y="535" on="1"/>
        <pt x="181" y="565" on="0"/>
        <pt x="295" y="565" on="1"/>
        <pt x="424" y="565" on="0"/>
        <pt x="482" y="526" on="1"/>
        <pt x="506" y="511" on="0"/>
        <pt x="538" y="454" on="0"/>
        <pt x="538" y="415" on="1"/>
        <pt x="538" y="38" on="1"/>
        <pt x="578" y="38" on="1"/>
        <pt x="578" y="0" on="1"/>
        <pt x="455" y="0" on="1"/>
        <pt x="415" y="76" on="1"/>
        <pt x="402" y="76" on="1"/>
        <pt x="382" y="18" on="0"/>
        <pt x="324" y="-15" on="0"/>
        <pt x="221" y="-15" on="0"/>
        <pt x="185" y="-13" on="0"/>
        <pt x="123" y="-5" on="0"/>
        <pt x="89" y="16" on="0"/>
        <pt x="70" y="34" on="1"/>
        <pt x="35" y="67" on="0"/>
        <pt x="35" y="150" on="1"/>
        <pt x="35" y="254" on="0"/>
        <pt x="100" y="288" on="1"/>
        <pt x="132" y="304" on="0"/>
        <pt x="199" y="315" on="0"/>
        <pt x="247" y="315" on="1"/>
        <pt x="348" y="315" on="1"/>
        <pt x="348" y="490" on="1"/>
        <pt x="234" y="490" on="1"/>
        <pt x="207" y="379" on="1"/>
      </contour>
      <contour>
        <pt x="348" y="76" on="1"/>
        <pt x="348" y="240" on="1"/>
        <pt x="211" y="240" on="1"/>
        <pt x="211" y="76" on="1"/>
      </contour>
      <contour>
        <pt x="362" y="787" on="1"/>
        <pt x="480" y="657" on="1"/>
        <pt x="421" y="586" on="1"/>
        <pt x="314" y="662" on="1"/>
        <pt x="207" y="586" on="1"/>
        <pt x="148" y="657" on="1"/>
        <pt x="266" y="787" on="1"/>
      </contour>
    </TTGlyph>
    <TTGlyph name="acute" xMin="51" yMin="586" xMax="311" yMax="780">
      <contour>
        <pt x="51" y="678" on="1"/>
        <pt x="262" y="780" on="1"/>
        <pt x="311" y="645" on="1"/>
        <pt x="84" y="586" on="1"/>
      </contour>
    </TTGlyph>
    <TTGlyph name="adieresis" xMin="35" yMin="-15" xMax="578" yMax="765">
      <contour>
        <pt x="92" y="379" on="1"/>
        <pt x="68" y="535" on="1"/>
        <pt x="181" y="565" on="0"/>
        <pt x="295" y="565" on="1"/>
        <pt x="424" y="565" on="0"/>
        <pt x="482" y="526" on="1"/>
        <pt x="506" y="511" on="0"/>
        <pt x="538" y="454" on="0"/>
        <pt x="538" y="415" on="1"/>
        <pt x="538" y="38" on="1"/>
        <pt x="578" y="38" on="1"/>
        <pt x="578" y="0" on="1"/>
        <pt x="455" y="0" on="1"/>
        <pt x="415" y="76" on="1"/>
        <pt x="402" y="76" on="1"/>
        <pt x="382" y="18" on="0"/>
        <pt x="324" y="-15" on="0"/>
        <pt x="221" y="-15" on="0"/>
        <pt x="185" y="-13" on="0"/>
        <pt x="123" y="-5" on="0"/>
        <pt x="89" y="16" on="0"/>
        <pt x="70" y="34" on="1"/>
        <pt x="35" y="67" on="0"/>
        <pt x="35" y="150" on="1"/>
        <pt x="35" y="254" on="0"/>
        <pt x="100" y="288" on="1"/>
        <pt x="132" y="304" on="0"/>
        <pt x="199" y="315" on="0"/>
        <pt x="247" y="315" on="1"/>
        <pt x="348" y="315" on="1"/>
        <pt x="348" y="490" on="1"/>
        <pt x="234" y="490" on="1"/>
        <pt x="207" y="379" on="1"/>
      </contour>
      <contour>
        <pt x="348" y="76" on="1"/>
        <pt x="348" y="240" on="1"/>
        <pt x="211" y="240" on="1"/>
        <pt x="211" y="76" on="1"/>
      </contour>
      <contour>
        <pt x="267" y="737" on="0"/>
        <pt x="267" y="627" on="0"/>
        <pt x="244" y="599" on="0"/>
        <pt x="159" y="599" on="0"/>
        <pt x="133" y="627" on="0"/>
        <pt x="133" y="737" on="0"/>
        <pt x="159" y="765" on="0"/>
        <pt x="244" y="765" on="0"/>
      </contour>
      <contour>
        <pt x="465" y="737" on="0"/>
        <pt x="465" y="627" on="0"/>
        <pt x="442" y="599" on="0"/>
        <pt x="357" y="599" on="0"/>
        <pt x="331" y="627" on="0"/>
        <pt x="331" y="737" on="0"/>
        <pt x="357" y="765" on="0"/>
        <pt x="442" y="765" on="0"/>
      </contour>
    </TTGlyph>
    <TTGlyph name="ae" xMin="35" yMin="-15" xMax="831" yMax="565">
      <contour>
        <pt x="538" y="60" on="1"/>
        <pt x="663" y="60" on="1"/>
        <pt x="689" y="171" on="1"/>
        <pt x="796" y="171" on="1"/>
        <pt x="819" y="15" on="1"/>
        <pt x="701" y="-15" on="0"/>
        <pt x="594" y="-15" on="1"/>
        <pt x="522" y="-15" on="0"/>
        <pt x="458" y="8" on="0"/>
        <pt x="424" y="46" on="0"/>
        <pt x="414" y="76" on="1"/>
        <pt x="402" y="76" on="1"/>
        <pt x="382" y="18" on="0"/>
        <pt x="324" y="-15" on="0"/>
        <pt x="221" y="-15" on="0"/>
        <pt x="185" y="-13" on="0"/>
        <pt x="123" y="-5" on="0"/>
        <pt x="89" y="16" on="0"/>
        <pt x="70" y="34" on="1"/>
        <pt x="35" y="67" on="0"/>
        <pt x="35" y="150" on="1"/>
        <pt x="35" y="254" on="0"/>
        <pt x="100" y="288" on="1"/>
        <pt x="132" y="304" on="0"/>
        <pt x="199" y="315" on="0"/>
        <pt x="247" y="315" on="1"/>
        <pt x="348" y="315" on="1"/>
        <pt x="348" y="490" on="1"/>
        <pt x="234" y="490" on="1"/>
        <pt x="207" y="379" on="1"/>
        <pt x="92" y="379" on="1"/>
        <pt x="68" y="535" on="1"/>
        <pt x="181" y="565" on="0"/>
        <pt x="403" y="565" on="0"/>
        <pt x="449" y="532" on="1"/>
        <pt x="484" y="561" on="0"/>
        <pt x="550" y="564" on="1"/>
        <pt x="573" y="565" on="0"/>
        <pt x="651" y="565" on="0"/>
        <pt x="683" y="564" on="0"/>
        <pt x="737" y="558" on="0"/>
        <pt x="764" y="546" on="0"/>
        <pt x="801" y="522" on="0"/>
        <pt x="818" y="488" on="0"/>
        <pt x="831" y="435" on="0"/>
        <pt x="831" y="365" on="0"/>
        <pt x="818" y="312" on="0"/>
        <pt x="801" y="278" on="0"/>
        <pt x="764" y="254" on="0"/>
        <pt x="737" y="242" on="0"/>
        <pt x="710" y="239" on="1"/>
        <pt x="674" y="235" on="0"/>
        <pt x="619" y="235" on="1"/>
        <pt x="538" y="235" on="1"/>
      </contour>
      <contour>
        <pt x="538" y="490" on="1"/>
        <pt x="538" y="310" on="1"/>
        <pt x="675" y="310" on="1"/>
        <pt x="675" y="490" on="1"/>
      </contour>
      <contour>
        <pt x="348" y="76" on="1"/>
        <pt x="348" y="240" on="1"/>
        <pt x="211" y="240" on="1"/>
        <pt x="211" y="76" on="1"/>
      </contour>
    </TTGlyph>
    <TTGlyph name="agrave" xMin="35" yMin="-15" xMax="578" yMax="780">
      <contour>
        <pt x="92" y="379" on="1"/>
        <pt x="68" y="535" on="1"/>
        <pt x="181" y="565" on="0"/>
        <pt x="295" y="565" on="1"/>
        <pt x="424" y="565" on="0"/>
        <pt x="482" y="526" on="1"/>
        <pt x="506" y="511" on="0"/>
        <pt x="538" y="454" on="0"/>
        <pt x="538" y="415" on="1"/>
        <pt x="538" y="38" on="1"/>
        <pt x="578" y="38" on="1"/>
        <pt x="578" y="0" on="1"/>
        <pt x="455" y="0" on="1"/>
        <pt x="415" y="76" on="1"/>
        <pt x="402" y="76" on="1"/>
        <pt x="382" y="18" on="0"/>
        <pt x="324" y="-15" on="0"/>
        <pt x="221" y="-15" on="0"/>
        <pt x="185" y="-13" on="0"/>
        <pt x="123" y="-5" on="0"/>
        <pt x="89" y="16" on="0"/>
        <pt x="70" y="34" on="1"/>
        <pt x="35" y="67" on="0"/>
        <pt x="35" y="150" on="1"/>
        <pt x="35" y="254" on="0"/>
        <pt x="100" y="288" on="1"/>
        <pt x="132" y="304" on="0"/>
        <pt x="199" y="315" on="0"/>
        <pt x="247" y="315" on="1"/>
        <pt x="348" y="315" on="1"/>
        <pt x="348" y="490" on="1"/>
        <pt x="234" y="490" on="1"/>
        <pt x="207" y="379" on="1"/>
      </contour>
      <contour>
        <pt x="348" y="76" on="1"/>
        <pt x="348" y="240" on="1"/>
        <pt x="211" y="240" on="1"/>
        <pt x="211" y="76" on="1"/>
      </contour>
      <contour>
        <pt x="233" y="780" on="1"/>
        <pt x="444" y="678" on="1"/>
        <pt x="411" y="586" on="1"/>
        <pt x="184" y="645" on="1"/>
      </contour>
    </TTGlyph>
    <TTGlyph name="ampersand" xMin="30" yMin="-15" xMax="690" yMax="650">
      <contour>
        <pt x="690" y="0" on="1"/>
        <pt x="382" y="0" on="1"/>
        <pt x="230" y="286" on="1"/>
        <pt x="161" y="286" on="1"/>
        <pt x="297" y="28" on="1"/>
        <pt x="287" y="-3" on="0"/>
        <pt x="252" y="-10" on="1"/>
        <pt x="222" y="-15" on="0"/>
        <pt x="153" y="-15" on="0"/>
        <pt x="122" y="-12" on="0"/>
        <pt x="74" y="7" on="0"/>
        <pt x="62" y="26" on="1"/>
        <pt x="30" y="74" on="0"/>
        <pt x="30" y="272" on="0"/>
        <pt x="107" y="354" on="0"/>
        <pt x="186" y="361" on="1"/>
        <pt x="150" y="430" on="0"/>
        <pt x="150" y="548" on="0"/>
        <pt x="186" y="611" on="0"/>
        <pt x="220" y="626" on="1"/>
        <pt x="277" y="650" on="0"/>
        <pt x="458" y="650" on="0"/>
        <pt x="583" y="618" on="1"/>
        <pt x="566" y="431" on="1"/>
        <pt x="479" y="431" on="1"/>
        <pt x="398" y="581" on="1"/>
        <pt x="329" y="581" on="1"/>
        <pt x="445" y="364" on="1"/>
        <pt x="564" y="364" on="1"/>
        <pt x="564" y="292" on="1"/>
        <pt x="484" y="292" on="1"/>
        <pt x="617" y="38" on="1"/>
        <pt x="690" y="38" on="1"/>
      </contour>
    </TTGlyph>
    <TTGlyph name="apple" xMin="100" yMin="-114" xMax="823" yMax="608">
      <contour>
        <pt x="589" y="-89" on="1"/>
        <pt x="566" y="-88" on="1"/>
        <pt x="552" y="-88" on="0"/>
        <pt x="517" y="-112" on="0"/>
        <pt x="508" y="-112" on="1"/>
        <pt x="462" y="-102" on="1"/>
        <pt x="454" y="-102" on="0"/>
        <pt x="423" y="-114" on="0"/>
        <pt x="406" y="-114" on="0"/>
        <pt x="374" y="-89" on="0"/>
        <pt x="361" y="-89" on="1"/>
        <pt x="337" y="-91" on="1"/>
        <pt x="322" y="-91" on="0"/>
        <pt x="304" y="-74" on="1"/>
        <pt x="286" y="-55" on="1"/>
        <pt x="274" y="-49" on="0"/>
        <pt x="248" y="-47" on="0"/>
        <pt x="230" y="-36" on="0"/>
        <pt x="216" y="-1" on="0"/>
        <pt x="205" y="8" on="0"/>
        <pt x="177" y="19" on="0"/>
        <pt x="171" y="28" on="1"/>
        <pt x="166" y="37" on="0"/>
        <pt x="162" y="66" on="0"/>
        <pt x="154" y="79" on="0"/>
        <pt x="144" y="86" on="1"/>
        <pt x="122" y="104" on="0"/>
        <pt x="122" y="124" on="1"/>
        <pt x="125" y="149" on="1"/>
        <pt x="125" y="158" on="0"/>
        <pt x="100" y="193" on="0"/>
        <pt x="100" y="211" on="0"/>
        <pt x="112" y="240" on="0"/>
        <pt x="112" y="257" on="0"/>
        <pt x="100" y="283" on="0"/>
        <pt x="100" y="301" on="0"/>
        <pt x="125" y="342" on="0"/>
        <pt x="125" y="351" on="1"/>
        <pt x="124" y="376" on="1"/>
        <pt x="124" y="391" on="0"/>
        <pt x="157" y="420" on="0"/>
        <pt x="162" y="430" on="0"/>
        <pt x="166" y="462" on="0"/>
        <pt x="174" y="474" on="0"/>
        <pt x="205" y="486" on="0"/>
        <pt x="215" y="496" on="0"/>
        <pt x="229" y="527" on="0"/>
        <pt x="242" y="538" on="0"/>
        <pt x="280" y="546" on="0"/>
        <pt x="291" y="552" on="0"/>
        <pt x="321" y="586" on="0"/>
        <pt x="335" y="587" on="1"/>
        <pt x="361" y="585" on="1"/>
        <pt x="374" y="585" on="0"/>
        <pt x="405" y="608" on="0"/>
        <pt x="416" y="608" on="1"/>
        <pt x="460" y="596" on="1"/>
        <pt x="505" y="608" on="1"/>
        <pt x="518" y="608" on="0"/>
        <pt x="550" y="583" on="0"/>
        <pt x="562" y="583" on="1"/>
        <pt x="590" y="586" on="1"/>
        <pt x="606" y="586" on="0"/>
        <pt x="632" y="553" on="0"/>
        <pt x="645" y="546" on="0"/>
        <pt x="675" y="540" on="0"/>
        <pt x="690" y="530" on="0"/>
        <pt x="700" y="502" on="0"/>
        <pt x="711" y="492" on="0"/>
        <pt x="751" y="471" on="0"/>
        <pt x="760" y="455" on="0"/>
        <pt x="761" y="423" on="0"/>
        <pt x="766" y="414" on="0"/>
        <pt x="800" y="385" on="0"/>
        <pt x="800" y="369" on="1"/>
        <pt x="799" y="344" on="1"/>
        <pt x="799" y="331" on="0"/>
        <pt x="823" y="294" on="0"/>
        <pt x="823" y="276" on="0"/>
        <pt x="812" y="250" on="0"/>
        <pt x="812" y="236" on="0"/>
        <pt x="823" y="207" on="0"/>
        <pt x="822" y="191" on="0"/>
        <pt x="798" y="166" on="0"/>
        <pt x="798" y="152" on="1"/>
        <pt x="800" y="120" on="1"/>
        <pt x="800" y="104" on="0"/>
        <pt x="768" y="78" on="0"/>
        <pt x="763" y="68" on="0"/>
        <pt x="754" y="30" on="0"/>
        <pt x="743" y="17" on="0"/>
        <pt x="718" y="6" on="0"/>
        <pt x="708" y="-4" on="0"/>
        <pt x="690" y="-37" on="0"/>
        <pt x="676" y="-47" on="0"/>
        <pt x="641" y="-56" on="0"/>
        <pt x="631" y="-62" on="0"/>
        <pt x="604" y="-89" on="0"/>
      </contour>
      <contour>
        <pt x="462" y="-6" on="1"/>
        <pt x="495" y="-13" on="1"/>
        <pt x="501" y="-13" on="0"/>
        <pt x="512" y="-6" on="1"/>
        <pt x="527" y="4" on="0"/>
        <pt x="539" y="4" on="1"/>
        <pt x="554" y="3" on="1"/>
        <pt x="566" y="3" on="0"/>
        <pt x="584" y="23" on="0"/>
        <pt x="591" y="27" on="0"/>
        <pt x="617" y="34" on="0"/>
        <pt x="628" y="42" on="0"/>
        <pt x="641" y="65" on="0"/>
        <pt x="648" y="72" on="0"/>
        <pt x="666" y="80" on="0"/>
        <pt x="674" y="89" on="0"/>
        <pt x="680" y="117" on="0"/>
        <pt x="685" y="125" on="0"/>
        <pt x="707" y="143" on="0"/>
        <pt x="707" y="157" on="1"/>
        <pt x="706" y="177" on="1"/>
        <pt x="706" y="188" on="0"/>
        <pt x="723" y="207" on="0"/>
        <pt x="724" y="213" on="1"/>
        <pt x="716" y="245" on="1"/>
        <pt x="724" y="273" on="1"/>
        <pt x="724" y="281" on="0"/>
        <pt x="706" y="309" on="0"/>
        <pt x="706" y="318" on="1"/>
        <pt x="707" y="335" on="1"/>
        <pt x="707" y="347" on="0"/>
        <pt x="683" y="367" on="0"/>
        <pt x="679" y="375" on="0"/>
        <pt x="678" y="398" on="0"/>
        <pt x="672" y="409" on="0"/>
        <pt x="643" y="424" on="0"/>
        <pt x="635" y="432" on="0"/>
        <pt x="627" y="452" on="0"/>
        <pt x="617" y="460" on="0"/>
        <pt x="595" y="464" on="0"/>
        <pt x="585" y="469" on="0"/>
        <pt x="567" y="493" on="0"/>
        <pt x="555" y="493" on="1"/>
        <pt x="535" y="491" on="1"/>
        <pt x="526" y="491" on="0"/>
        <pt x="504" y="509" on="0"/>
        <pt x="494" y="509" on="1"/>
        <pt x="461" y="500" on="1"/>
        <pt x="429" y="509" on="1"/>
        <pt x="421" y="509" on="0"/>
        <pt x="397" y="492" on="0"/>
        <pt x="387" y="492" on="1"/>
        <pt x="370" y="493" on="1"/>
        <pt x="359" y="493" on="0"/>
        <pt x="338" y="468" on="0"/>
        <pt x="329" y="463" on="0"/>
        <pt x="303" y="458" on="0"/>
        <pt x="293" y="450" on="0"/>
        <pt x="283" y="428" on="0"/>
        <pt x="275" y="420" on="0"/>
        <pt x="254" y="412" on="0"/>
        <pt x="250" y="407" on="1"/>
        <pt x="248" y="403" on="0"/>
        <pt x="244" y="380" on="0"/>
        <pt x="240" y="372" on="0"/>
        <pt x="216" y="351" on="0"/>
        <pt x="216" y="340" on="1"/>
        <pt x="217" y="324" on="1"/>
        <pt x="217" y="316" on="0"/>
        <pt x="200" y="286" on="0"/>
        <pt x="200" y="278" on="1"/>
        <pt x="208" y="248" on="1"/>
        <pt x="200" y="215" on="1"/>
        <pt x="200" y="207" on="0"/>
        <pt x="217" y="182" on="0"/>
        <pt x="217" y="174" on="1"/>
        <pt x="215" y="158" on="1"/>
        <pt x="215" y="147" on="0"/>
        <pt x="240" y="124" on="0"/>
        <pt x="244" y="116" on="0"/>
        <pt x="247" y="95" on="0"/>
        <pt x="255" y="82" on="0"/>
        <pt x="275" y="74" on="0"/>
        <pt x="283" y="67" on="0"/>
        <pt x="294" y="41" on="0"/>
        <pt x="306" y="33" on="0"/>
        <pt x="325" y="33" on="0"/>
        <pt x="337" y="27" on="0"/>
        <pt x="360" y="2" on="0"/>
        <pt x="371" y="2" on="1"/>
        <pt x="386" y="3" on="1"/>
        <pt x="396" y="3" on="0"/>
        <pt x="420" y="-14" on="0"/>
        <pt x="426" y="-15" on="1"/>
      </contour>
      <contour>
        <pt x="392" y="417" on="0"/>
        <pt x="532" y="417" on="0"/>
        <pt x="632" y="318" on="0"/>
        <pt x="632" y="176" on="0"/>
        <pt x="532" y="77" on="0"/>
        <pt x="392" y="77" on="0"/>
        <pt x="292" y="176" on="0"/>
        <pt x="292" y="318" on="0"/>
      </contour>
      <contour>
        <pt x="505" y="292" on="1"/>
        <pt x="557" y="292" on="1"/>
        <pt x="557" y="360" on="1"/>
        <pt x="366" y="360" on="1"/>
        <pt x="366" y="292" on="1"/>
        <pt x="420" y="292" on="1"/>
        <pt x="420" y="117" on="1"/>
        <pt x="505" y="117" on="1"/>
      </contour>
    </TTGlyph>
    <TTGlyph name="approxequal" xMin="60" yMin="141" xMax="480" yMax="481">
      <contour>
        <pt x="60" y="361" on="1"/>
        <pt x="60" y="463" on="1"/>
        <pt x="101" y="444" on="0"/>
        <pt x="190" y="444" on="0"/>
        <pt x="350" y="481" on="0"/>
        <pt x="438" y="481" on="0"/>
        <pt x="480" y="463" on="1"/>
        <pt x="480" y="361" on="1"/>
        <pt x="439" y="380" on="0"/>
        <pt x="352" y="380" on="0"/>
        <pt x="190" y="341" on="0"/>
        <pt x="103" y="341" on="0"/>
      </contour>
      <contour>
        <pt x="60" y="161" on="1"/>
        <pt x="60" y="263" on="1"/>
        <pt x="100" y="243" on="0"/>
        <pt x="190" y="243" on="0"/>
        <pt x="352" y="282" on="0"/>
        <pt x="439" y="282" on="0"/>
        <pt x="480" y="263" on="1"/>
        <pt x="480" y="161" on="1"/>
        <pt x="440" y="181" on="0"/>
        <pt x="350" y="181" on="0"/>
        <pt x="189" y="141" on="0"/>
        <pt x="99" y="141" on="0"/>
      </contour>
    </TTGlyph>
    <TTGlyph name="aring" xMin="35" yMin="-15" xMax="578" yMax="790">
      <contour>
        <pt x="240" y="790" on="0"/>
        <pt x="388" y="790" on="0"/>
        <pt x="436" y="741" on="0"/>
        <pt x="436" y="626" on="0"/>
        <pt x="412" y="575" on="0"/>
        <pt x="378" y="566" on="1"/>
        <pt x="378" y="560" on="1"/>
        <pt x="538" y="539" on="0"/>
        <pt x="538" y="415" on="1"/>
        <pt x="538" y="38" on="1"/>
        <pt x="578" y="38" on="1"/>
        <pt x="578" y="0" on="1"/>
        <pt x="455" y="0" on="1"/>
        <pt x="415" y="76" on="1"/>
        <pt x="402" y="76" on="1"/>
        <pt x="382" y="18" on="0"/>
        <pt x="324" y="-15" on="0"/>
        <pt x="221" y="-15" on="0"/>
        <pt x="185" y="-13" on="0"/>
        <pt x="123" y="-5" on="0"/>
        <pt x="89" y="16" on="0"/>
        <pt x="70" y="34" on="1"/>
        <pt x="35" y="67" on="0"/>
        <pt x="35" y="150" on="1"/>
        <pt x="35" y="254" on="0"/>
        <pt x="100" y="288" on="1"/>
        <pt x="132" y="304" on="0"/>
        <pt x="199" y="315" on="0"/>
        <pt x="247" y="315" on="1"/>
        <pt x="348" y="315" on="1"/>
        <pt x="348" y="490" on="1"/>
        <pt x="234" y="490" on="1"/>
        <pt x="207" y="379" on="1"/>
        <pt x="92" y="379" on="1"/>
        <pt x="68" y="535" on="1"/>
        <pt x="154" y="557" on="0"/>
        <pt x="241" y="563" on="1"/>
        <pt x="241" y="569" on="1"/>
        <pt x="212" y="579" on="0"/>
        <pt x="192" y="628" on="0"/>
        <pt x="192" y="741" on="0"/>
      </contour>
      <contour>
        <pt x="348" y="76" on="1"/>
        <pt x="348" y="240" on="1"/>
        <pt x="211" y="240" on="1"/>
        <pt x="211" y="76" on="1"/>
      </contour>
      <contour>
        <pt x="341" y="718" on="0"/>
        <pt x="287" y="718" on="0"/>
        <pt x="273" y="704" on="0"/>
        <pt x="273" y="645" on="0"/>
        <pt x="287" y="632" on="0"/>
        <pt x="341" y="632" on="0"/>
        <pt x="355" y="645" on="0"/>
        <pt x="355" y="704" on="0"/>
      </contour>
    </TTGlyph>
    <TTGlyph name="asciicircum" xMin="41" yMin="309" xMax="498" yMax="729">
      <contour>
        <pt x="221" y="729" on="1"/>
        <pt x="318" y="729" on="1"/>
        <pt x="498" y="309" on="1"/>
        <pt x="396" y="309" on="1"/>
        <pt x="270" y="621" on="1"/>
        <pt x="143" y="309" on="1"/>
        <pt x="41" y="309" on="1"/>
      </contour>
    </TTGlyph>
    <TTGlyph name="asciitilde" xMin="60" yMin="236" xMax="480" yMax="384">
      <contour>
        <pt x="60" y="261" on="1"/>
        <pt x="60" y="363" on="1"/>
        <pt x="97" y="339" on="0"/>
        <pt x="195" y="339" on="0"/>
        <pt x="342" y="384" on="0"/>
        <pt x="435" y="384" on="0"/>
        <pt x="480" y="363" on="1"/>
        <pt x="480" y="261" on="1"/>
        <pt x="433" y="286" on="0"/>
        <pt x="343" y="286" on="0"/>
        <pt x="193" y="236" on="0"/>
        <pt x="96" y="236" on="0"/>
      </contour>
    </TTGlyph>
    <TTGlyph name="asterisk" xMin="44" yMin="265" xMax="500" yMax="697">
      <contour>
        <pt x="209" y="563" on="1"/>
        <pt x="221" y="697" on="1"/>
        <pt x="323" y="697" on="1"/>
        <pt x="335" y="563" on="1"/>
        <pt x="467" y="592" on="1"/>
        <pt x="500" y="495" on="1"/>
        <pt x="375" y="441" on="1"/>
        <pt x="445" y="327" on="1"/>
        <pt x="360" y="265" on="1"/>
        <pt x="272" y="367" on="1"/>
        <pt x="184" y="265" on="1"/>
        <pt x="99" y="327" on="1"/>
        <pt x="169" y="441" on="1"/>
        <pt x="44" y="495" on="1"/>
        <pt x="77" y="593" on="1"/>
      </contour>
    </TTGlyph>
    <TTGlyph name="at" xMin="45" yMin="-101" xMax="742" yMax="635">
      <contour>
        <pt x="426" y="139" on="1"/>
        <pt x="426" y="269" on="1"/>
        <pt x="346" y="269" on="1"/>
        <pt x="346" y="139" on="1"/>
      </contour>
      <contour>
        <pt x="720" y="69" on="1"/>
        <pt x="492" y="69" on="1"/>
        <pt x="461" y="139" on="1"/>
        <pt x="453" y="139" on="1"/>
        <pt x="453" y="57" on="0"/>
        <pt x="349" y="57" on="1"/>
        <pt x="255" y="57" on="0"/>
        <pt x="230" y="85" on="1"/>
        <pt x="200" y="119" on="0"/>
        <pt x="200" y="265" on="0"/>
        <pt x="277" y="316" on="0"/>
        <pt x="349" y="316" on="1"/>
        <pt x="426" y="316" on="1"/>
        <pt x="426" y="458" on="1"/>
        <pt x="353" y="458" on="1"/>
        <pt x="336" y="365" on="1"/>
        <pt x="234" y="365" on="1"/>
        <pt x="217" y="501" on="1"/>
        <pt x="322" y="526" on="0"/>
        <pt x="408" y="526" on="1"/>
        <pt x="542" y="526" on="0"/>
        <pt x="576" y="467" on="1"/>
        <pt x="591" y="441" on="0"/>
        <pt x="591" y="401" on="1"/>
        <pt x="591" y="117" on="1"/>
        <pt x="680" y="117" on="1"/>
        <pt x="692" y="177" on="0"/>
        <pt x="692" y="349" on="0"/>
        <pt x="673" y="458" on="0"/>
        <pt x="634" y="532" on="0"/>
        <pt x="560" y="572" on="0"/>
        <pt x="465" y="588" on="0"/>
        <pt x="321" y="588" on="0"/>
        <pt x="226" y="572" on="0"/>
        <pt x="153" y="532" on="0"/>
        <pt x="134" y="495" on="1"/>
        <pt x="95" y="422" on="0"/>
        <pt x="95" y="133" on="0"/>
        <pt x="151" y="-3" on="0"/>
        <pt x="273" y="-53" on="0"/>
        <pt x="525" y="-53" on="0"/>
        <pt x="691" y="-15" on="1"/>
        <pt x="691" y="-62" on="1"/>
        <pt x="520" y="-101" on="0"/>
        <pt x="292" y="-101" on="0"/>
        <pt x="168" y="-72" on="0"/>
        <pt x="80" y="9" on="0"/>
        <pt x="45" y="152" on="0"/>
        <pt x="45" y="383" on="0"/>
        <pt x="80" y="526" on="0"/>
        <pt x="169" y="607" on="0"/>
        <pt x="292" y="635" on="0"/>
        <pt x="494" y="635" on="0"/>
        <pt x="617" y="607" on="0"/>
        <pt x="706" y="526" on="0"/>
        <pt x="742" y="383" on="0"/>
        <pt x="742" y="144" on="0"/>
      </contour>
    </TTGlyph>
    <TTGlyph name="atilde" xMin="35" yMin="-15" xMax="578" yMax="765">
      <contour>
        <pt x="92" y="379" on="1"/>
        <pt x="68" y="535" on="1"/>
        <pt x="181" y="565" on="0"/>
        <pt x="295" y="565" on="1"/>
        <pt x="424" y="565" on="0"/>
        <pt x="482" y="526" on="1"/>
        <pt x="506" y="511" on="0"/>
        <pt x="538" y="454" on="0"/>
        <pt x="538" y="415" on="1"/>
        <pt x="538" y="38" on="1"/>
        <pt x="578" y="38" on="1"/>
        <pt x="578" y="0" on="1"/>
        <pt x="455" y="0" on="1"/>
        <pt x="415" y="76" on="1"/>
        <pt x="402" y="76" on="1"/>
        <pt x="382" y="18" on="0"/>
        <pt x="324" y="-15" on="0"/>
        <pt x="221" y="-15" on="0"/>
        <pt x="185" y="-13" on="0"/>
        <pt x="123" y="-5" on="0"/>
        <pt x="89" y="16" on="0"/>
        <pt x="70" y="34" on="1"/>
        <pt x="35" y="67" on="0"/>
        <pt x="35" y="150" on="1"/>
        <pt x="35" y="254" on="0"/>
        <pt x="100" y="288" on="1"/>
        <pt x="132" y="304" on="0"/>
        <pt x="199" y="315" on="0"/>
        <pt x="247" y="315" on="1"/>
        <pt x="348" y="315" on="1"/>
        <pt x="348" y="490" on="1"/>
        <pt x="234" y="490" on="1"/>
        <pt x="207" y="379" on="1"/>
      </contour>
      <contour>
        <pt x="348" y="76" on="1"/>
        <pt x="348" y="240" on="1"/>
        <pt x="211" y="240" on="1"/>
        <pt x="211" y="76" on="1"/>
      </contour>
      <contour>
        <pt x="489" y="741" on="1"/>
        <pt x="478" y="684" on="1"/>
        <pt x="459" y="583" on="0"/>
        <pt x="360" y="583" on="1"/>
        <pt x="290" y="583" on="0"/>
        <pt x="248" y="644" on="1"/>
        <pt x="236" y="644" on="1"/>
        <pt x="208" y="593" on="1"/>
        <pt x="136" y="606" on="1"/>
        <pt x="146" y="663" on="1"/>
        <pt x="164" y="765" on="0"/>
        <pt x="263" y="765" on="1"/>
        <pt x="335" y="765" on="0"/>
        <pt x="376" y="703" on="1"/>
        <pt x="388" y="703" on="1"/>
        <pt x="416" y="755" on="1"/>
      </contour>
    </TTGlyph>
    <TTGlyph name="b" xMin="45" yMin="-11" xMax="612" yMax="729">
      <contour>
        <pt x="208" y="464" on="1"/>
        <pt x="226" y="464" on="1"/>
        <pt x="247" y="519" on="0"/>
        <pt x="318" y="555" on="0"/>
        <pt x="405" y="555" on="0"/>
        <pt x="432" y="554" on="0"/>
        <pt x="481" y="550" on="0"/>
        <pt x="507" y="541" on="0"/>
        <pt x="545" y="524" on="0"/>
        <pt x="566" y="500" on="0"/>
        <pt x="591" y="462" on="0"/>
        <pt x="597" y="437" on="1"/>
        <pt x="612" y="374" on="0"/>
        <pt x="612" y="304" on="1"/>
        <pt x="612" y="236" on="1"/>
        <pt x="612" y="138" on="0"/>
        <pt x="588" y="90" on="1"/>
        <pt x="576" y="65" on="0"/>
        <pt x="551" y="28" on="0"/>
        <pt x="505" y="5" on="0"/>
        <pt x="473" y="-8" on="0"/>
        <pt x="442" y="-11" on="1"/>
        <pt x="321" y="-23" on="0"/>
        <pt x="226" y="0" on="1"/>
        <pt x="164" y="16" on="0"/>
        <pt x="128" y="35" on="1"/>
        <pt x="113" y="0" on="1"/>
        <pt x="85" y="0" on="1"/>
        <pt x="85" y="691" on="1"/>
        <pt x="45" y="691" on="1"/>
        <pt x="45" y="729" on="1"/>
        <pt x="275" y="729" on="1"/>
        <pt x="275" y="595" on="1"/>
        <pt x="234" y="580" on="1"/>
        <pt x="217" y="574" on="0"/>
        <pt x="208" y="563" on="0"/>
        <pt x="208" y="550" on="1"/>
      </contour>
      <contour>
        <pt x="422" y="60" on="1"/>
        <pt x="422" y="464" on="1"/>
        <pt x="275" y="464" on="1"/>
        <pt x="275" y="60" on="1"/>
      </contour>
    </TTGlyph>
    <TTGlyph name="backslash" xMin="-17" yMin="-129" xMax="255" yMax="729">
      <contour>
        <pt x="255" y="-129" on="1"/>
        <pt x="205" y="-129" on="1"/>
        <pt x="-17" y="729" on="1"/>
        <pt x="34" y="729" on="1"/>
      </contour>
    </TTGlyph>
    <TTGlyph name="bar" xMin="100" yMin="-50" xMax="154" yMax="684">
      <contour>
        <pt x="100" y="-50" on="1"/>
        <pt x="100" y="684" on="1"/>
        <pt x="154" y="684" on="1"/>
        <pt x="154" y="-50" on="1"/>
      </contour>
    </TTGlyph>
    <TTGlyph name="braceleft" xMin="0" yMin="-50" xMax="288" yMax="684">
      <contour>
        <pt x="0" y="295" on="1"/>
        <pt x="0" y="339" on="1"/>
        <pt x="62" y="357" on="1"/>
        <pt x="62" y="415" on="1"/>
        <pt x="62" y="552" on="0"/>
        <pt x="102" y="618" on="1"/>
        <pt x="120" y="646" on="0"/>
        <pt x="183" y="676" on="0"/>
        <pt x="242" y="684" on="0"/>
        <pt x="288" y="684" on="1"/>
        <pt x="288" y="633" on="1"/>
        <pt x="266" y="633" on="0"/>
        <pt x="246" y="629" on="0"/>
        <pt x="217" y="606" on="0"/>
        <pt x="211" y="581" on="1"/>
        <pt x="195" y="514" on="0"/>
        <pt x="195" y="391" on="1"/>
        <pt x="195" y="362" on="0"/>
        <pt x="157" y="323" on="0"/>
        <pt x="124" y="323" on="1"/>
        <pt x="124" y="311" on="1"/>
        <pt x="158" y="311" on="0"/>
        <pt x="196" y="272" on="0"/>
        <pt x="196" y="243" on="1"/>
        <pt x="196" y="118" on="0"/>
        <pt x="215" y="47" on="0"/>
        <pt x="227" y="16" on="0"/>
        <pt x="253" y="3" on="0"/>
        <pt x="270" y="1" on="0"/>
        <pt x="288" y="1" on="1"/>
        <pt x="288" y="-50" on="1"/>
        <pt x="242" y="-50" on="0"/>
        <pt x="183" y="-42" on="0"/>
        <pt x="120" y="-12" on="0"/>
        <pt x="102" y="16" on="1"/>
        <pt x="62" y="82" on="0"/>
        <pt x="62" y="219" on="1"/>
        <pt x="62" y="277" on="1"/>
      </contour>
    </TTGlyph>
    <TTGlyph name="braceright" xMin="20" yMin="-50" xMax="308" yMax="684">
      <contour>
        <pt x="308" y="339" on="1"/>
        <pt x="308" y="295" on="1"/>
        <pt x="246" y="277" on="1"/>
        <pt x="246" y="219" on="1"/>
        <pt x="246" y="82" on="0"/>
        <pt x="206" y="16" on="1"/>
        <pt x="188" y="-12" on="0"/>
        <pt x="125" y="-42" on="0"/>
        <pt x="66" y="-50" on="0"/>
        <pt x="20" y="-50" on="1"/>
        <pt x="20" y="1" on="1"/>
        <pt x="42" y="1" on="0"/>
        <pt x="62" y="5" on="0"/>
        <pt x="91" y="28" on="0"/>
        <pt x="97" y="53" on="1"/>
        <pt x="113" y="120" on="0"/>
        <pt x="113" y="243" on="1"/>
        <pt x="113" y="272" on="0"/>
        <pt x="151" y="311" on="0"/>
        <pt x="184" y="311" on="1"/>
        <pt x="184" y="323" on="1"/>
        <pt x="150" y="323" on="0"/>
        <pt x="112" y="362" on="0"/>
        <pt x="112" y="391" on="1"/>
        <pt x="112" y="516" on="0"/>
        <pt x="93" y="587" on="0"/>
        <pt x="81" y="618" on="0"/>
        <pt x="55" y="631" on="0"/>
        <pt x="38" y="633" on="0"/>
        <pt x="20" y="633" on="1"/>
        <pt x="20" y="684" on="1"/>
        <pt x="66" y="684" on="0"/>
        <pt x="125" y="676" on="0"/>
        <pt x="188" y="646" on="0"/>
        <pt x="206" y="618" on="1"/>
        <pt x="246" y="552" on="0"/>
        <pt x="246" y="415" on="1"/>
        <pt x="246" y="357" on="1"/>
      </contour>
    </TTGlyph>
    <TTGlyph name="bracketleft" xMin="80" yMin="-50" xMax="288" yMax="685">
      <contour>
        <pt x="288" y="-50" on="1"/>
        <pt x="80" y="-50" on="1"/>
        <pt x="80" y="685" on="1"/>
        <pt x="288" y="685" on="1"/>
        <pt x="288" y="634" on="1"/>
        <pt x="194" y="634" on="1"/>
        <pt x="194" y="1" on="1"/>
        <pt x="288" y="1" on="1"/>
      </contour>
    </TTGlyph>
    <TTGlyph name="bracketright" xMin="20" yMin="-50" xMax="228" yMax="685">
      <contour>
        <pt x="20" y="1" on="1"/>
        <pt x="114" y="1" on="1"/>
        <pt x="114" y="634" on="1"/>
        <pt x="20" y="634" on="1"/>
        <pt x="20" y="685" on="1"/>
        <pt x="228" y="685" on="1"/>
        <pt x="228" y="-50" on="1"/>
        <pt x="20" y="-50" on="1"/>
      </contour>
    </TTGlyph>
    <TTGlyph name="breve" xMin="33" yMin="588" xMax="365" yMax="749">
      <contour>
        <pt x="33" y="674" on="1"/>
        <pt x="48" y="697" on="0"/>
        <pt x="79" y="749" on="1"/>
        <pt x="136" y="710" on="0"/>
        <pt x="262" y="710" on="0"/>
        <pt x="319" y="749" on="1"/>
        <pt x="365" y="674" on="1"/>
        <pt x="309" y="588" on="0"/>
        <pt x="89" y="588" on="0"/>
      </contour>
    </TTGlyph>
    <TTGlyph name="brokenbar" xMin="100" yMin="-50" xMax="154" yMax="684">
      <contour>
        <pt x="100" y="-50" on="1"/>
        <pt x="100" y="229" on="1"/>
        <pt x="154" y="229" on="1"/>
        <pt x="154" y="-50" on="1"/>
      </contour>
      <contour>
        <pt x="100" y="405" on="1"/>
        <pt x="100" y="684" on="1"/>
        <pt x="154" y="684" on="1"/>
        <pt x="154" y="405" on="1"/>
      </contour>
    </TTGlyph>
    <TTGlyph name="bullet" xMin="60" yMin="146" xMax="295" yMax="394">
      <contour>
        <pt x="253" y="394" on="0"/>
        <pt x="295" y="350" on="0"/>
        <pt x="295" y="189" on="0"/>
        <pt x="253" y="146" on="0"/>
        <pt x="105" y="146" on="0"/>
        <pt x="60" y="188" on="0"/>
        <pt x="60" y="351" on="0"/>
        <pt x="106" y="394" on="0"/>
      </contour>
    </TTGlyph>
    <TTGlyph name="c" xMin="60" yMin="-15" xMax="520" yMax="565">
      <contour>
        <pt x="221" y="-15" on="0"/>
        <pt x="177" y="-1" on="0"/>
        <pt x="134" y="16" on="0"/>
        <pt x="111" y="40" on="0"/>
        <pt x="83" y="78" on="0"/>
        <pt x="76" y="103" on="1"/>
        <pt x="60" y="166" on="0"/>
        <pt x="60" y="236" on="1"/>
        <pt x="60" y="314" on="1"/>
        <pt x="60" y="384" on="0"/>
        <pt x="83" y="472" on="0"/>
        <pt x="111" y="510" on="0"/>
        <pt x="134" y="534" on="0"/>
        <pt x="177" y="551" on="0"/>
        <pt x="205" y="560" on="0"/>
        <pt x="232" y="562" on="1"/>
        <pt x="273" y="565" on="0"/>
        <pt x="320" y="565" on="1"/>
        <pt x="416" y="565" on="0"/>
        <pt x="520" y="535" on="1"/>
        <pt x="496" y="379" on="1"/>
        <pt x="381" y="379" on="1"/>
        <pt x="354" y="500" on="1"/>
        <pt x="250" y="500" on="1"/>
        <pt x="250" y="50" on="1"/>
        <pt x="354" y="50" on="1"/>
        <pt x="381" y="171" on="1"/>
        <pt x="496" y="171" on="1"/>
        <pt x="520" y="15" on="1"/>
        <pt x="438" y="-15" on="0"/>
      </contour>
    </TTGlyph>
    <TTGlyph name="caron" xMin="35" yMin="587" xMax="367" yMax="788">
      <contour>
        <pt x="367" y="717" on="1"/>
        <pt x="249" y="587" on="1"/>
        <pt x="153" y="587" on="1"/>
        <pt x="35" y="717" on="1"/>
        <pt x="94" y="788" on="1"/>
        <pt x="201" y="712" on="1"/>
        <pt x="308" y="788" on="1"/>
      </contour>
    </TTGlyph>
    <TTGlyph name="ccedilla" xMin="60" yMin="-165" xMax="520" yMax="565">
      <contour>
        <pt x="362" y="-14" on="1"/>
        <pt x="388" y="-35" on="0"/>
        <pt x="388" y="-124" on="0"/>
        <pt x="323" y="-165" on="0"/>
        <pt x="223" y="-165" on="0"/>
        <pt x="165" y="-149" on="1"/>
        <pt x="172" y="-52" on="1"/>
        <pt x="224" y="-52" on="1"/>
        <pt x="258" y="-104" on="1"/>
        <pt x="285" y="-104" on="1"/>
        <pt x="285" y="-15" on="1"/>
        <pt x="242" y="-14" on="0"/>
        <pt x="186" y="-6" on="0"/>
        <pt x="122" y="23" on="0"/>
        <pt x="104" y="49" on="1"/>
        <pt x="60" y="110" on="0"/>
        <pt x="60" y="236" on="1"/>
        <pt x="60" y="314" on="1"/>
        <pt x="60" y="384" on="0"/>
        <pt x="83" y="472" on="0"/>
        <pt x="111" y="510" on="0"/>
        <pt x="134" y="534" on="0"/>
        <pt x="177" y="551" on="0"/>
        <pt x="205" y="560" on="0"/>
        <pt x="232" y="562" on="1"/>
        <pt x="273" y="565" on="0"/>
        <pt x="320" y="565" on="1"/>
        <pt x="416" y="565" on="0"/>
        <pt x="520" y="535" on="1"/>
        <pt x="496" y="379" on="1"/>
        <pt x="381" y="379" on="1"/>
        <pt x="354" y="500" on="1"/>
        <pt x="250" y="500" on="1"/>
        <pt x="250" y="50" on="1"/>
        <pt x="354" y="50" on="1"/>
        <pt x="381" y="171" on="1"/>
        <pt x="496" y="171" on="1"/>
        <pt x="520" y="15" on="1"/>
        <pt x="451" y="-11" on="0"/>
      </contour>
    </TTGlyph>
    <TTGlyph name="cedilla" xMin="13" yMin="-165" xMax="236" yMax="6">
      <contour>
        <pt x="236" y="-76" on="1"/>
        <pt x="236" y="-124" on="0"/>
        <pt x="171" y="-165" on="0"/>
        <pt x="71" y="-165" on="0"/>
        <pt x="13" y="-149" on="1"/>
        <pt x="20" y="-52" on="1"/>
        <pt x="72" y="-52" on="1"/>
        <pt x="106" y="-104" on="1"/>
        <pt x="133" y="-104" on="1"/>
        <pt x="133" y="6" on="1"/>
        <pt x="236" y="6" on="0"/>
      </contour>
    </TTGlyph>
    <TTGlyph name="cent" xMin="60" yMin="-66" xMax="480" yMax="665">
      <contour>
        <pt x="305" y="665" on="1"/>
        <pt x="305" y="556" on="1"/>
        <pt x="383" y="555" on="0"/>
        <pt x="480" y="530" on="1"/>
        <pt x="453" y="366" on="1"/>
        <pt x="359" y="366" on="1"/>
        <pt x="332" y="491" on="1"/>
        <pt x="245" y="491" on="1"/>
        <pt x="245" y="111" on="1"/>
        <pt x="332" y="111" on="1"/>
        <pt x="359" y="236" on="1"/>
        <pt x="453" y="236" on="1"/>
        <pt x="480" y="72" on="1"/>
        <pt x="397" y="46" on="0"/>
        <pt x="306" y="46" on="1"/>
        <pt x="306" y="-66" on="1"/>
        <pt x="272" y="-66" on="1"/>
        <pt x="272" y="46" on="1"/>
        <pt x="231" y="46" on="0"/>
        <pt x="179" y="53" on="0"/>
        <pt x="118" y="82" on="0"/>
        <pt x="101" y="108" on="1"/>
        <pt x="60" y="172" on="0"/>
        <pt x="60" y="301" on="1"/>
        <pt x="60" y="420" on="0"/>
        <pt x="90" y="472" on="1"/>
        <pt x="105" y="500" on="0"/>
        <pt x="139" y="534" on="0"/>
        <pt x="166" y="542" on="1"/>
        <pt x="213" y="556" on="0"/>
        <pt x="271" y="556" on="1"/>
        <pt x="271" y="665" on="1"/>
      </contour>
    </TTGlyph>
    <TTGlyph name="circumflex" xMin="35" yMin="586" xMax="367" yMax="787">
      <contour>
        <pt x="249" y="787" on="1"/>
        <pt x="367" y="657" on="1"/>
        <pt x="308" y="586" on="1"/>
        <pt x="201" y="662" on="1"/>
        <pt x="94" y="586" on="1"/>
        <pt x="35" y="657" on="1"/>
        <pt x="153" y="787" on="1"/>
      </contour>
    </TTGlyph>
    <TTGlyph name="colon" xMin="60" yMin="-10" xMax="248" yMax="525">
      <contour>
        <pt x="215" y="525" on="0"/>
        <pt x="248" y="490" on="0"/>
        <pt x="248" y="361" on="0"/>
        <pt x="214" y="327" on="0"/>
        <pt x="96" y="327" on="0"/>
        <pt x="60" y="361" on="0"/>
        <pt x="60" y="491" on="0"/>
        <pt x="97" y="525" on="0"/>
      </contour>
      <contour>
        <pt x="215" y="188" on="0"/>
        <pt x="248" y="153" on="0"/>
        <pt x="248" y="24" on="0"/>
        <pt x="214" y="-10" on="0"/>
        <pt x="96" y="-10" on="0"/>
        <pt x="60" y="24" on="0"/>
        <pt x="60" y="154" on="0"/>
        <pt x="97" y="188" on="0"/>
      </contour>
    </TTGlyph>
    <TTGlyph name="comma" xMin="60" yMin="-113" xMax="248" yMax="188">
      <contour>
        <pt x="248" y="94" on="1"/>
        <pt x="248" y="-31" on="0"/>
        <pt x="162" y="-113" on="1"/>
        <pt x="111" y="-105" on="1"/>
        <pt x="126" y="12" on="1"/>
        <pt x="92" y="12" on="0"/>
        <pt x="60" y="46" on="0"/>
        <pt x="60" y="156" on="0"/>
        <pt x="98" y="188" on="0"/>
        <pt x="217" y="188" on="0"/>
        <pt x="248" y="156" on="0"/>
      </contour>
    </TTGlyph>
    <TTGlyph name="copyright" xMin="20" yMin="208" xMax="508" yMax="723">
      <contour>
        <pt x="508" y="546" on="0"/>
        <pt x="508" y="384" on="0"/>
        <pt x="483" y="285" on="0"/>
        <pt x="421" y="228" on="0"/>
        <pt x="334" y="208" on="0"/>
        <pt x="193" y="208" on="0"/>
        <pt x="106" y="228" on="0"/>
        <pt x="45" y="285" on="0"/>
        <pt x="20" y="384" on="0"/>
        <pt x="20" y="546" on="0"/>
        <pt x="45" y="647" on="0"/>
        <pt x="107" y="703" on="0"/>
        <pt x="193" y="723" on="0"/>
        <pt x="334" y="723" on="0"/>
        <pt x="421" y="703" on="0"/>
        <pt x="483" y="647" on="0"/>
      </contour>
      <contour>
        <pt x="284" y="322" on="1"/>
        <pt x="284" y="440" on="1"/>
        <pt x="415" y="440" on="1"/>
        <pt x="415" y="435" on="1"/>
        <pt x="415" y="357" on="0"/>
        <pt x="392" y="328" on="1"/>
        <pt x="380" y="312" on="0"/>
        <pt x="357" y="292" on="0"/>
        <pt x="335" y="288" on="1"/>
        <pt x="300" y="283" on="0"/>
        <pt x="233" y="283" on="0"/>
        <pt x="208" y="285" on="0"/>
        <pt x="168" y="292" on="0"/>
        <pt x="148" y="312" on="0"/>
        <pt x="136" y="328" on="1"/>
        <pt x="116" y="357" on="0"/>
        <pt x="116" y="435" on="1"/>
        <pt x="116" y="497" on="1"/>
        <pt x="116" y="575" on="0"/>
        <pt x="147" y="616" on="1"/>
        <pt x="159" y="631" on="0"/>
        <pt x="208" y="646" on="0"/>
        <pt x="240" y="648" on="0"/>
        <pt x="294" y="648" on="0"/>
        <pt x="316" y="647" on="0"/>
        <pt x="352" y="642" on="0"/>
        <pt x="370" y="631" on="0"/>
        <pt x="394" y="609" on="0"/>
        <pt x="400" y="593" on="1"/>
        <pt x="415" y="553" on="0"/>
        <pt x="415" y="497" on="1"/>
        <pt x="415" y="487" on="1"/>
        <pt x="284" y="487" on="1"/>
        <pt x="284" y="609" on="1"/>
        <pt x="237" y="609" on="1"/>
        <pt x="237" y="322" on="1"/>
      </contour>
      <contour>
        <pt x="473" y="465" on="1"/>
        <pt x="473" y="559" on="0"/>
        <pt x="433" y="655" on="0"/>
        <pt x="348" y="690" on="0"/>
        <pt x="180" y="690" on="0"/>
        <pt x="94" y="655" on="0"/>
        <pt x="55" y="560" on="0"/>
        <pt x="55" y="371" on="0"/>
        <pt x="94" y="276" on="0"/>
        <pt x="180" y="241" on="0"/>
        <pt x="264" y="241" on="1"/>
        <pt x="387" y="241" on="0"/>
        <pt x="473" y="329" on="0"/>
      </contour>
    </TTGlyph>
    <TTGlyph name="currency" xMin="32" yMin="46" xMax="542" yMax="556">
      <contour>
        <pt x="56" y="556" on="1"/>
        <pt x="131" y="481" on="1"/>
        <pt x="179" y="510" on="0"/>
        <pt x="394" y="510" on="0"/>
        <pt x="443" y="481" on="1"/>
        <pt x="518" y="556" on="1"/>
        <pt x="542" y="532" on="1"/>
        <pt x="469" y="459" on="1"/>
        <pt x="507" y="416" on="0"/>
        <pt x="507" y="187" on="0"/>
        <pt x="469" y="142" on="1"/>
        <pt x="542" y="70" on="1"/>
        <pt x="518" y="46" on="1"/>
        <pt x="443" y="121" on="1"/>
        <pt x="394" y="92" on="0"/>
        <pt x="179" y="92" on="0"/>
        <pt x="131" y="121" on="1"/>
        <pt x="56" y="46" on="1"/>
        <pt x="32" y="70" on="1"/>
        <pt x="104" y="142" on="1"/>
        <pt x="67" y="185" on="0"/>
        <pt x="67" y="417" on="0"/>
        <pt x="104" y="459" on="1"/>
        <pt x="32" y="532" on="1"/>
      </contour>
      <contour>
        <pt x="342" y="387" on="0"/>
        <pt x="232" y="387" on="0"/>
        <pt x="203" y="359" on="0"/>
        <pt x="203" y="241" on="0"/>
        <pt x="231" y="215" on="0"/>
        <pt x="343" y="215" on="0"/>
        <pt x="371" y="241" on="0"/>
        <pt x="371" y="359" on="0"/>
      </contour>
    </TTGlyph>
    <TTGlyph name="d" xMin="60" yMin="-15" xMax="628" yMax="729">
      <contour>
        <pt x="628" y="0" on="1"/>
        <pt x="505" y="0" on="1"/>
        <pt x="465" y="76" on="1"/>
        <pt x="452" y="76" on="1"/>
        <pt x="423" y="18" on="0"/>
        <pt x="362" y="-15" on="0"/>
        <pt x="298" y="-15" on="1"/>
        <pt x="211" y="-15" on="0"/>
        <pt x="169" y="-1" on="0"/>
        <pt x="131" y="16" on="0"/>
        <pt x="108" y="41" on="0"/>
        <pt x="83" y="79" on="0"/>
        <pt x="76" y="104" on="1"/>
        <pt x="60" y="160" on="0"/>
        <pt x="60" y="236" on="1"/>
        <pt x="60" y="299" on="1"/>
        <pt x="60" y="425" on="0"/>
        <pt x="100" y="476" on="1"/>
        <pt x="115" y="495" on="0"/>
        <pt x="139" y="519" on="0"/>
        <pt x="185" y="536" on="0"/>
        <pt x="215" y="545" on="0"/>
        <pt x="244" y="547" on="1"/>
        <pt x="286" y="550" on="0"/>
        <pt x="359" y="550" on="0"/>
        <pt x="397" y="548" on="1"/>
        <pt x="397" y="691" on="1"/>
        <pt x="357" y="691" on="1"/>
        <pt x="357" y="729" on="1"/>
        <pt x="588" y="729" on="1"/>
        <pt x="588" y="38" on="1"/>
        <pt x="628" y="38" on="1"/>
      </contour>
      <contour>
        <pt x="250" y="475" on="1"/>
        <pt x="250" y="76" on="1"/>
        <pt x="397" y="76" on="1"/>
        <pt x="397" y="475" on="1"/>
      </contour>
    </TTGlyph>
    <TTGlyph name="dagger" xMin="25" yMin="-150" xMax="453" yMax="635">
      <contour>
        <pt x="453" y="366" on="1"/>
        <pt x="318" y="366" on="1"/>
        <pt x="353" y="200" on="1"/>
        <pt x="353" y="-150" on="1"/>
        <pt x="124" y="-150" on="1"/>
        <pt x="124" y="200" on="1"/>
        <pt x="159" y="366" on="1"/>
        <pt x="25" y="366" on="1"/>
        <pt x="25" y="434" on="1"/>
        <pt x="159" y="434" on="1"/>
        <pt x="124" y="578" on="1"/>
        <pt x="124" y="635" on="1"/>
        <pt x="353" y="635" on="1"/>
        <pt x="353" y="578" on="1"/>
        <pt x="318" y="434" on="1"/>
        <pt x="453" y="434" on="1"/>
      </contour>
    </TTGlyph>
    <TTGlyph name="daggerdbl" xMin="25" yMin="-150" xMax="453" yMax="635">
      <contour>
        <pt x="124" y="635" on="1"/>
        <pt x="353" y="635" on="1"/>
        <pt x="353" y="578" on="1"/>
        <pt x="318" y="434" on="1"/>
        <pt x="453" y="434" on="1"/>
        <pt x="453" y="366" on="1"/>
        <pt x="310" y="366" on="1"/>
        <pt x="346" y="296" on="1"/>
        <pt x="346" y="189" on="1"/>
        <pt x="310" y="119" on="1"/>
        <pt x="453" y="119" on="1"/>
        <pt x="453" y="51" on="1"/>
        <pt x="318" y="51" on="1"/>
        <pt x="353" y="-93" on="1"/>
        <pt x="353" y="-150" on="1"/>
        <pt x="124" y="-150" on="1"/>
        <pt x="124" y="-93" on="1"/>
        <pt x="159" y="51" on="1"/>
        <pt x="25" y="51" on="1"/>
        <pt x="25" y="119" on="1"/>
        <pt x="167" y="119" on="1"/>
        <pt x="131" y="189" on="1"/>
        <pt x="131" y="296" on="1"/>
        <pt x="167" y="366" on="1"/>
        <pt x="25" y="366" on="1"/>
        <pt x="25" y="434" on="1"/>
        <pt x="159" y="434" on="1"/>
        <pt x="124" y="578" on="1"/>
      </contour>
    </TTGlyph>
    <TTGlyph name="degree" xMin="35" yMin="431" xMax="329" yMax="711">
      <contour>
        <pt x="93" y="711" on="0"/>
        <pt x="271" y="711" on="0"/>
        <pt x="329" y="651" on="0"/>
        <pt x="329" y="491" on="0"/>
        <pt x="271" y="431" on="0"/>
        <pt x="93" y="431" on="0"/>
        <pt x="35" y="491" on="0"/>
        <pt x="35" y="651" on="0"/>
      </contour>
      <contour>
        <pt x="219" y="629" on="0"/>
        <pt x="145" y="629" on="0"/>
        <pt x="126" y="610" on="0"/>
        <pt x="126" y="531" on="0"/>
        <pt x="145" y="513" on="0"/>
        <pt x="219" y="513" on="0"/>
        <pt x="238" y="531" on="0"/>
        <pt x="238" y="610" on="0"/>
      </contour>
    </TTGlyph>
    <TTGlyph name="dieresis" xMin="50" yMin="599" xMax="382" yMax="765">
      <contour>
        <pt x="184" y="737" on="0"/>
        <pt x="184" y="627" on="0"/>
        <pt x="161" y="599" on="0"/>
        <pt x="76" y="599" on="0"/>
        <pt x="50" y="627" on="0"/>
        <pt x="50" y="737" on="0"/>
        <pt x="76" y="765" on="0"/>
        <pt x="161" y="765" on="0"/>
      </contour>
      <contour>
        <pt x="382" y="737" on="0"/>
        <pt x="382" y="627" on="0"/>
        <pt x="359" y="599" on="0"/>
        <pt x="274" y="599" on="0"/>
        <pt x="248" y="627" on="0"/>
        <pt x="248" y="737" on="0"/>
        <pt x="274" y="765" on="0"/>
        <pt x="359" y="765" on="0"/>
      </contour>
    </TTGlyph>
    <TTGlyph name="divide" xMin="60" yMin="52" xMax="480" yMax="571">
      <contour>
        <pt x="319" y="571" on="0"/>
        <pt x="345" y="543" on="0"/>
        <pt x="345" y="440" on="0"/>
        <pt x="318" y="413" on="0"/>
        <pt x="224" y="413" on="0"/>
        <pt x="195" y="440" on="0"/>
        <pt x="195" y="544" on="0"/>
        <pt x="224" y="571" on="0"/>
      </contour>
      <contour>
        <pt x="60" y="261" on="1"/>
        <pt x="60" y="363" on="1"/>
        <pt x="480" y="363" on="1"/>
        <pt x="480" y="261" on="1"/>
      </contour>
      <contour>
        <pt x="319" y="210" on="0"/>
        <pt x="345" y="182" on="0"/>
        <pt x="345" y="79" on="0"/>
        <pt x="318" y="52" on="0"/>
        <pt x="224" y="52" on="0"/>
        <pt x="195" y="79" on="0"/>
        <pt x="195" y="183" on="0"/>
        <pt x="224" y="210" on="0"/>
      </contour>
    </TTGlyph>
    <TTGlyph name="dollar" xMin="69" yMin="-107" xMax="523" yMax="706">
      <contour>
        <pt x="523" y="138" on="1"/>
        <pt x="523" y="-5" on="0"/>
        <pt x="306" y="-11" on="1"/>
        <pt x="306" y="-107" on="1"/>
        <pt x="272" y="-107" on="1"/>
        <pt x="272" y="-12" on="1"/>
        <pt x="169" y="-11" on="0"/>
        <pt x="72" y="15" on="1"/>
        <pt x="80" y="189" on="1"/>
        <pt x="150" y="189" on="1"/>
        <pt x="256" y="58" on="1"/>
        <pt x="346" y="58" on="1"/>
        <pt x="172" y="275" on="1"/>
        <pt x="171" y="276" on="0"/>
        <pt x="113" y="345" on="0"/>
        <pt x="95" y="371" on="0"/>
        <pt x="69" y="428" on="0"/>
        <pt x="69" y="452" on="1"/>
        <pt x="69" y="605" on="0"/>
        <pt x="288" y="611" on="1"/>
        <pt x="288" y="706" on="1"/>
        <pt x="322" y="706" on="1"/>
        <pt x="322" y="612" on="1"/>
        <pt x="433" y="609" on="0"/>
        <pt x="511" y="579" on="1"/>
        <pt x="504" y="425" on="1"/>
        <pt x="433" y="425" on="1"/>
        <pt x="338" y="542" on="1"/>
        <pt x="248" y="542" on="1"/>
        <pt x="377" y="382" on="1"/>
        <pt x="493" y="252" on="0"/>
        <pt x="514" y="190" on="1"/>
        <pt x="523" y="163" on="0"/>
      </contour>
    </TTGlyph>
    <TTGlyph name="dotaccent" xMin="55" yMin="584" xMax="249" yMax="765">
      <contour>
        <pt x="93" y="765" on="0"/>
        <pt x="211" y="765" on="0"/>
        <pt x="249" y="727" on="0"/>
        <pt x="249" y="623" on="0"/>
        <pt x="211" y="584" on="0"/>
        <pt x="93" y="584" on="0"/>
        <pt x="55" y="623" on="0"/>
        <pt x="55" y="727" on="0"/>
      </contour>
    </TTGlyph>
    <TTGlyph name="dotlessi" xMin="45" yMin="0" xMax="315" yMax="550">
      <contour>
        <pt x="315" y="0" on="1"/>
        <pt x="45" y="0" on="1"/>
        <pt x="45" y="38" on="1"/>
        <pt x="85" y="38" on="1"/>
        <pt x="85" y="512" on="1"/>
        <pt x="45" y="512" on="1"/>
        <pt x="45" y="550" on="1"/>
        <pt x="275" y="550" on="1"/>
        <pt x="275" y="38" on="1"/>
        <pt x="315" y="38" on="1"/>
      </contour>
    </TTGlyph>
    <TTGlyph name="e" xMin="60" yMin="-15" xMax="543" yMax="565">
      <contour>
        <pt x="250" y="490" on="1"/>
        <pt x="250" y="310" on="1"/>
        <pt x="387" y="310" on="1"/>
        <pt x="387" y="490" on="1"/>
      </contour>
      <contour>
        <pt x="250" y="60" on="1"/>
        <pt x="375" y="60" on="1"/>
        <pt x="401" y="171" on="1"/>
        <pt x="508" y="171" on="1"/>
        <pt x="531" y="15" on="1"/>
        <pt x="413" y="-15" on="0"/>
        <pt x="306" y="-15" on="1"/>
        <pt x="265" y="-15" on="0"/>
        <pt x="207" y="-10" on="0"/>
        <pt x="135" y="13" on="0"/>
        <pt x="91" y="54" on="0"/>
        <pt x="60" y="131" on="0"/>
        <pt x="60" y="184" on="1"/>
        <pt x="60" y="314" on="1"/>
        <pt x="60" y="439" on="0"/>
        <pt x="100" y="491" on="1"/>
        <pt x="114" y="510" on="0"/>
        <pt x="139" y="534" on="0"/>
        <pt x="183" y="551" on="0"/>
        <pt x="213" y="560" on="0"/>
        <pt x="241" y="562" on="1"/>
        <pt x="283" y="565" on="0"/>
        <pt x="363" y="565" on="0"/>
        <pt x="395" y="564" on="0"/>
        <pt x="449" y="558" on="0"/>
        <pt x="476" y="546" on="0"/>
        <pt x="513" y="522" on="0"/>
        <pt x="530" y="488" on="0"/>
        <pt x="543" y="435" on="0"/>
        <pt x="543" y="365" on="0"/>
        <pt x="530" y="312" on="0"/>
        <pt x="513" y="278" on="0"/>
        <pt x="476" y="254" on="0"/>
        <pt x="449" y="242" on="0"/>
        <pt x="422" y="239" on="1"/>
        <pt x="386" y="235" on="0"/>
        <pt x="331" y="235" on="1"/>
        <pt x="250" y="235" on="1"/>
      </contour>
    </TTGlyph>
    <TTGlyph name="eacute" xMin="60" yMin="-15" xMax="543" yMax="780">
      <contour>
        <pt x="250" y="490" on="1"/>
        <pt x="250" y="310" on="1"/>
        <pt x="387" y="310" on="1"/>
        <pt x="387" y="490" on="1"/>
      </contour>
      <contour>
        <pt x="250" y="60" on="1"/>
        <pt x="375" y="60" on="1"/>
        <pt x="401" y="171" on="1"/>
        <pt x="508" y="171" on="1"/>
        <pt x="531" y="15" on="1"/>
        <pt x="413" y="-15" on="0"/>
        <pt x="306" y="-15" on="1"/>
        <pt x="265" y="-15" on="0"/>
        <pt x="207" y="-10" on="0"/>
        <pt x="135" y="13" on="0"/>
        <pt x="91" y="54" on="0"/>
        <pt x="60" y="131" on="0"/>
        <pt x="60" y="184" on="1"/>
        <pt x="60" y="314" on="1"/>
        <pt x="60" y="439" on="0"/>
        <pt x="100" y="491" on="1"/>
        <pt x="114" y="510" on="0"/>
        <pt x="139" y="534" on="0"/>
        <pt x="183" y="551" on="0"/>
        <pt x="213" y="560" on="0"/>
        <pt x="241" y="562" on="1"/>
        <pt x="283" y="565" on="0"/>
        <pt x="363" y="565" on="0"/>
        <pt x="395" y="564" on="0"/>
        <pt x="449" y="558" on="0"/>
        <pt x="476" y="546" on="0"/>
        <pt x="513" y="522" on="0"/>
        <pt x="530" y="488" on="0"/>
        <pt x="543" y="435" on="0"/>
        <pt x="543" y="365" on="0"/>
        <pt x="530" y="312" on="0"/>
        <pt x="513" y="278" on="0"/>
        <pt x="476" y="254" on="0"/>
        <pt x="449" y="242" on="0"/>
        <pt x="422" y="239" on="1"/>
        <pt x="386" y="235" on="0"/>
        <pt x="331" y="235" on="1"/>
        <pt x="250" y="235" on="1"/>
      </contour>
      <contour>
        <pt x="202" y="678" on="1"/>
        <pt x="413" y="780" on="1"/>
        <pt x="462" y="645" on="1"/>
        <pt x="235" y="586" on="1"/>
      </contour>
    </TTGlyph>
    <TTGlyph name="ecircumflex" xMin="60" yMin="-15" xMax="543" yMax="787">
      <contour>
        <pt x="250" y="490" on="1"/>
        <pt x="250" y="310" on="1"/>
        <pt x="387" y="310" on="1"/>
        <pt x="387" y="490" on="1"/>
      </contour>
      <contour>
        <pt x="250" y="60" on="1"/>
        <pt x="375" y="60" on="1"/>
        <pt x="401" y="171" on="1"/>
        <pt x="508" y="171" on="1"/>
        <pt x="531" y="15" on="1"/>
        <pt x="413" y="-15" on="0"/>
        <pt x="306" y="-15" on="1"/>
        <pt x="265" y="-15" on="0"/>
        <pt x="207" y="-10" on="0"/>
        <pt x="135" y="13" on="0"/>
        <pt x="91" y="54" on="0"/>
        <pt x="60" y="131" on="0"/>
        <pt x="60" y="184" on="1"/>
        <pt x="60" y="314" on="1"/>
        <pt x="60" y="439" on="0"/>
        <pt x="100" y="491" on="1"/>
        <pt x="114" y="510" on="0"/>
        <pt x="139" y="534" on="0"/>
        <pt x="183" y="551" on="0"/>
        <pt x="213" y="560" on="0"/>
        <pt x="241" y="562" on="1"/>
        <pt x="283" y="565" on="0"/>
        <pt x="363" y="565" on="0"/>
        <pt x="395" y="564" on="0"/>
        <pt x="449" y="558" on="0"/>
        <pt x="476" y="546" on="0"/>
        <pt x="513" y="522" on="0"/>
        <pt x="530" y="488" on="0"/>
        <pt x="543" y="435" on="0"/>
        <pt x="543" y="365" on="0"/>
        <pt x="530" y="312" on="0"/>
        <pt x="513" y="278" on="0"/>
        <pt x="476" y="254" on="0"/>
        <pt x="449" y="242" on="0"/>
        <pt x="422" y="239" on="1"/>
        <pt x="386" y="235" on="0"/>
        <pt x="331" y="235" on="1"/>
        <pt x="250" y="235" on="1"/>
      </contour>
      <contour>
        <pt x="359" y="787" on="1"/>
        <pt x="477" y="657" on="1"/>
        <pt x="418" y="586" on="1"/>
        <pt x="311" y="662" on="1"/>
        <pt x="204" y="586" on="1"/>
        <pt x="145" y="657" on="1"/>
        <pt x="263" y="787" on="1"/>
      </contour>
    </TTGlyph>
    <TTGlyph name="edieresis" xMin="60" yMin="-15" xMax="543" yMax="765">
      <contour>
        <pt x="250" y="490" on="1"/>
        <pt x="250" y="310" on="1"/>
        <pt x="387" y="310" on="1"/>
        <pt x="387" y="490" on="1"/>
      </contour>
      <contour>
        <pt x="250" y="60" on="1"/>
        <pt x="375" y="60" on="1"/>
        <pt x="401" y="171" on="1"/>
        <pt x="508" y="171" on="1"/>
        <pt x="531" y="15" on="1"/>
        <pt x="413" y="-15" on="0"/>
        <pt x="306" y="-15" on="1"/>
        <pt x="265" y="-15" on="0"/>
        <pt x="207" y="-10" on="0"/>
        <pt x="135" y="13" on="0"/>
        <pt x="91" y="54" on="0"/>
        <pt x="60" y="131" on="0"/>
        <pt x="60" y="184" on="1"/>
        <pt x="60" y="314" on="1"/>
        <pt x="60" y="439" on="0"/>
        <pt x="100" y="491" on="1"/>
        <pt x="114" y="510" on="0"/>
        <pt x="139" y="534" on="0"/>
        <pt x="183" y="551" on="0"/>
        <pt x="213" y="560" on="0"/>
        <pt x="241" y="562" on="1"/>
        <pt x="283" y="565" on="0"/>
        <pt x="363" y="565" on="0"/>
        <pt x="395" y="564" on="0"/>
        <pt x="449" y="558" on="0"/>
        <pt x="476" y="546" on="0"/>
        <pt x="513" y="522" on="0"/>
        <pt x="530" y="488" on="0"/>
        <pt x="543" y="435" on="0"/>
        <pt x="543" y="365" on="0"/>
        <pt x="530" y="312" on="0"/>
        <pt x="513" y="278" on="0"/>
        <pt x="476" y="254" on="0"/>
        <pt x="449" y="242" on="0"/>
        <pt x="422" y="239" on="1"/>
        <pt x="386" y="235" on="0"/>
        <pt x="331" y="235" on="1"/>
        <pt x="250" y="235" on="1"/>
      </contour>
      <contour>
        <pt x="264" y="737" on="0"/>
        <pt x="264" y="627" on="0"/>
        <pt x="241" y="599" on="0"/>
        <pt x="156" y="599" on="0"/>
        <pt x="130" y="627" on="0"/>
        <pt x="130" y="737" on="0"/>
        <pt x="156" y="765" on="0"/>
        <pt x="241" y="765" on="0"/>
      </contour>
      <contour>
        <pt x="462" y="737" on="0"/>
        <pt x="462" y="627" on="0"/>
        <pt x="439" y="599" on="0"/>
        <pt x="354" y="599" on="0"/>
        <pt x="328" y="627" on="0"/>
        <pt x="328" y="737" on="0"/>
        <pt x="354" y="765" on="0"/>
        <pt x="439" y="765" on="0"/>
      </contour>
    </TTGlyph>
    <TTGlyph name="egrave" xMin="60" yMin="-15" xMax="543" yMax="780">
      <contour>
        <pt x="250" y="490" on="1"/>
        <pt x="250" y="310" on="1"/>
        <pt x="387" y="310" on="1"/>
        <pt x="387" y="490" on="1"/>
      </contour>
      <contour>
        <pt x="250" y="60" on="1"/>
        <pt x="375" y="60" on="1"/>
        <pt x="401" y="171" on="1"/>
        <pt x="508" y="171" on="1"/>
        <pt x="531" y="15" on="1"/>
        <pt x="413" y="-15" on="0"/>
        <pt x="306" y="-15" on="1"/>
        <pt x="265" y="-15" on="0"/>
        <pt x="207" y="-10" on="0"/>
        <pt x="135" y="13" on="0"/>
        <pt x="91" y="54" on="0"/>
        <pt x="60" y="131" on="0"/>
        <pt x="60" y="184" on="1"/>
        <pt x="60" y="314" on="1"/>
        <pt x="60" y="439" on="0"/>
        <pt x="100" y="491" on="1"/>
        <pt x="114" y="510" on="0"/>
        <pt x="139" y="534" on="0"/>
        <pt x="183" y="551" on="0"/>
        <pt x="213" y="560" on="0"/>
        <pt x="241" y="562" on="1"/>
        <pt x="283" y="565" on="0"/>
        <pt x="363" y="565" on="0"/>
        <pt x="395" y="564" on="0"/>
        <pt x="449" y="558" on="0"/>
        <pt x="476" y="546" on="0"/>
        <pt x="513" y="522" on="0"/>
        <pt x="530" y="488" on="0"/>
        <pt x="543" y="435" on="0"/>
        <pt x="543" y="365" on="0"/>
        <pt x="530" y="312" on="0"/>
        <pt x="513" y="278" on="0"/>
        <pt x="476" y="254" on="0"/>
        <pt x="449" y="242" on="0"/>
        <pt x="422" y="239" on="1"/>
        <pt x="386" y="235" on="0"/>
        <pt x="331" y="235" on="1"/>
        <pt x="250" y="235" on="1"/>
      </contour>
      <contour>
        <pt x="231" y="780" on="1"/>
        <pt x="442" y="678" on="1"/>
        <pt x="409" y="586" on="1"/>
        <pt x="182" y="645" on="1"/>
      </contour>
    </TTGlyph>
    <TTGlyph name="eight" xMin="40" yMin="-15" xMax="529" yMax="615">
      <contour>
        <pt x="53" y="526" on="0"/>
        <pt x="161" y="615" on="0"/>
        <pt x="404" y="615" on="0"/>
        <pt x="516" y="552" on="0"/>
        <pt x="516" y="399" on="0"/>
        <pt x="470" y="353" on="1"/>
        <pt x="344" y="426" on="1"/>
        <pt x="344" y="550" on="1"/>
        <pt x="217" y="550" on="1"/>
        <pt x="217" y="453" on="1"/>
        <pt x="461" y="312" on="1"/>
        <pt x="529" y="265" on="0"/>
        <pt x="529" y="74" on="0"/>
        <pt x="415" y="-15" on="0"/>
        <pt x="158" y="-15" on="0"/>
        <pt x="40" y="51" on="0"/>
        <pt x="40" y="214" on="0"/>
        <pt x="94" y="257" on="1"/>
        <pt x="225" y="180" on="1"/>
        <pt x="225" y="50" on="1"/>
        <pt x="352" y="50" on="1"/>
        <pt x="352" y="154" on="1"/>
        <pt x="116" y="287" on="1"/>
        <pt x="53" y="328" on="0"/>
      </contour>
    </TTGlyph>
    <TTGlyph name="ellipsis" xMin="60" yMin="-10" xMax="864" yMax="188">
      <contour>
        <pt x="215" y="188" on="0"/>
        <pt x="248" y="153" on="0"/>
        <pt x="248" y="24" on="0"/>
        <pt x="214" y="-10" on="0"/>
        <pt x="96" y="-10" on="0"/>
        <pt x="60" y="24" on="0"/>
        <pt x="60" y="154" on="0"/>
        <pt x="97" y="188" on="0"/>
      </contour>
      <contour>
        <pt x="523" y="188" on="0"/>
        <pt x="556" y="153" on="0"/>
        <pt x="556" y="24" on="0"/>
        <pt x="522" y="-10" on="0"/>
        <pt x="404" y="-10" on="0"/>
        <pt x="368" y="24" on="0"/>
        <pt x="368" y="154" on="0"/>
        <pt x="405" y="188" on="0"/>
      </contour>
      <contour>
        <pt x="831" y="188" on="0"/>
        <pt x="864" y="153" on="0"/>
        <pt x="864" y="24" on="0"/>
        <pt x="830" y="-10" on="0"/>
        <pt x="712" y="-10" on="0"/>
        <pt x="676" y="24" on="0"/>
        <pt x="676" y="154" on="0"/>
        <pt x="713" y="188" on="0"/>
      </contour>
    </TTGlyph>
    <TTGlyph name="emdash" xMin="30" yMin="213" xMax="850" yMax="351">
      <contour>
        <pt x="30" y="213" on="1"/>
        <pt x="30" y="351" on="1"/>
        <pt x="850" y="351" on="1"/>
        <pt x="850" y="213" on="1"/>
      </contour>
    </TTGlyph>
    <TTGlyph name="endash" xMin="30" yMin="213" xMax="578" yMax="351">
      <contour>
        <pt x="30" y="213" on="1"/>
        <pt x="30" y="351" on="1"/>
        <pt x="578" y="351" on="1"/>
        <pt x="578" y="213" on="1"/>
      </contour>
    </TTGlyph>
    <TTGlyph name="equal" xMin="60" yMin="161" xMax="480" yMax="463">
      <contour>
        <pt x="60" y="361" on="1"/>
        <pt x="60" y="463" on="1"/>
        <pt x="480" y="463" on="1"/>
        <pt x="480" y="361" on="1"/>
      </contour>
      <contour>
        <pt x="60" y="161" on="1"/>
        <pt x="60" y="263" on="1"/>
        <pt x="480" y="263" on="1"/>
        <pt x="480" y="161" on="1"/>
      </contour>
    </TTGlyph>
    <TTGlyph name="eth" xMin="60" yMin="-15" xMax="647" yMax="740">
      <contour>
        <pt x="169" y="703" on="1"/>
        <pt x="266" y="740" on="0"/>
        <pt x="358" y="740" on="1"/>
        <pt x="484" y="740" on="0"/>
        <pt x="538" y="661" on="1"/>
        <pt x="647" y="709" on="1"/>
        <pt x="647" y="637" on="1"/>
        <pt x="565" y="601" on="1"/>
        <pt x="587" y="535" on="0"/>
        <pt x="587" y="413" on="1"/>
        <pt x="587" y="207" on="1"/>
        <pt x="587" y="121" on="0"/>
        <pt x="564" y="78" on="1"/>
        <pt x="551" y="56" on="0"/>
        <pt x="526" y="23" on="0"/>
        <pt x="479" y="3" on="0"/>
        <pt x="446" y="-9" on="0"/>
        <pt x="414" y="-12" on="1"/>
        <pt x="370" y="-15" on="0"/>
        <pt x="281" y="-15" on="0"/>
        <pt x="252" y="-14" on="0"/>
        <pt x="200" y="-11" on="0"/>
        <pt x="172" y="-3" on="0"/>
        <pt x="131" y="12" on="0"/>
        <pt x="109" y="34" on="0"/>
        <pt x="82" y="68" on="0"/>
        <pt x="76" y="90" on="1"/>
        <pt x="60" y="141" on="0"/>
        <pt x="60" y="207" on="1"/>
        <pt x="60" y="223" on="1"/>
        <pt x="60" y="309" on="0"/>
        <pt x="84" y="352" on="1"/>
        <pt x="96" y="374" on="0"/>
        <pt x="121" y="407" on="0"/>
        <pt x="168" y="427" on="0"/>
        <pt x="201" y="439" on="0"/>
        <pt x="232" y="442" on="1"/>
        <pt x="277" y="445" on="0"/>
        <pt x="377" y="445" on="0"/>
        <pt x="397" y="444" on="1"/>
        <pt x="397" y="527" on="1"/>
        <pt x="302" y="486" on="1"/>
        <pt x="302" y="558" on="1"/>
        <pt x="397" y="599" on="1"/>
        <pt x="397" y="649" on="1"/>
        <pt x="362" y="649" on="0"/>
        <pt x="227" y="619" on="0"/>
        <pt x="191" y="599" on="1"/>
      </contour>
      <contour>
        <pt x="397" y="60" on="1"/>
        <pt x="397" y="370" on="1"/>
        <pt x="250" y="370" on="1"/>
        <pt x="250" y="60" on="1"/>
      </contour>
    </TTGlyph>
    <TTGlyph name="exclam" xMin="63" yMin="-15" xMax="292" yMax="635">
      <contour>
        <pt x="245" y="151" on="0"/>
        <pt x="281" y="122" on="0"/>
        <pt x="281" y="13" on="0"/>
        <pt x="244" y="-15" on="0"/>
        <pt x="112" y="-15" on="0"/>
        <pt x="72" y="13" on="0"/>
        <pt x="72" y="122" on="0"/>
        <pt x="113" y="151" on="0"/>
      </contour>
      <contour>
        <pt x="63" y="635" on="1"/>
        <pt x="292" y="635" on="1"/>
        <pt x="292" y="365" on="1"/>
        <pt x="262" y="233" on="1"/>
        <pt x="93" y="233" on="1"/>
        <pt x="63" y="365" on="1"/>
      </contour>
    </TTGlyph>
    <TTGlyph name="exclamdown" xMin="63" yMin="-85" xMax="292" yMax="565">
      <contour>
        <pt x="110" y="399" on="0"/>
        <pt x="74" y="428" on="0"/>
        <pt x="74" y="537" on="0"/>
        <pt x="111" y="565" on="0"/>
        <pt x="243" y="565" on="0"/>
        <pt x="283" y="537" on="0"/>
        <pt x="283" y="428" on="0"/>
        <pt x="242" y="399" on="0"/>
      </contour>
      <contour>
        <pt x="292" y="-85" on="1"/>
        <pt x="63" y="-85" on="1"/>
        <pt x="63" y="185" on="1"/>
        <pt x="93" y="317" on="1"/>
        <pt x="262" y="317" on="1"/>
        <pt x="292" y="185" on="1"/>
      </contour>
    </TTGlyph>
    <TTGlyph name="f" xMin="45" yMin="0" xMax="369" yMax="744">
      <contour>
        <pt x="45" y="444" on="1"/>
        <pt x="45" y="492" on="1"/>
        <pt x="85" y="492" on="1"/>
        <pt x="85" y="540" on="1"/>
        <pt x="85" y="652" on="0"/>
        <pt x="172" y="744" on="0"/>
        <pt x="267" y="744" on="1"/>
        <pt x="309" y="744" on="0"/>
        <pt x="369" y="731" on="1"/>
        <pt x="352" y="578" on="1"/>
        <pt x="200" y="578" on="1"/>
        <pt x="200" y="518" on="1"/>
        <pt x="200" y="506" on="0"/>
        <pt x="205" y="500" on="1"/>
        <pt x="212" y="492" on="0"/>
        <pt x="230" y="492" on="1"/>
        <pt x="352" y="492" on="1"/>
        <pt x="352" y="444" on="1"/>
        <pt x="275" y="444" on="1"/>
        <pt x="275" y="38" on="1"/>
        <pt x="345" y="38" on="1"/>
        <pt x="345" y="0" on="1"/>
        <pt x="45" y="0" on="1"/>
        <pt x="45" y="38" on="1"/>
        <pt x="85" y="38" on="1"/>
        <pt x="85" y="444" on="1"/>
      </contour>
    </TTGlyph>
    <TTGlyph name="fi" xMin="45" yMin="0" xMax="675" yMax="765">
      <contour>
        <pt x="45" y="444" on="1"/>
        <pt x="45" y="492" on="1"/>
        <pt x="85" y="492" on="1"/>
        <pt x="85" y="540" on="1"/>
        <pt x="85" y="652" on="0"/>
        <pt x="172" y="744" on="0"/>
        <pt x="267" y="744" on="1"/>
        <pt x="309" y="744" on="0"/>
        <pt x="369" y="731" on="1"/>
        <pt x="352" y="578" on="1"/>
        <pt x="200" y="578" on="1"/>
        <pt x="200" y="518" on="1"/>
        <pt x="200" y="506" on="0"/>
        <pt x="205" y="500" on="1"/>
        <pt x="212" y="492" on="0"/>
        <pt x="230" y="492" on="1"/>
        <pt x="352" y="492" on="1"/>
        <pt x="352" y="444" on="1"/>
        <pt x="275" y="444" on="1"/>
        <pt x="275" y="38" on="1"/>
        <pt x="345" y="38" on="1"/>
        <pt x="345" y="0" on="1"/>
        <pt x="45" y="0" on="1"/>
        <pt x="45" y="38" on="1"/>
        <pt x="85" y="38" on="1"/>
        <pt x="85" y="444" on="1"/>
      </contour>
      <contour>
        <pt x="675" y="0" on="1"/>
        <pt x="405" y="0" on="1"/>
        <pt x="405" y="38" on="1"/>
        <pt x="445" y="38" on="1"/>
        <pt x="445" y="512" on="1"/>
        <pt x="405" y="512" on="1"/>
        <pt x="405" y="550" on="1"/>
        <pt x="635" y="550" on="1"/>
        <pt x="635" y="38" on="1"/>
        <pt x="675" y="38" on="1"/>
      </contour>
      <contour>
        <pt x="644" y="737" on="0"/>
        <pt x="644" y="627" on="0"/>
        <pt x="608" y="599" on="0"/>
        <pt x="476" y="599" on="0"/>
        <pt x="435" y="627" on="0"/>
        <pt x="435" y="737" on="0"/>
        <pt x="476" y="765" on="0"/>
        <pt x="608" y="765" on="0"/>
      </contour>
    </TTGlyph>
    <TTGlyph name="five" xMin="60" yMin="-15" xMax="521" yMax="600">
      <contour>
        <pt x="221" y="271" on="1"/>
        <pt x="77" y="271" on="1"/>
        <pt x="77" y="600" on="1"/>
        <pt x="516" y="600" on="1"/>
        <pt x="482" y="399" on="1"/>
        <pt x="361" y="399" on="1"/>
        <pt x="361" y="540" on="1"/>
        <pt x="236" y="540" on="1"/>
        <pt x="236" y="349" on="1"/>
        <pt x="302" y="349" on="1"/>
        <pt x="409" y="349" on="0"/>
        <pt x="521" y="276" on="0"/>
        <pt x="521" y="76" on="0"/>
        <pt x="403" y="-15" on="0"/>
        <pt x="268" y="-15" on="1"/>
        <pt x="172" y="-15" on="0"/>
        <pt x="60" y="15" on="1"/>
        <pt x="76" y="201" on="1"/>
        <pt x="180" y="201" on="1"/>
        <pt x="259" y="50" on="1"/>
        <pt x="339" y="50" on="1"/>
      </contour>
    </TTGlyph>
    <TTGlyph name="fl" xMin="45" yMin="0" xMax="675" yMax="744">
      <contour>
        <pt x="45" y="444" on="1"/>
        <pt x="45" y="492" on="1"/>
        <pt x="85" y="492" on="1"/>
        <pt x="85" y="540" on="1"/>
        <pt x="85" y="652" on="0"/>
        <pt x="172" y="744" on="0"/>
        <pt x="267" y="744" on="1"/>
        <pt x="309" y="744" on="0"/>
        <pt x="369" y="731" on="1"/>
        <pt x="352" y="578" on="1"/>
        <pt x="200" y="578" on="1"/>
        <pt x="200" y="518" on="1"/>
        <pt x="200" y="506" on="0"/>
        <pt x="205" y="500" on="1"/>
        <pt x="212" y="492" on="0"/>
        <pt x="230" y="492" on="1"/>
        <pt x="352" y="492" on="1"/>
        <pt x="352" y="444" on="1"/>
        <pt x="275" y="444" on="1"/>
        <pt x="275" y="38" on="1"/>
        <pt x="345" y="38" on="1"/>
        <pt x="345" y="0" on="1"/>
        <pt x="45" y="0" on="1"/>
        <pt x="45" y="38" on="1"/>
        <pt x="85" y="38" on="1"/>
        <pt x="85" y="444" on="1"/>
      </contour>
      <contour>
        <pt x="405" y="729" on="1"/>
        <pt x="635" y="729" on="1"/>
        <pt x="635" y="38" on="1"/>
        <pt x="675" y="38" on="1"/>
        <pt x="675" y="0" on="1"/>
        <pt x="405" y="0" on="1"/>
        <pt x="405" y="38" on="1"/>
        <pt x="445" y="38" on="1"/>
        <pt x="445" y="691" on="1"/>
        <pt x="405" y="691" on="1"/>
      </contour>
    </TTGlyph>
    <TTGlyph name="florin" xMin="41" yMin="-127" xMax="516" yMax="615">
      <contour>
        <pt x="423" y="277" on="1"/>
        <pt x="300" y="277" on="1"/>
        <pt x="300" y="124" on="1"/>
        <pt x="300" y="-28" on="0"/>
        <pt x="248" y="-80" on="1"/>
        <pt x="230" y="-98" on="0"/>
        <pt x="201" y="-116" on="0"/>
        <pt x="176" y="-121" on="1"/>
        <pt x="145" y="-127" on="0"/>
        <pt x="95" y="-127" on="1"/>
        <pt x="95" y="277" on="1"/>
        <pt x="41" y="277" on="1"/>
        <pt x="41" y="310" on="1"/>
        <pt x="95" y="310" on="1"/>
        <pt x="95" y="364" on="1"/>
        <pt x="95" y="459" on="0"/>
        <pt x="125" y="524" on="1"/>
        <pt x="145" y="568" on="0"/>
        <pt x="198" y="595" on="1"/>
        <pt x="216" y="604" on="0"/>
        <pt x="246" y="609" on="1"/>
        <pt x="281" y="615" on="0"/>
        <pt x="428" y="615" on="0"/>
        <pt x="516" y="585" on="1"/>
        <pt x="471" y="419" on="1"/>
        <pt x="387" y="419" on="1"/>
        <pt x="387" y="550" on="1"/>
        <pt x="300" y="550" on="1"/>
        <pt x="300" y="310" on="1"/>
        <pt x="423" y="310" on="1"/>
      </contour>
    </TTGlyph>
    <TTGlyph name="four" xMin="8" yMin="0" xMax="541" yMax="600">
      <contour>
        <pt x="8" y="115" on="1"/>
        <pt x="8" y="175" on="1"/>
        <pt x="168" y="600" on="1"/>
        <pt x="477" y="600" on="1"/>
        <pt x="477" y="198" on="1"/>
        <pt x="531" y="198" on="1"/>
        <pt x="531" y="115" on="1"/>
        <pt x="477" y="115" on="1"/>
        <pt x="477" y="38" on="1"/>
        <pt x="541" y="38" on="1"/>
        <pt x="541" y="0" on="1"/>
        <pt x="128" y="0" on="1"/>
        <pt x="128" y="38" on="1"/>
        <pt x="262" y="38" on="1"/>
        <pt x="262" y="115" on="1"/>
      </contour>
      <contour>
        <pt x="262" y="540" on="1"/>
        <pt x="221" y="540" on="1"/>
        <pt x="141" y="181" on="1"/>
        <pt x="262" y="181" on="1"/>
      </contour>
    </TTGlyph>
    <TTGlyph name="fourinferior" xMin="0" yMin="0" xMax="351" yMax="396">
      <contour>
        <pt x="0" y="76" on="1"/>
        <pt x="0" y="116" on="1"/>
        <pt x="92" y="396" on="1"/>
        <pt x="316" y="396" on="1"/>
        <pt x="316" y="131" on="1"/>
        <pt x="351" y="131" on="1"/>
        <pt x="351" y="76" on="1"/>
        <pt x="316" y="76" on="1"/>
        <pt x="316" y="0" on="1"/>
        <pt x="154" y="0" on="1"/>
        <pt x="154" y="76" on="1"/>
      </contour>
      <contour>
        <pt x="118" y="356" on="1"/>
        <pt x="76" y="120" on="1"/>
        <pt x="154" y="120" on="1"/>
        <pt x="154" y="356" on="1"/>
      </contour>
    </TTGlyph>
    <TTGlyph name="fraction" xMin="20" yMin="-48" xMax="218" yMax="648">
      <contour>
        <pt x="70" y="-48" on="1"/>
        <pt x="20" y="-48" on="1"/>
        <pt x="167" y="648" on="1"/>
        <pt x="218" y="648" on="1"/>
      </contour>
    </TTGlyph>
    <TTGlyph name="g" xMin="20" yMin="-195" xMax="549" yMax="600">
      <contour>
        <pt x="36" y="-142" on="0"/>
        <pt x="20" y="-89" on="0"/>
        <pt x="20" y="28" on="0"/>
        <pt x="70" y="91" on="0"/>
        <pt x="100" y="91" on="1"/>
        <pt x="175" y="91" on="1"/>
        <pt x="175" y="104" on="1"/>
        <pt x="124" y="114" on="0"/>
        <pt x="124" y="167" on="1"/>
        <pt x="124" y="229" on="1"/>
        <pt x="37" y="258" on="0"/>
        <pt x="37" y="366" on="1"/>
        <pt x="37" y="387" on="1"/>
        <pt x="37" y="476" on="0"/>
        <pt x="69" y="512" on="1"/>
        <pt x="81" y="526" on="0"/>
        <pt x="101" y="543" on="0"/>
        <pt x="138" y="555" on="0"/>
        <pt x="163" y="561" on="0"/>
        <pt x="209" y="565" on="0"/>
        <pt x="222" y="565" on="1"/>
        <pt x="262" y="565" on="1"/>
        <pt x="331" y="565" on="0"/>
        <pt x="396" y="531" on="0"/>
        <pt x="396" y="484" on="1"/>
        <pt x="409" y="484" on="1"/>
        <pt x="419" y="525" on="1"/>
        <pt x="430" y="570" on="0"/>
        <pt x="462" y="600" on="0"/>
        <pt x="505" y="600" on="1"/>
        <pt x="549" y="600" on="1"/>
        <pt x="549" y="511" on="1"/>
        <pt x="538" y="511" on="1"/>
        <pt x="519" y="511" on="0"/>
        <pt x="519" y="483" on="1"/>
        <pt x="519" y="366" on="1"/>
        <pt x="519" y="310" on="0"/>
        <pt x="492" y="270" on="1"/>
        <pt x="476" y="244" on="0"/>
        <pt x="422" y="226" on="1"/>
        <pt x="388" y="215" on="0"/>
        <pt x="266" y="215" on="1"/>
        <pt x="230" y="215" on="1"/>
        <pt x="230" y="191" on="1"/>
        <pt x="230" y="160" on="0"/>
        <pt x="244" y="135" on="0"/>
        <pt x="264" y="135" on="1"/>
        <pt x="413" y="135" on="1"/>
        <pt x="464" y="135" on="0"/>
        <pt x="547" y="64" on="0"/>
        <pt x="547" y="-18" on="1"/>
        <pt x="547" y="-122" on="0"/>
        <pt x="437" y="-195" on="0"/>
        <pt x="276" y="-195" on="1"/>
        <pt x="190" y="-195" on="0"/>
        <pt x="90" y="-182" on="0"/>
      </contour>
      <contour>
        <pt x="347" y="297" on="1"/>
        <pt x="347" y="484" on="1"/>
        <pt x="210" y="484" on="1"/>
        <pt x="210" y="297" on="1"/>
      </contour>
      <contour>
        <pt x="403" y="10" on="1"/>
        <pt x="161" y="10" on="1"/>
        <pt x="161" y="-95" on="1"/>
        <pt x="403" y="-95" on="1"/>
      </contour>
    </TTGlyph>
    <TTGlyph name="germandbls" xMin="45" yMin="-15" xMax="631" yMax="744">
      <contour>
        <pt x="45" y="444" on="1"/>
        <pt x="45" y="492" on="1"/>
        <pt x="85" y="492" on="1"/>
        <pt x="85" y="540" on="1"/>
        <pt x="85" y="650" on="0"/>
        <pt x="219" y="744" on="0"/>
        <pt x="352" y="744" on="1"/>
        <pt x="444" y="744" on="0"/>
        <pt x="513" y="702" on="1"/>
        <pt x="548" y="680" on="0"/>
        <pt x="589" y="602" on="0"/>
        <pt x="589" y="550" on="1"/>
        <pt x="589" y="415" on="0"/>
        <pt x="482" y="379" on="1"/>
        <pt x="482" y="372" on="1"/>
        <pt x="541" y="363" on="0"/>
        <pt x="631" y="254" on="0"/>
        <pt x="631" y="179" on="1"/>
        <pt x="631" y="-15" on="0"/>
        <pt x="404" y="-15" on="1"/>
        <pt x="361" y="-15" on="0"/>
        <pt x="326" y="-11" on="1"/>
        <pt x="326" y="50" on="1"/>
        <pt x="423" y="50" on="1"/>
        <pt x="423" y="313" on="1"/>
        <pt x="326" y="313" on="1"/>
        <pt x="326" y="396" on="1"/>
        <pt x="393" y="422" on="0"/>
        <pt x="410" y="476" on="1"/>
        <pt x="419" y="506" on="0"/>
        <pt x="423" y="553" on="0"/>
        <pt x="423" y="595" on="1"/>
        <pt x="423" y="663" on="1"/>
        <pt x="275" y="663" on="1"/>
        <pt x="275" y="0" on="1"/>
        <pt x="45" y="0" on="1"/>
        <pt x="45" y="38" on="1"/>
        <pt x="85" y="38" on="1"/>
        <pt x="85" y="444" on="1"/>
      </contour>
    </TTGlyph>
    <TTGlyph name="grave" xMin="0" yMin="586" xMax="260" yMax="780">
      <contour>
        <pt x="49" y="780" on="1"/>
        <pt x="260" y="678" on="1"/>
        <pt x="227" y="586" on="1"/>
        <pt x="0" y="645" on="1"/>
      </contour>
    </TTGlyph>
    <TTGlyph name="greater" xMin="60" yMin="86" xMax="480" yMax="543">
      <contour>
        <pt x="480" y="363" on="1"/>
        <pt x="480" y="266" on="1"/>
        <pt x="60" y="86" on="1"/>
        <pt x="60" y="188" on="1"/>
        <pt x="372" y="314" on="1"/>
        <pt x="60" y="441" on="1"/>
        <pt x="60" y="543" on="1"/>
      </contour>
    </TTGlyph>
    <TTGlyph name="greaterequal" xMin="60" yMin="0" xMax="480" yMax="645">
      <contour>
        <pt x="480" y="465" on="1"/>
        <pt x="480" y="368" on="1"/>
        <pt x="60" y="188" on="1"/>
        <pt x="60" y="290" on="1"/>
        <pt x="372" y="416" on="1"/>
        <pt x="60" y="543" on="1"/>
        <pt x="60" y="645" on="1"/>
      </contour>
      <contour>
        <pt x="60" y="0" on="1"/>
        <pt x="60" y="102" on="1"/>
        <pt x="480" y="102" on="1"/>
        <pt x="480" y="0" on="1"/>
      </contour>
    </TTGlyph>
    <TTGlyph name="guillemotleft" xMin="15" yMin="82" xMax="468" yMax="479">
      <contour>
        <pt x="246" y="324" on="1"/>
        <pt x="391" y="479" on="1"/>
        <pt x="467" y="415" on="1"/>
        <pt x="385" y="281" on="1"/>
        <pt x="468" y="146" on="1"/>
        <pt x="391" y="82" on="1"/>
        <pt x="246" y="238" on="1"/>
      </contour>
      <contour>
        <pt x="15" y="324" on="1"/>
        <pt x="160" y="479" on="1"/>
        <pt x="236" y="415" on="1"/>
        <pt x="154" y="281" on="1"/>
        <pt x="237" y="146" on="1"/>
        <pt x="160" y="82" on="1"/>
        <pt x="15" y="238" on="1"/>
      </contour>
    </TTGlyph>
    <TTGlyph name="guillemotright" xMin="20" yMin="82" xMax="473" yMax="479">
      <contour>
        <pt x="97" y="479" on="1"/>
        <pt x="242" y="324" on="1"/>
        <pt x="242" y="238" on="1"/>
        <pt x="97" y="82" on="1"/>
        <pt x="20" y="146" on="1"/>
        <pt x="103" y="281" on="1"/>
        <pt x="21" y="415" on="1"/>
      </contour>
      <contour>
        <pt x="328" y="479" on="1"/>
        <pt x="473" y="324" on="1"/>
        <pt x="473" y="238" on="1"/>
        <pt x="328" y="82" on="1"/>
        <pt x="251" y="146" on="1"/>
        <pt x="334" y="281" on="1"/>
        <pt x="252" y="415" on="1"/>
      </contour>
    </TTGlyph>
    <TTGlyph name="guilsinglleft" xMin="15" yMin="82" xMax="237" yMax="479">
      <contour>
        <pt x="15" y="324" on="1"/>
        <pt x="160" y="479" on="1"/>
        <pt x="236" y="415" on="1"/>
        <pt x="154" y="281" on="1"/>
        <pt x="237" y="146" on="1"/>
        <pt x="160" y="82" on="1"/>
        <pt x="15" y="238" on="1"/>
      </contour>
    </TTGlyph>
    <TTGlyph name="guilsinglright" xMin="20" yMin="82" xMax="242" yMax="479">
      <contour>
        <pt x="97" y="479" on="1"/>
        <pt x="242" y="324" on="1"/>
        <pt x="242" y="238" on="1"/>
        <pt x="97" y="82" on="1"/>
        <pt x="20" y="146" on="1"/>
        <pt x="103" y="281" on="1"/>
        <pt x="21" y="415" on="1"/>
      </contour>
    </TTGlyph>
    <TTGlyph name="h" xMin="45" yMin="0" xMax="652" yMax="729">
      <contour>
        <pt x="652" y="0" on="1"/>
        <pt x="422" y="0" on="1"/>
        <pt x="422" y="464" on="1"/>
        <pt x="275" y="464" on="1"/>
        <pt x="275" y="0" on="1"/>
        <pt x="45" y="0" on="1"/>
        <pt x="45" y="38" on="1"/>
        <pt x="85" y="38" on="1"/>
        <pt x="85" y="691" on="1"/>
        <pt x="45" y="691" on="1"/>
        <pt x="45" y="729" on="1"/>
        <pt x="275" y="729" on="1"/>
        <pt x="275" y="595" on="1"/>
        <pt x="234" y="580" on="1"/>
        <pt x="217" y="574" on="0"/>
        <pt x="208" y="563" on="0"/>
        <pt x="208" y="550" on="1"/>
        <pt x="208" y="464" on="1"/>
        <pt x="226" y="464" on="1"/>
        <pt x="247" y="520" on="0"/>
        <pt x="332" y="555" on="0"/>
        <pt x="512" y="555" on="0"/>
        <pt x="612" y="488" on="0"/>
        <pt x="612" y="405" on="1"/>
        <pt x="612" y="38" on="1"/>
        <pt x="652" y="38" on="1"/>
      </contour>
    </TTGlyph>
    <TTGlyph name="hungarumlaut" xMin="20" yMin="580" xMax="475" yMax="804">
      <contour>
        <pt x="20" y="650" on="1"/>
        <pt x="147" y="804" on="1"/>
        <pt x="243" y="701" on="1"/>
        <pt x="88" y="580" on="1"/>
      </contour>
      <contour>
        <pt x="252" y="650" on="1"/>
        <pt x="379" y="804" on="1"/>
        <pt x="475" y="701" on="1"/>
        <pt x="320" y="580" on="1"/>
      </contour>
    </TTGlyph>
    <TTGlyph name="hyphen" xMin="30" yMin="213" xMax="342" yMax="351">
      <contour>
        <pt x="30" y="213" on="1"/>
        <pt x="30" y="351" on="1"/>
        <pt x="342" y="351" on="1"/>
        <pt x="342" y="213" on="1"/>
      </contour>
    </TTGlyph>
    <TTGlyph name="i" xMin="45" yMin="0" xMax="315" yMax="765">
      <contour>
        <pt x="315" y="0" on="1"/>
        <pt x="45" y="0" on="1"/>
        <pt x="45" y="38" on="1"/>
        <pt x="85" y="38" on="1"/>
        <pt x="85" y="512" on="1"/>
        <pt x="45" y="512" on="1"/>
        <pt x="45" y="550" on="1"/>
        <pt x="275" y="550" on="1"/>
        <pt x="275" y="38" on="1"/>
        <pt x="315" y="38" on="1"/>
      </contour>
      <contour>
        <pt x="284" y="737" on="0"/>
        <pt x="284" y="627" on="0"/>
        <pt x="248" y="599" on="0"/>
        <pt x="116" y="599" on="0"/>
        <pt x="75" y="627" on="0"/>
        <pt x="75" y="737" on="0"/>
        <pt x="116" y="765" on="0"/>
        <pt x="248" y="765" on="0"/>
      </contour>
    </TTGlyph>
    <TTGlyph name="iacute" xMin="45" yMin="0" xMax="315" yMax="780">
      <contour>
        <pt x="315" y="0" on="1"/>
        <pt x="45" y="0" on="1"/>
        <pt x="45" y="38" on="1"/>
        <pt x="85" y="38" on="1"/>
        <pt x="85" y="512" on="1"/>
        <pt x="45" y="512" on="1"/>
        <pt x="45" y="550" on="1"/>
        <pt x="275" y="550" on="1"/>
        <pt x="275" y="38" on="1"/>
        <pt x="315" y="38" on="1"/>
      </contour>
      <contour>
        <pt x="47" y="678" on="1"/>
        <pt x="258" y="780" on="1"/>
        <pt x="307" y="645" on="1"/>
        <pt x="80" y="586" on="1"/>
      </contour>
    </TTGlyph>
    <TTGlyph name="icircumflex" xMin="12" yMin="0" xMax="344" yMax="787">
      <contour>
        <pt x="315" y="0" on="1"/>
        <pt x="45" y="0" on="1"/>
        <pt x="45" y="38" on="1"/>
        <pt x="85" y="38" on="1"/>
        <pt x="85" y="512" on="1"/>
        <pt x="45" y="512" on="1"/>
        <pt x="45" y="550" on="1"/>
        <pt x="275" y="550" on="1"/>
        <pt x="275" y="38" on="1"/>
        <pt x="315" y="38" on="1"/>
      </contour>
      <contour>
        <pt x="226" y="787" on="1"/>
        <pt x="344" y="657" on="1"/>
        <pt x="285" y="586" on="1"/>
        <pt x="178" y="662" on="1"/>
        <pt x="71" y="586" on="1"/>
        <pt x="12" y="657" on="1"/>
        <pt x="130" y="787" on="1"/>
      </contour>
    </TTGlyph>
    <TTGlyph name="idieresis" xMin="-3" yMin="0" xMax="329" yMax="765">
      <contour>
        <pt x="315" y="0" on="1"/>
        <pt x="45" y="0" on="1"/>
        <pt x="45" y="38" on="1"/>
        <pt x="85" y="38" on="1"/>
        <pt x="85" y="512" on="1"/>
        <pt x="45" y="512" on="1"/>
        <pt x="45" y="550" on="1"/>
        <pt x="275" y="550" on="1"/>
        <pt x="275" y="38" on="1"/>
        <pt x="315" y="38" on="1"/>
      </contour>
      <contour>
        <pt x="131" y="737" on="0"/>
        <pt x="131" y="627" on="0"/>
        <pt x="108" y="599" on="0"/>
        <pt x="23" y="599" on="0"/>
        <pt x="-3" y="627" on="0"/>
        <pt x="-3" y="737" on="0"/>
        <pt x="23" y="765" on="0"/>
        <pt x="108" y="765" on="0"/>
      </contour>
      <contour>
        <pt x="329" y="737" on="0"/>
        <pt x="329" y="627" on="0"/>
        <pt x="306" y="599" on="0"/>
        <pt x="221" y="599" on="0"/>
        <pt x="195" y="627" on="0"/>
        <pt x="195" y="737" on="0"/>
        <pt x="221" y="765" on="0"/>
        <pt x="306" y="765" on="0"/>
      </contour>
    </TTGlyph>
    <TTGlyph name="igrave" xMin="45" yMin="0" xMax="315" yMax="780">
      <contour>
        <pt x="315" y="0" on="1"/>
        <pt x="45" y="0" on="1"/>
        <pt x="45" y="38" on="1"/>
        <pt x="85" y="38" on="1"/>
        <pt x="85" y="512" on="1"/>
        <pt x="45" y="512" on="1"/>
        <pt x="45" y="550" on="1"/>
        <pt x="275" y="550" on="1"/>
        <pt x="275" y="38" on="1"/>
        <pt x="315" y="38" on="1"/>
      </contour>
      <contour>
        <pt x="97" y="780" on="1"/>
        <pt x="308" y="678" on="1"/>
        <pt x="275" y="586" on="1"/>
        <pt x="48" y="645" on="1"/>
      </contour>
    </TTGlyph>
    <TTGlyph name="infinity" xMin="50" yMin="103" xMax="812" yMax="519">
      <contour>
        <pt x="630" y="103" on="1"/>
        <pt x="570" y="103" on="0"/>
        <pt x="480" y="171" on="0"/>
        <pt x="437" y="236" on="1"/>
        <pt x="397" y="167" on="0"/>
        <pt x="296" y="103" on="0"/>
        <pt x="152" y="103" on="0"/>
        <pt x="50" y="217" on="0"/>
        <pt x="50" y="404" on="0"/>
        <pt x="154" y="519" on="0"/>
        <pt x="231" y="519" on="1"/>
        <pt x="292" y="519" on="0"/>
        <pt x="382" y="451" on="0"/>
        <pt x="425" y="387" on="1"/>
        <pt x="465" y="455" on="0"/>
        <pt x="566" y="519" on="0"/>
        <pt x="710" y="519" on="0"/>
        <pt x="812" y="405" on="0"/>
        <pt x="812" y="218" on="0"/>
        <pt x="708" y="103" on="0"/>
      </contour>
      <contour>
        <pt x="145" y="261" on="0"/>
        <pt x="201" y="195" on="0"/>
        <pt x="286" y="195" on="0"/>
        <pt x="361" y="262" on="0"/>
        <pt x="384" y="318" on="1"/>
        <pt x="316" y="426" on="0"/>
        <pt x="247" y="426" on="1"/>
        <pt x="201" y="426" on="0"/>
        <pt x="145" y="366" on="0"/>
      </contour>
      <contour>
        <pt x="717" y="361" on="0"/>
        <pt x="661" y="427" on="0"/>
        <pt x="576" y="427" on="0"/>
        <pt x="501" y="361" on="0"/>
        <pt x="478" y="305" on="1"/>
        <pt x="547" y="196" on="0"/>
        <pt x="615" y="196" on="1"/>
        <pt x="661" y="196" on="0"/>
        <pt x="717" y="256" on="0"/>
      </contour>
    </TTGlyph>
    <TTGlyph name="integral" xMin="-11" yMin="-195" xMax="406" yMax="615">
      <contour>
        <pt x="305" y="550" on="1"/>
        <pt x="305" y="56" on="1"/>
        <pt x="305" y="-96" on="0"/>
        <pt x="239" y="-148" on="1"/>
        <pt x="216" y="-166" on="0"/>
        <pt x="180" y="-184" on="0"/>
        <pt x="150" y="-189" on="1"/>
        <pt x="115" y="-195" on="0"/>
        <pt x="27" y="-195" on="0"/>
        <pt x="-11" y="-190" on="1"/>
        <pt x="-2" y="-130" on="1"/>
        <pt x="90" y="-130" on="1"/>
        <pt x="90" y="364" on="1"/>
        <pt x="90" y="516" on="0"/>
        <pt x="156" y="568" on="1"/>
        <pt x="179" y="586" on="0"/>
        <pt x="215" y="604" on="0"/>
        <pt x="244" y="609" on="1"/>
        <pt x="280" y="615" on="0"/>
        <pt x="368" y="615" on="0"/>
        <pt x="406" y="610" on="1"/>
        <pt x="397" y="550" on="1"/>
      </contour>
    </TTGlyph>
    <TTGlyph name="j" xMin="14" yMin="-195" xMax="289" yMax="765">
      <contour>
        <pt x="98" y="-195" on="1"/>
        <pt x="51" y="-195" on="0"/>
        <pt x="14" y="-187" on="1"/>
        <pt x="34" y="-30" on="1"/>
        <pt x="156" y="-30" on="1"/>
        <pt x="156" y="23" on="1"/>
        <pt x="156" y="35" on="0"/>
        <pt x="151" y="41" on="1"/>
        <pt x="144" y="49" on="0"/>
        <pt x="126" y="49" on="1"/>
        <pt x="90" y="49" on="1"/>
        <pt x="90" y="512" on="1"/>
        <pt x="50" y="512" on="1"/>
        <pt x="50" y="550" on="1"/>
        <pt x="280" y="550" on="1"/>
        <pt x="280" y="20" on="1"/>
        <pt x="280" y="-92" on="0"/>
        <pt x="189" y="-195" on="0"/>
      </contour>
      <contour>
        <pt x="289" y="737" on="0"/>
        <pt x="289" y="627" on="0"/>
        <pt x="253" y="599" on="0"/>
        <pt x="121" y="599" on="0"/>
        <pt x="80" y="627" on="0"/>
        <pt x="80" y="737" on="0"/>
        <pt x="121" y="765" on="0"/>
        <pt x="253" y="765" on="0"/>
      </contour>
    </TTGlyph>
    <TTGlyph name="k" xMin="40" yMin="0" xMax="632" yMax="729">
      <contour>
        <pt x="270" y="0" on="1"/>
        <pt x="40" y="0" on="1"/>
        <pt x="40" y="38" on="1"/>
        <pt x="80" y="38" on="1"/>
        <pt x="80" y="691" on="1"/>
        <pt x="40" y="691" on="1"/>
        <pt x="40" y="729" on="1"/>
        <pt x="297" y="729" on="1"/>
        <pt x="297" y="580" on="1"/>
        <pt x="278" y="573" on="1"/>
        <pt x="261" y="567" on="0"/>
        <pt x="252" y="556" on="0"/>
        <pt x="252" y="543" on="1"/>
        <pt x="252" y="359" on="1"/>
        <pt x="270" y="359" on="1"/>
        <pt x="303" y="471" on="0"/>
        <pt x="383" y="559" on="0"/>
        <pt x="517" y="559" on="0"/>
        <pt x="554" y="551" on="1"/>
        <pt x="534" y="394" on="1"/>
        <pt x="412" y="394" on="1"/>
        <pt x="412" y="341" on="1"/>
        <pt x="412" y="329" on="0"/>
        <pt x="417" y="323" on="1"/>
        <pt x="424" y="315" on="0"/>
        <pt x="442" y="315" on="1"/>
        <pt x="527" y="315" on="1"/>
        <pt x="593" y="38" on="1"/>
        <pt x="632" y="38" on="1"/>
        <pt x="632" y="0" on="1"/>
        <pt x="391" y="0" on="1"/>
        <pt x="343" y="268" on="1"/>
        <pt x="270" y="268" on="1"/>
      </contour>
    </TTGlyph>
    <TTGlyph name="l" xMin="45" yMin="0" xMax="315" yMax="729">
      <contour>
        <pt x="45" y="729" on="1"/>
        <pt x="275" y="729" on="1"/>
        <pt x="275" y="38" on="1"/>
        <pt x="315" y="38" on="1"/>
        <pt x="315" y="0" on="1"/>
        <pt x="45" y="0" on="1"/>
        <pt x="45" y="38" on="1"/>
        <pt x="85" y="38" on="1"/>
        <pt x="85" y="691" on="1"/>
        <pt x="45" y="691" on="1"/>
      </contour>
    </TTGlyph>
    <TTGlyph name="less" xMin="60" yMin="86" xMax="480" yMax="543">
      <contour>
        <pt x="60" y="266" on="1"/>
        <pt x="60" y="363" on="1"/>
        <pt x="480" y="543" on="1"/>
        <pt x="480" y="441" on="1"/>
        <pt x="168" y="314" on="1"/>
        <pt x="480" y="188" on="1"/>
        <pt x="480" y="86" on="1"/>
      </contour>
    </TTGlyph>
    <TTGlyph name="lessequal" xMin="60" yMin="0" xMax="480" yMax="645">
      <contour>
        <pt x="60" y="368" on="1"/>
        <pt x="60" y="465" on="1"/>
        <pt x="480" y="645" on="1"/>
        <pt x="480" y="543" on="1"/>
        <pt x="168" y="416" on="1"/>
        <pt x="480" y="290" on="1"/>
        <pt x="480" y="188" on="1"/>
      </contour>
      <contour>
        <pt x="60" y="0" on="1"/>
        <pt x="60" y="102" on="1"/>
        <pt x="480" y="102" on="1"/>
        <pt x="480" y="0" on="1"/>
      </contour>
    </TTGlyph>
    <TTGlyph name="logicalnot" xMin="60" yMin="121" xMax="480" yMax="363">
      <contour>
        <pt x="480" y="121" on="1"/>
        <pt x="399" y="121" on="1"/>
        <pt x="399" y="261" on="1"/>
        <pt x="60" y="261" on="1"/>
        <pt x="60" y="363" on="1"/>
        <pt x="480" y="363" on="1"/>
      </contour>
    </TTGlyph>
    <TTGlyph name="lozenge" xMin="50" yMin="-114" xMax="576" yMax="600">
      <contour>
        <pt x="414" y="600" on="1"/>
        <pt x="576" y="243" on="1"/>
        <pt x="393" y="-114" on="1"/>
        <pt x="212" y="-114" on="1"/>
        <pt x="50" y="243" on="1"/>
        <pt x="233" y="600" on="1"/>
      </contour>
      <contour>
        <pt x="387" y="13" on="1"/>
        <pt x="503" y="243" on="1"/>
        <pt x="277" y="473" on="1"/>
        <pt x="238" y="473" on="1"/>
        <pt x="122" y="243" on="1"/>
        <pt x="349" y="13" on="1"/>
      </contour>
    </TTGlyph>
    <TTGlyph name="lslash" xMin="5" yMin="0" xMax="350" yMax="729">
      <contour>
        <pt x="45" y="729" on="1"/>
        <pt x="275" y="729" on="1"/>
        <pt x="275" y="437" on="1"/>
        <pt x="350" y="470" on="1"/>
        <pt x="350" y="408" on="1"/>
        <pt x="275" y="375" on="1"/>
        <pt x="275" y="38" on="1"/>
        <pt x="315" y="38" on="1"/>
        <pt x="315" y="0" on="1"/>
        <pt x="45" y="0" on="1"/>
        <pt x="45" y="38" on="1"/>
        <pt x="85" y="38" on="1"/>
        <pt x="85" y="292" on="1"/>
        <pt x="5" y="257" on="1"/>
        <pt x="5" y="319" on="1"/>
        <pt x="85" y="354" on="1"/>
        <pt x="85" y="691" on="1"/>
        <pt x="45" y="691" on="1"/>
      </contour>
    </TTGlyph>
    <TTGlyph name="m" xMin="45" yMin="0" xMax="929" yMax="565">
      <contour>
        <pt x="275" y="474" on="1"/>
        <pt x="275" y="0" on="1"/>
        <pt x="45" y="0" on="1"/>
        <pt x="45" y="38" on="1"/>
        <pt x="85" y="38" on="1"/>
        <pt x="85" y="512" on="1"/>
        <pt x="45" y="512" on="1"/>
        <pt x="45" y="550" on="1"/>
        <pt x="178" y="550" on="1"/>
        <pt x="213" y="474" on="1"/>
        <pt x="226" y="474" on="1"/>
        <pt x="247" y="530" on="0"/>
        <pt x="324" y="565" on="0"/>
        <pt x="396" y="565" on="1"/>
        <pt x="505" y="565" on="0"/>
        <pt x="544" y="514" on="1"/>
        <pt x="566" y="545" on="0"/>
        <pt x="635" y="565" on="0"/>
        <pt x="693" y="565" on="1"/>
        <pt x="790" y="565" on="0"/>
        <pt x="889" y="498" on="0"/>
        <pt x="889" y="415" on="1"/>
        <pt x="889" y="38" on="1"/>
        <pt x="929" y="38" on="1"/>
        <pt x="929" y="0" on="1"/>
        <pt x="699" y="0" on="1"/>
        <pt x="699" y="474" on="1"/>
        <pt x="582" y="474" on="1"/>
        <pt x="582" y="0" on="1"/>
        <pt x="392" y="0" on="1"/>
        <pt x="392" y="474" on="1"/>
      </contour>
    </TTGlyph>
    <TTGlyph name="macron" xMin="40" yMin="610" xMax="332" yMax="734">
      <contour>
        <pt x="40" y="610" on="1"/>
        <pt x="40" y="734" on="1"/>
        <pt x="332" y="734" on="1"/>
        <pt x="332" y="610" on="1"/>
      </contour>
    </TTGlyph>
    <TTGlyph name="minus" xMin="60" yMin="261" xMax="480" yMax="363">
      <contour>
        <pt x="60" y="261" on="1"/>
        <pt x="60" y="363" on="1"/>
        <pt x="480" y="363" on="1"/>
        <pt x="480" y="261" on="1"/>
      </contour>
    </TTGlyph>
    <TTGlyph name="mu" xMin="80" yMin="-180" xMax="607" yMax="550">
      <contour>
        <pt x="80" y="-180" on="1"/>
        <pt x="80" y="550" on="1"/>
        <pt x="270" y="550" on="1"/>
        <pt x="270" y="76" on="1"/>
        <pt x="417" y="76" on="1"/>
        <pt x="417" y="550" on="1"/>
        <pt x="607" y="550" on="1"/>
        <pt x="607" y="0" on="1"/>
        <pt x="524" y="0" on="1"/>
        <pt x="484" y="76" on="1"/>
        <pt x="471" y="76" on="1"/>
        <pt x="471" y="23" on="0"/>
        <pt x="394" y="-15" on="0"/>
        <pt x="272" y="-15" on="0"/>
        <pt x="250" y="-13" on="1"/>
        <pt x="220" y="-180" on="1"/>
      </contour>
    </TTGlyph>
    <TTGlyph name="multiply" xMin="77" yMin="119" xMax="463" yMax="505">
      <contour>
        <pt x="145" y="119" on="1"/>
        <pt x="77" y="187" on="1"/>
        <pt x="202" y="312" on="1"/>
        <pt x="77" y="437" on="1"/>
        <pt x="145" y="505" on="1"/>
        <pt x="270" y="380" on="1"/>
        <pt x="395" y="505" on="1"/>
        <pt x="463" y="437" on="1"/>
        <pt x="338" y="312" on="1"/>
        <pt x="463" y="187" on="1"/>
        <pt x="395" y="119" on="1"/>
        <pt x="270" y="244" on="1"/>
      </contour>
    </TTGlyph>
    <TTGlyph name="n" xMin="45" yMin="0" xMax="652" yMax="565">
      <contour>
        <pt x="652" y="0" on="1"/>
        <pt x="422" y="0" on="1"/>
        <pt x="422" y="474" on="1"/>
        <pt x="275" y="474" on="1"/>
        <pt x="275" y="0" on="1"/>
        <pt x="45" y="0" on="1"/>
        <pt x="45" y="38" on="1"/>
        <pt x="85" y="38" on="1"/>
        <pt x="85" y="512" on="1"/>
        <pt x="45" y="512" on="1"/>
        <pt x="45" y="550" on="1"/>
        <pt x="178" y="550" on="1"/>
        <pt x="213" y="474" on="1"/>
        <pt x="226" y="474" on="1"/>
        <pt x="247" y="530" on="0"/>
        <pt x="332" y="565" on="0"/>
        <pt x="512" y="565" on="0"/>
        <pt x="612" y="498" on="0"/>
        <pt x="612" y="415" on="1"/>
        <pt x="612" y="38" on="1"/>
        <pt x="652" y="38" on="1"/>
      </contour>
    </TTGlyph>
    <TTGlyph name="nine" xMin="40" yMin="-15" xMax="529" yMax="615">
      <contour>
        <pt x="344" y="285" on="1"/>
        <pt x="344" y="550" on="1"/>
        <pt x="217" y="550" on="1"/>
        <pt x="217" y="285" on="1"/>
      </contour>
      <contour>
        <pt x="217" y="50" on="1"/>
        <pt x="344" y="50" on="1"/>
        <pt x="344" y="216" on="1"/>
        <pt x="252" y="216" on="1"/>
        <pt x="146" y="216" on="0"/>
        <pt x="40" y="299" on="0"/>
        <pt x="40" y="528" on="0"/>
        <pt x="144" y="615" on="0"/>
        <pt x="294" y="615" on="1"/>
        <pt x="372" y="615" on="0"/>
        <pt x="416" y="602" on="0"/>
        <pt x="455" y="584" on="0"/>
        <pt x="478" y="560" on="0"/>
        <pt x="505" y="521" on="0"/>
        <pt x="512" y="496" on="1"/>
        <pt x="529" y="437" on="0"/>
        <pt x="529" y="364" on="1"/>
        <pt x="529" y="236" on="1"/>
        <pt x="529" y="113" on="0"/>
        <pt x="486" y="60" on="1"/>
        <pt x="471" y="40" on="0"/>
        <pt x="446" y="16" on="0"/>
        <pt x="402" y="-2" on="0"/>
        <pt x="372" y="-10" on="0"/>
        <pt x="346" y="-12" on="1"/>
        <pt x="307" y="-15" on="0"/>
        <pt x="265" y="-15" on="1"/>
        <pt x="153" y="-15" on="0"/>
        <pt x="55" y="8" on="1"/>
        <pt x="70" y="167" on="1"/>
        <pt x="186" y="167" on="1"/>
      </contour>
    </TTGlyph>
    <TTGlyph name="notequal" xMin="60" yMin="-122" xMax="480" yMax="736">
      <contour>
        <pt x="60" y="361" on="1"/>
        <pt x="60" y="463" on="1"/>
        <pt x="284" y="463" on="1"/>
        <pt x="355" y="736" on="1"/>
        <pt x="406" y="736" on="1"/>
        <pt x="335" y="463" on="1"/>
        <pt x="480" y="463" on="1"/>
        <pt x="480" y="361" on="1"/>
        <pt x="309" y="361" on="1"/>
        <pt x="283" y="263" on="1"/>
        <pt x="480" y="263" on="1"/>
        <pt x="480" y="161" on="1"/>
        <pt x="257" y="161" on="1"/>
        <pt x="184" y="-122" on="1"/>
        <pt x="134" y="-122" on="1"/>
        <pt x="207" y="161" on="1"/>
        <pt x="60" y="161" on="1"/>
        <pt x="60" y="263" on="1"/>
        <pt x="233" y="263" on="1"/>
        <pt x="258" y="361" on="1"/>
      </contour>
    </TTGlyph>
    <TTGlyph name="ntilde" xMin="10" yMin="0" xMax="617" yMax="765">
      <contour>
        <pt x="617" y="0" on="1"/>
        <pt x="387" y="0" on="1"/>
        <pt x="387" y="474" on="1"/>
        <pt x="240" y="474" on="1"/>
        <pt x="240" y="0" on="1"/>
        <pt x="10" y="0" on="1"/>
        <pt x="10" y="38" on="1"/>
        <pt x="50" y="38" on="1"/>
        <pt x="50" y="512" on="1"/>
        <pt x="10" y="512" on="1"/>
        <pt x="10" y="550" on="1"/>
        <pt x="143" y="550" on="1"/>
        <pt x="178" y="474" on="1"/>
        <pt x="191" y="474" on="1"/>
        <pt x="212" y="530" on="0"/>
        <pt x="297" y="565" on="0"/>
        <pt x="477" y="565" on="0"/>
        <pt x="577" y="498" on="0"/>
        <pt x="577" y="415" on="1"/>
        <pt x="577" y="38" on="1"/>
        <pt x="617" y="38" on="1"/>
      </contour>
      <contour>
        <pt x="489" y="741" on="1"/>
        <pt x="478" y="684" on="1"/>
        <pt x="459" y="583" on="0"/>
        <pt x="360" y="583" on="1"/>
        <pt x="290" y="583" on="0"/>
        <pt x="248" y="644" on="1"/>
        <pt x="236" y="644" on="1"/>
        <pt x="208" y="593" on="1"/>
        <pt x="136" y="606" on="1"/>
        <pt x="146" y="663" on="1"/>
        <pt x="164" y="765" on="0"/>
        <pt x="263" y="765" on="1"/>
        <pt x="335" y="765" on="0"/>
        <pt x="376" y="703" on="1"/>
        <pt x="388" y="703" on="1"/>
        <pt x="416" y="755" on="1"/>
      </contour>
    </TTGlyph>
    <TTGlyph name="numbersign" xMin="50" yMin="0" xMax="642" yMax="624">
      <contour>
        <pt x="84" y="361" on="1"/>
        <pt x="102" y="463" on="1"/>
        <pt x="221" y="463" on="1"/>
        <pt x="250" y="624" on="1"/>
        <pt x="352" y="624" on="1"/>
        <pt x="323" y="463" on="1"/>
        <pt x="421" y="463" on="1"/>
        <pt x="450" y="624" on="1"/>
        <pt x="552" y="624" on="1"/>
        <pt x="523" y="463" on="1"/>
        <pt x="642" y="463" on="1"/>
        <pt x="624" y="361" on="1"/>
        <pt x="505" y="361" on="1"/>
        <pt x="487" y="263" on="1"/>
        <pt x="607" y="263" on="1"/>
        <pt x="589" y="161" on="1"/>
        <pt x="469" y="161" on="1"/>
        <pt x="441" y="0" on="1"/>
        <pt x="339" y="0" on="1"/>
        <pt x="367" y="161" on="1"/>
        <pt x="269" y="161" on="1"/>
        <pt x="241" y="0" on="1"/>
        <pt x="139" y="0" on="1"/>
        <pt x="167" y="161" on="1"/>
        <pt x="50" y="161" on="1"/>
        <pt x="68" y="263" on="1"/>
        <pt x="185" y="263" on="1"/>
        <pt x="203" y="361" on="1"/>
      </contour>
      <contour>
        <pt x="305" y="361" on="1"/>
        <pt x="287" y="263" on="1"/>
        <pt x="385" y="263" on="1"/>
        <pt x="403" y="361" on="1"/>
      </contour>
    </TTGlyph>
    <TTGlyph name="o" xMin="60" yMin="-15" xMax="587" yMax="565">
      <contour>
        <pt x="587" y="314" on="1"/>
        <pt x="587" y="236" on="1"/>
        <pt x="587" y="110" on="0"/>
        <pt x="547" y="59" on="1"/>
        <pt x="532" y="40" on="0"/>
        <pt x="508" y="16" on="0"/>
        <pt x="462" y="-1" on="0"/>
        <pt x="432" y="-10" on="0"/>
        <pt x="404" y="-12" on="1"/>
        <pt x="311" y="-19" on="0"/>
        <pt x="200" y="-10" on="0"/>
        <pt x="172" y="-1" on="0"/>
        <pt x="131" y="16" on="0"/>
        <pt x="109" y="40" on="0"/>
        <pt x="82" y="78" on="0"/>
        <pt x="76" y="103" on="1"/>
        <pt x="60" y="163" on="0"/>
        <pt x="60" y="236" on="1"/>
        <pt x="60" y="314" on="1"/>
        <pt x="60" y="440" on="0"/>
        <pt x="100" y="491" on="1"/>
        <pt x="115" y="510" on="0"/>
        <pt x="139" y="534" on="0"/>
        <pt x="185" y="551" on="0"/>
        <pt x="215" y="560" on="0"/>
        <pt x="244" y="562" on="1"/>
        <pt x="286" y="565" on="0"/>
        <pt x="366" y="565" on="0"/>
        <pt x="395" y="564" on="0"/>
        <pt x="447" y="560" on="0"/>
        <pt x="475" y="551" on="0"/>
        <pt x="516" y="534" on="0"/>
        <pt x="538" y="510" on="0"/>
        <pt x="565" y="472" on="0"/>
        <pt x="572" y="447" on="1"/>
        <pt x="587" y="387" on="0"/>
      </contour>
      <contour>
        <pt x="397" y="60" on="1"/>
        <pt x="397" y="490" on="1"/>
        <pt x="250" y="490" on="1"/>
        <pt x="250" y="60" on="1"/>
      </contour>
    </TTGlyph>
    <TTGlyph name="oacute" xMin="60" yMin="-15" xMax="587" yMax="780">
      <contour>
        <pt x="587" y="314" on="1"/>
        <pt x="587" y="236" on="1"/>
        <pt x="587" y="110" on="0"/>
        <pt x="547" y="59" on="1"/>
        <pt x="532" y="40" on="0"/>
        <pt x="508" y="16" on="0"/>
        <pt x="462" y="-1" on="0"/>
        <pt x="432" y="-10" on="0"/>
        <pt x="404" y="-12" on="1"/>
        <pt x="311" y="-19" on="0"/>
        <pt x="200" y="-10" on="0"/>
        <pt x="172" y="-1" on="0"/>
        <pt x="131" y="16" on="0"/>
        <pt x="109" y="40" on="0"/>
        <pt x="82" y="78" on="0"/>
        <pt x="76" y="103" on="1"/>
        <pt x="60" y="163" on="0"/>
        <pt x="60" y="236" on="1"/>
        <pt x="60" y="314" on="1"/>
        <pt x="60" y="440" on="0"/>
        <pt x="100" y="491" on="1"/>
        <pt x="115" y="510" on="0"/>
        <pt x="139" y="534" on="0"/>
        <pt x="185" y="551" on="0"/>
        <pt x="215" y="560" on="0"/>
        <pt x="244" y="562" on="1"/>
        <pt x="286" y="565" on="0"/>
        <pt x="366" y="565" on="0"/>
        <pt x="395" y="564" on="0"/>
        <pt x="447" y="560" on="0"/>
        <pt x="475" y="551" on="0"/>
        <pt x="516" y="534" on="0"/>
        <pt x="538" y="510" on="0"/>
        <pt x="565" y="472" on="0"/>
        <pt x="572" y="447" on="1"/>
        <pt x="587" y="387" on="0"/>
      </contour>
      <contour>
        <pt x="397" y="60" on="1"/>
        <pt x="397" y="490" on="1"/>
        <pt x="250" y="490" on="1"/>
        <pt x="250" y="60" on="1"/>
      </contour>
      <contour>
        <pt x="239" y="678" on="1"/>
        <pt x="450" y="780" on="1"/>
        <pt x="499" y="645" on="1"/>
        <pt x="272" y="586" on="1"/>
      </contour>
    </TTGlyph>
    <TTGlyph name="ocircumflex" xMin="60" yMin="-15" xMax="587" yMax="787">
      <contour>
        <pt x="587" y="314" on="1"/>
        <pt x="587" y="236" on="1"/>
        <pt x="587" y="110" on="0"/>
        <pt x="547" y="59" on="1"/>
        <pt x="532" y="40" on="0"/>
        <pt x="508" y="16" on="0"/>
        <pt x="462" y="-1" on="0"/>
        <pt x="432" y="-10" on="0"/>
        <pt x="404" y="-12" on="1"/>
        <pt x="311" y="-19" on="0"/>
        <pt x="200" y="-10" on="0"/>
        <pt x="172" y="-1" on="0"/>
        <pt x="131" y="16" on="0"/>
        <pt x="109" y="40" on="0"/>
        <pt x="82" y="78" on="0"/>
        <pt x="76" y="103" on="1"/>
        <pt x="60" y="163" on="0"/>
        <pt x="60" y="236" on="1"/>
        <pt x="60" y="314" on="1"/>
        <pt x="60" y="440" on="0"/>
        <pt x="100" y="491" on="1"/>
        <pt x="115" y="510" on="0"/>
        <pt x="139" y="534" on="0"/>
        <pt x="185" y="551" on="0"/>
        <pt x="215" y="560" on="0"/>
        <pt x="244" y="562" on="1"/>
        <pt x="286" y="565" on="0"/>
        <pt x="366" y="565" on="0"/>
        <pt x="395" y="564" on="0"/>
        <pt x="447" y="560" on="0"/>
        <pt x="475" y="551" on="0"/>
        <pt x="516" y="534" on="0"/>
        <pt x="538" y="510" on="0"/>
        <pt x="565" y="472" on="0"/>
        <pt x="572" y="447" on="1"/>
        <pt x="587" y="387" on="0"/>
      </contour>
      <contour>
        <pt x="397" y="60" on="1"/>
        <pt x="397" y="490" on="1"/>
        <pt x="250" y="490" on="1"/>
        <pt x="250" y="60" on="1"/>
      </contour>
      <contour>
        <pt x="371" y="787" on="1"/>
        <pt x="489" y="657" on="1"/>
        <pt x="430" y="586" on="1"/>
        <pt x="323" y="662" on="1"/>
        <pt x="216" y="586" on="1"/>
        <pt x="157" y="657" on="1"/>
        <pt x="275" y="787" on="1"/>
      </contour>
    </TTGlyph>
    <TTGlyph name="odieresis" xMin="60" yMin="-15" xMax="587" yMax="765">
      <contour>
        <pt x="587" y="314" on="1"/>
        <pt x="587" y="236" on="1"/>
        <pt x="587" y="110" on="0"/>
        <pt x="547" y="59" on="1"/>
        <pt x="532" y="40" on="0"/>
        <pt x="508" y="16" on="0"/>
        <pt x="462" y="-1" on="0"/>
        <pt x="432" y="-10" on="0"/>
        <pt x="404" y="-12" on="1"/>
        <pt x="311" y="-19" on="0"/>
        <pt x="200" y="-10" on="0"/>
        <pt x="172" y="-1" on="0"/>
        <pt x="131" y="16" on="0"/>
        <pt x="109" y="40" on="0"/>
        <pt x="82" y="78" on="0"/>
        <pt x="76" y="103" on="1"/>
        <pt x="60" y="163" on="0"/>
        <pt x="60" y="236" on="1"/>
        <pt x="60" y="314" on="1"/>
        <pt x="60" y="440" on="0"/>
        <pt x="100" y="491" on="1"/>
        <pt x="115" y="510" on="0"/>
        <pt x="139" y="534" on="0"/>
        <pt x="185" y="551" on="0"/>
        <pt x="215" y="560" on="0"/>
        <pt x="244" y="562" on="1"/>
        <pt x="286" y="565" on="0"/>
        <pt x="366" y="565" on="0"/>
        <pt x="395" y="564" on="0"/>
        <pt x="447" y="560" on="0"/>
        <pt x="475" y="551" on="0"/>
        <pt x="516" y="534" on="0"/>
        <pt x="538" y="510" on="0"/>
        <pt x="565" y="472" on="0"/>
        <pt x="572" y="447" on="1"/>
        <pt x="587" y="387" on="0"/>
      </contour>
      <contour>
        <pt x="397" y="60" on="1"/>
        <pt x="397" y="490" on="1"/>
        <pt x="250" y="490" on="1"/>
        <pt x="250" y="60" on="1"/>
      </contour>
      <contour>
        <pt x="296" y="737" on="0"/>
        <pt x="296" y="627" on="0"/>
        <pt x="273" y="599" on="0"/>
        <pt x="188" y="599" on="0"/>
        <pt x="162" y="627" on="0"/>
        <pt x="162" y="737" on="0"/>
        <pt x="188" y="765" on="0"/>
        <pt x="273" y="765" on="0"/>
      </contour>
      <contour>
        <pt x="494" y="737" on="0"/>
        <pt x="494" y="627" on="0"/>
        <pt x="471" y="599" on="0"/>
        <pt x="386" y="599" on="0"/>
        <pt x="360" y="627" on="0"/>
        <pt x="360" y="737" on="0"/>
        <pt x="386" y="765" on="0"/>
        <pt x="471" y="765" on="0"/>
      </contour>
    </TTGlyph>
    <TTGlyph name="oe" xMin="60" yMin="-15" xMax="880" yMax="565">
      <contour>
        <pt x="587" y="60" on="1"/>
        <pt x="712" y="60" on="1"/>
        <pt x="738" y="171" on="1"/>
        <pt x="845" y="171" on="1"/>
        <pt x="868" y="15" on="1"/>
        <pt x="750" y="-15" on="0"/>
        <pt x="542" y="-15" on="0"/>
        <pt x="489" y="9" on="1"/>
        <pt x="440" y="-15" on="0"/>
        <pt x="310" y="-15" on="1"/>
        <pt x="216" y="-15" on="0"/>
        <pt x="172" y="-1" on="0"/>
        <pt x="131" y="16" on="0"/>
        <pt x="109" y="40" on="0"/>
        <pt x="82" y="78" on="0"/>
        <pt x="76" y="103" on="1"/>
        <pt x="60" y="163" on="0"/>
        <pt x="60" y="236" on="1"/>
        <pt x="60" y="314" on="1"/>
        <pt x="60" y="440" on="0"/>
        <pt x="100" y="491" on="1"/>
        <pt x="115" y="510" on="0"/>
        <pt x="139" y="534" on="0"/>
        <pt x="185" y="551" on="0"/>
        <pt x="215" y="560" on="0"/>
        <pt x="244" y="562" on="1"/>
        <pt x="286" y="565" on="0"/>
        <pt x="337" y="565" on="1"/>
        <pt x="452" y="565" on="0"/>
        <pt x="496" y="542" on="1"/>
        <pt x="544" y="565" on="0"/>
        <pt x="668" y="565" on="1"/>
        <pt x="770" y="565" on="0"/>
        <pt x="800" y="552" on="1"/>
        <pt x="845" y="532" on="0"/>
        <pt x="858" y="505" on="1"/>
        <pt x="880" y="462" on="0"/>
        <pt x="880" y="365" on="0"/>
        <pt x="867" y="312" on="0"/>
        <pt x="850" y="278" on="0"/>
        <pt x="813" y="254" on="0"/>
        <pt x="786" y="242" on="0"/>
        <pt x="759" y="239" on="1"/>
        <pt x="723" y="235" on="0"/>
        <pt x="668" y="235" on="1"/>
        <pt x="587" y="235" on="1"/>
      </contour>
      <contour>
        <pt x="250" y="490" on="1"/>
        <pt x="250" y="60" on="1"/>
        <pt x="428" y="60" on="1"/>
        <pt x="397" y="105" on="0"/>
        <pt x="397" y="184" on="1"/>
        <pt x="397" y="314" on="1"/>
        <pt x="397" y="432" on="0"/>
        <pt x="436" y="490" on="1"/>
      </contour>
      <contour>
        <pt x="587" y="490" on="1"/>
        <pt x="587" y="310" on="1"/>
        <pt x="724" y="310" on="1"/>
        <pt x="724" y="490" on="1"/>
      </contour>
    </TTGlyph>
    <TTGlyph name="ogonek" xMin="23" yMin="-165" xMax="240" yMax="38">
      <contour>
        <pt x="23" y="-87" on="1"/>
        <pt x="23" y="13" on="0"/>
        <pt x="193" y="38" on="1"/>
        <pt x="193" y="11" on="1"/>
        <pt x="133" y="3" on="0"/>
        <pt x="133" y="-40" on="1"/>
        <pt x="133" y="-55" on="0"/>
        <pt x="153" y="-72" on="0"/>
        <pt x="200" y="-72" on="0"/>
        <pt x="230" y="-53" on="1"/>
        <pt x="240" y="-110" on="1"/>
        <pt x="219" y="-132" on="0"/>
        <pt x="148" y="-165" on="0"/>
        <pt x="74" y="-165" on="0"/>
        <pt x="23" y="-126" on="0"/>
      </contour>
    </TTGlyph>
    <TTGlyph name="ograve" xMin="60" yMin="-15" xMax="587" yMax="780">
      <contour>
        <pt x="587" y="314" on="1"/>
        <pt x="587" y="236" on="1"/>
        <pt x="587" y="110" on="0"/>
        <pt x="547" y="59" on="1"/>
        <pt x="532" y="40" on="0"/>
        <pt x="508" y="16" on="0"/>
        <pt x="462" y="-1" on="0"/>
        <pt x="432" y="-10" on="0"/>
        <pt x="404" y="-12" on="1"/>
        <pt x="311" y="-19" on="0"/>
        <pt x="200" y="-10" on="0"/>
        <pt x="172" y="-1" on="0"/>
        <pt x="131" y="16" on="0"/>
        <pt x="109" y="40" on="0"/>
        <pt x="82" y="78" on="0"/>
        <pt x="76" y="103" on="1"/>
        <pt x="60" y="163" on="0"/>
        <pt x="60" y="236" on="1"/>
        <pt x="60" y="314" on="1"/>
        <pt x="60" y="440" on="0"/>
        <pt x="100" y="491" on="1"/>
        <pt x="115" y="510" on="0"/>
        <pt x="139" y="534" on="0"/>
        <pt x="185" y="551" on="0"/>
        <pt x="215" y="560" on="0"/>
        <pt x="244" y="562" on="1"/>
        <pt x="286" y="565" on="0"/>
        <pt x="366" y="565" on="0"/>
        <pt x="395" y="564" on="0"/>
        <pt x="447" y="560" on="0"/>
        <pt x="475" y="551" on="0"/>
        <pt x="516" y="534" on="0"/>
        <pt x="538" y="510" on="0"/>
        <pt x="565" y="472" on="0"/>
        <pt x="572" y="447" on="1"/>
        <pt x="587" y="387" on="0"/>
      </contour>
      <contour>
        <pt x="397" y="60" on="1"/>
        <pt x="397" y="490" on="1"/>
        <pt x="250" y="490" on="1"/>
        <pt x="250" y="60" on="1"/>
      </contour>
      <contour>
        <pt x="263" y="780" on="1"/>
        <pt x="474" y="678" on="1"/>
        <pt x="441" y="586" on="1"/>
        <pt x="214" y="645" on="1"/>
      </contour>
    </TTGlyph>
    <TTGlyph name="one" xMin="15" yMin="0" xMax="438" yMax="610">
      <contour>
        <pt x="438" y="0" on="1"/>
        <pt x="15" y="0" on="1"/>
        <pt x="15" y="38" on="1"/>
        <pt x="119" y="38" on="1"/>
        <pt x="119" y="355" on="1"/>
        <pt x="234" y="385" on="1"/>
        <pt x="234" y="413" on="1"/>
        <pt x="47" y="413" on="1"/>
        <pt x="24" y="546" on="1"/>
        <pt x="290" y="610" on="1"/>
        <pt x="334" y="610" on="1"/>
        <pt x="334" y="38" on="1"/>
        <pt x="438" y="38" on="1"/>
      </contour>
    </TTGlyph>
</ttFont>
